# Blender v2.77 (sub 0) OBJ File: 'DeadTreeSnow.blend'
# www.blender.org
o Cylinder.001
v 0.000000 -0.439600 0.000000
v 1.776038 2.004917 -0.000000
v 0.000000 -0.439600 -0.621688
v 0.000000 0.050026 -0.336361
v 0.538398 -0.439600 -0.310844
v 0.290297 0.074142 -0.168181
v 0.538398 -0.439600 0.310844
v 0.290297 0.074142 0.168181
v -0.000000 -0.439600 0.621688
v -0.000000 0.050026 0.336361
v -0.538398 -0.439600 0.310844
v -0.290297 0.025909 0.168181
v -0.538398 -0.439600 -0.310844
v -0.290297 0.025909 -0.168181
v -0.093846 1.179666 -0.253982
v 0.125304 1.160866 -0.126991
v 0.125304 1.160866 0.126991
v -0.093846 1.179666 0.253982
v -0.312997 1.198466 0.126991
v -0.312997 1.198466 -0.126991
v -0.057243 1.606349 -0.186865
v 0.080580 1.521534 -0.093433
v 0.080580 1.521534 0.093433
v -0.057243 1.606349 0.186865
v -0.195067 1.691165 0.093433
v -0.195067 1.691165 -0.093433
v 0.432966 2.109972 -0.128527
v 0.475108 2.006950 -0.064264
v 0.475108 2.006950 0.064264
v 0.432966 2.109972 0.128527
v 0.390824 2.212994 0.064264
v 0.390824 2.212994 -0.064264
v 1.122133 2.034652 -0.088876
v 1.102567 1.960212 -0.044438
v 1.102567 1.960212 0.044438
v 1.122133 2.034652 0.088876
v 1.141699 2.109093 0.044438
v 1.141699 2.109093 -0.044438
v 1.362558 1.942336 -0.075828
v 1.372386 1.877406 -0.037914
v 1.372386 1.877406 0.037914
v 1.362558 1.942336 0.075828
v 1.352731 2.007265 0.037914
v 1.352731 2.007265 -0.037914
v 1.776038 2.004917 -0.044023
v 1.781743 1.967222 -0.022012
v 1.781744 1.967222 0.022011
v 1.776038 2.004917 0.044023
v 1.770333 2.042613 0.022011
v 1.770333 2.042613 -0.022012
v -0.157071 1.367732 -0.180333
v -0.238529 1.402528 -0.127495
v -0.230859 1.494948 -0.113078
v -0.148174 1.543980 -0.149438
v -0.073075 1.496084 -0.200693
v -0.085317 1.398424 -0.213921
v -0.560288 1.541509 -0.880467
v -0.605327 1.569970 -0.831885
v -0.579877 1.624992 -0.806797
v -0.515459 1.646930 -0.829844
v -0.477420 1.611027 -0.879091
v -0.507003 1.553326 -0.903896
v -0.822742 1.889643 -1.308856
v -0.844214 1.908139 -1.278680
v -0.823097 1.934406 -1.261854
v -0.784470 1.940292 -1.275082
v -0.767831 1.918512 -1.305906
v -0.791588 1.891226 -1.322635
v -0.897069 2.079886 -1.468199
v -0.906132 2.087694 -1.455461
v -0.897218 2.098781 -1.448358
v -0.880913 2.101266 -1.453942
v -0.873890 2.092072 -1.466953
v -0.883918 2.080555 -1.474015
v -0.079553 1.007612 0.266529
v -0.088691 1.117604 0.258508
v -0.194781 1.188325 0.195493
v -0.311473 1.119768 0.129756
v -0.309095 0.996941 0.134070
v -0.200739 0.951296 0.197730
v -0.406082 1.221652 0.735628
v -0.394905 1.286528 0.703293
v -0.458372 1.335307 0.653516
v -0.551633 1.303484 0.638221
v -0.569647 1.231562 0.671990
v -0.500571 1.197257 0.715631
v -0.316995 1.652461 1.412069
v -0.327755 1.675013 1.390452
v -0.363949 1.697039 1.393288
v -0.393013 1.692163 1.427193
v -0.383314 1.667549 1.452631
v -0.348313 1.650332 1.444139
v 0.018657 2.203800 1.801929
v 0.014271 2.212991 1.793118
v -0.000481 2.221969 1.794273
v -0.012327 2.219981 1.808093
v -0.008374 2.209949 1.818461
v 0.005893 2.202932 1.815000
vt 0.2298 0.6594
vt 0.2298 0.7757
vt 0.1229 0.7173
vt 0.7868 0.2816
vt 0.7534 0.2510
vt 0.7597 0.2431
vt 0.5537 0.4683
vt 0.6856 0.4841
vt 0.6095 0.5605
vt 0.1229 0.6009
vt 0.4722 0.2845
vt 0.5927 0.4237
vt 0.1229 0.5430
vt 0.0319 0.6441
vt 0.0000 0.5430
vt 0.2298 0.5430
vt 0.4965 0.4844
vt 0.4397 0.3130
vt 1.0000 0.0969
vt 0.8672 0.1077
vt 0.9217 0.0158
vt 0.3367 0.6014
vt 0.0984 0.6441
vt 0.0408 0.8500
vt 0.8104 0.0962
vt 0.8128 0.0000
vt 0.3367 0.7178
vt 0.3105 0.2637
vt 0.3137 0.2412
vt 0.3660 0.2313
vt 0.2849 0.4414
vt 0.3713 0.5430
vt 0.2483 0.5321
vt 0.7510 0.2184
vt 0.4999 0.5842
vt 0.0910 0.8500
vt 0.0475 0.9181
vt 0.7476 0.3268
vt 0.7212 0.3153
vt 0.7323 0.2491
vt 0.7075 0.2470
vt 0.3158 0.2268
vt 0.3686 0.1364
vt 0.4092 0.2865
vt 0.4209 0.2784
vt 0.4329 0.2357
vt 0.3713 0.2377
vt 0.4469 0.1241
vt 0.4071 0.2446
vt 0.4592 0.1290
vt 0.0699 1.0000
vt 0.0445 1.0000
vt 0.7746 0.4268
vt 0.7620 0.4293
vt 0.6856 0.3235
vt 0.7429 0.4453
vt 0.3316 0.1331
vt 0.3713 0.0220
vt 0.4399 0.8293
vt 0.4356 0.7083
vt 0.4435 0.7114
vt 0.4612 0.7114
vt 0.4654 0.8293
vt 0.4709 0.7083
vt 0.4793 0.8380
vt 0.8811 0.5018
vt 0.8767 0.5111
vt 0.7366 0.4588
vt 0.5647 0.0511
vt 0.5699 0.0671
vt 0.6092 0.0451
vt 0.6183 0.0564
vt 0.5703 0.0755
vt 0.6233 0.0613
vt 0.4440 0.6602
vt 0.4590 0.6602
vt 0.4673 0.6626
vt 0.8861 0.4859
vt 0.9259 0.5086
vt 0.9222 0.5165
vt 0.6827 0.0066
vt 0.6856 0.0094
vt 0.4571 0.5842
vt 0.4620 0.5856
vt 1.0000 0.5457
vt 0.9948 0.5523
vt 0.9926 0.5569
vt 0.5684 0.5925
vt 0.5684 0.5842
vt 0.5760 0.5884
vt 0.5608 0.5883
vt 0.5608 0.5965
vt 0.5684 0.6007
vt 0.5760 0.5966
vt 0.3946 0.2586
vt 0.3824 0.2700
vt 0.4145 0.8654
vt 0.3944 0.7360
vt 0.4283 0.8684
vt 0.3713 0.7309
vt 0.4065 0.6281
vt 0.3834 0.7314
vt 0.5077 0.5842
vt 0.4920 0.7164
vt 0.4793 0.7172
vt 0.3960 0.8703
vt 0.3412 0.5430
vt 0.3510 0.6575
vt 0.3367 0.6582
vt 0.5456 0.8581
vt 0.5288 0.7118
vt 0.5417 0.7078
vt 0.5530 0.7090
vt 0.5608 0.8595
vt 0.5334 0.6159
vt 0.5364 0.5845
vt 0.5401 0.6165
vt 0.3549 0.7635
vt 0.3469 0.7650
vt 0.5265 0.6190
vt 0.4132 0.6312
vt 0.5106 0.8151
vt 0.5039 0.8163
vt 0.3684 0.5430
vt 0.3689 0.5487
vt 0.3657 0.5447
vt 0.4255 0.5848
vt 0.4283 0.5861
vt 0.5231 0.8586
vt 0.4005 0.6268
vt 0.3581 0.8114
vt 0.4991 0.8205
vt 0.5211 0.8604
vt 0.8452 0.9019
vt 0.8049 0.8196
vt 0.8661 0.8821
vt 0.7144 0.2369
vt 0.6994 0.6667
vt 0.7277 0.8032
vt 0.7213 0.8090
vt 0.7641 0.5690
vt 0.7178 0.6713
vt 0.8891 0.5665
vt 0.8666 0.6513
vt 0.8696 0.5569
vt 0.7426 0.5569
vt 0.6856 0.6585
vt 0.9106 0.5630
vt 0.8805 0.6526
vt 0.2093 0.2189
vt 0.2174 0.2057
vt 0.0684 0.1155
vt 0.0000 0.0015
vt 0.0023 0.0000
vt 0.8724 0.8007
vt 0.8661 0.8020
vt 0.7142 0.8105
vt 0.8769 0.8032
vt 0.7873 0.8282
vt 0.8065 0.6879
vt 0.3710 0.5507
vt 0.3657 0.5525
vt 0.3660 0.5496
vt 0.8605 0.5569
vt 0.8630 0.5577
vt 0.7873 0.8843
vt 0.7847 0.8867
vt 0.9080 0.9201
vt 0.7818 0.8873
vt 0.8661 0.5589
vt 0.8140 0.6909
vt 0.7708 0.2292
vt 0.9074 0.1546
vt 0.3935 0.3200
vt 0.3514 0.4473
vt 0.7252 0.2211
vt 0.0845 0.9181
vt 0.3895 0.2848
vt 0.4142 0.2626
vt 0.4277 0.1082
vt 0.3459 0.0198
vt 0.4283 0.8380
vt 0.9348 0.4972
vt 0.6774 0.0000
vt 0.4484 0.5842
vt 0.5259 0.5876
vt 0.3614 0.5456
vt 0.5259 0.8595
vt 0.5336 0.5842
vt 0.3658 0.5477
vt 0.3713 0.5444
vt 0.3713 0.5476
vt 0.5259 0.8581
vt 0.4230 0.5842
vt 0.3614 0.8108
vt 0.7873 0.5832
vt 0.8957 0.6492
vt 0.0629 0.1192
vt 0.8003 0.6860
vt 0.3688 0.5487
vt 0.3710 0.5537
vt 0.3684 0.5543
vt 0.9106 0.9196
vn 0.0000 -1.0000 0.0000
vn 0.5053 0.1044 0.8566
vn 0.4464 0.4505 -0.7731
vn 0.4917 0.1074 -0.8641
vn 0.9005 0.4349 0.0000
vn -0.5025 0.0213 -0.8643
vn 0.4464 0.4505 0.7731
vn 0.9887 0.1501 -0.0000
vn -0.4414 0.4696 0.7646
vn -0.9998 -0.0194 -0.0000
vn -0.8825 0.4703 0.0000
vn -0.5025 0.0210 0.8643
vn -0.4414 0.4696 -0.7646
vn 0.9924 0.1231 -0.0000
vn 0.5910 0.0756 0.8031
vn -0.4821 0.1763 0.8582
vn -0.9725 0.2328 0.0000
vn -0.4781 0.1762 -0.8604
vn 0.5054 0.1419 -0.8512
vn -0.3230 0.4131 -0.8515
vn 0.4126 -0.2833 -0.8658
vn 0.7760 -0.6307 -0.0000
vn 0.4443 -0.3363 0.8304
vn -0.3179 0.4048 0.8574
vn -0.6651 0.7468 0.0000
vn -0.0109 -0.5104 -0.8598
vn -0.0743 -0.9972 0.0000
vn -0.0094 -0.5320 0.8467
vn 0.0987 0.5554 0.8257
vn 0.1371 0.9906 0.0000
vn 0.1033 0.4897 -0.8658
vn 0.2428 0.5163 -0.8213
vn -0.1376 -0.5149 -0.8461
vn -0.2934 -0.9560 0.0000
vn -0.1376 -0.4808 0.8660
vn 0.2433 0.4492 0.8596
vn 0.4346 0.9006 0.0000
vn -0.0097 0.5031 -0.8642
vn 0.1396 -0.4835 -0.8642
vn 0.2143 -0.9768 -0.0000
vn 0.1396 -0.4835 0.8642
vn -0.0097 0.5031 0.8642
vn -0.0843 0.9964 0.0000
vn 0.9887 0.1496 0.0000
vn 0.9887 0.1497 0.0000
vn -0.4809 0.1738 -0.8594
vn 0.4726 0.8727 -0.1231
vn 0.7737 -0.1301 -0.6201
vn -0.8559 0.1738 0.4870
vn 0.8556 -0.0373 -0.5163
vn -0.2165 0.9341 0.2840
vn -0.4843 -0.8727 0.0623
vn 0.2285 -0.9107 -0.3441
vn -0.2682 -0.6780 -0.6844
vn 0.0571 0.8395 0.5403
vn -0.7287 -0.6769 -0.1036
vn -0.0822 -0.8021 -0.5915
vn 0.7096 0.7038 0.0350
vn -0.7694 0.2391 0.5923
vn -0.3277 0.6829 -0.6529
vn 0.8289 0.5567 0.0541
vn -0.7849 0.2756 0.5549
vn 0.7065 -0.1986 -0.6793
vn 0.1007 0.7659 0.6350
vn -0.8105 -0.5284 -0.2528
vn -0.2651 0.8632 -0.4296
vn -0.4999 0.0207 0.8658
vn -0.4999 0.0216 0.8658
vn 0.4608 -0.7936 0.3973
vn 0.1218 -0.8674 0.4825
vn 0.8384 0.1086 0.5341
vn -0.5048 -0.8537 0.1279
vn 0.5344 0.8439 0.0474
vn -0.9009 0.0221 -0.4335
vn -0.8240 0.2165 0.5236
vn 0.9446 0.2058 -0.2555
vn -0.6161 -0.6159 0.4910
vn 0.4297 0.7674 -0.4758
vn -0.9612 0.2692 0.0606
vn -0.2358 0.8846 -0.4024
vn 0.4760 0.7157 0.5110
vn -0.5833 0.7080 -0.3981
vn 0.5472 -0.6791 0.4893
vn 0.8313 -0.1229 -0.5420
vn -0.0562 -0.5313 0.8453
vn 0.2294 0.4856 -0.8436
vn 0.4921 0.1039 0.8643
vn 0.5027 0.1088 0.8576
vn 0.4264 0.4273 -0.7973
vn 0.5053 0.1044 -0.8566
vn -0.4999 0.0207 -0.8658
vn 0.4264 0.4273 0.7973
vn -0.4768 0.4426 0.7595
vn -0.5011 0.0215 0.8651
vn -0.4768 0.4426 -0.7595
vn 0.5054 0.1419 0.8512
vn -0.4775 0.1730 0.8614
vn -0.4825 0.1740 -0.8584
vn -0.4757 0.1764 -0.8618
vn -0.4756 0.1764 -0.8618
vn 0.5910 0.0756 -0.8031
vn -0.3179 0.4048 -0.8574
vn 0.4443 -0.3363 -0.8304
vn 0.4126 -0.2833 0.8658
vn -0.3230 0.4131 0.8515
vn -0.0094 -0.5320 -0.8467
vn -0.0109 -0.5104 0.8598
vn 0.1033 0.4897 0.8658
vn 0.0987 0.5554 -0.8257
vn 0.2433 0.4492 -0.8596
vn -0.1376 -0.4808 -0.8660
vn -0.1376 -0.5149 0.8461
vn 0.2428 0.5163 0.8213
vn 0.5396 0.8219 -0.1824
vn 0.7166 -0.2176 -0.6627
vn -0.8930 0.0039 0.4500
vn 0.8191 -0.1867 -0.5425
vn -0.3695 0.8684 0.3308
vn -0.3985 -0.9171 -0.0105
vn 0.0858 -0.9543 -0.2863
vn -0.0701 0.8130 0.5780
vn -0.6639 -0.7227 -0.1921
vn -0.1983 -0.8166 -0.5421
vn 0.7591 0.6491 -0.0489
vn -0.8311 0.1388 0.5386
vn -0.3291 0.6826 -0.6525
vn -0.3232 0.6818 -0.6562
vn -0.3241 0.6833 -0.6542
vn -0.7850 0.2756 0.5549
vn -0.2292 0.8758 -0.4247
vn 0.1072 -0.8449 0.5240
vn 0.1276 -0.8658 0.4839
vn 0.8385 0.1205 0.5315
vn -0.4578 -0.8761 0.1510
vn 0.5737 0.8162 0.0683
vn -0.9050 -0.0324 -0.4242
vn -0.8240 0.2164 0.5236
vn 0.9855 -0.1699 -0.0002
vn -0.2581 -0.7953 0.5485
vn 0.7313 0.5712 -0.3727
vn -0.9564 -0.0894 0.2782
vn -0.4911 0.8165 -0.3035
vn 0.4747 0.7165 0.5111
vn 0.4757 0.7158 0.5112
vn -0.5833 0.7080 -0.3982
vn 0.2294 0.4855 -0.8436
s off
f 1/1/1 3/2/1 5/3/1
f 17/4/2 18/5/2 76/6/2
f 4/7/3 5/8/3 3/9/3
f 1/1/1 5/3/1 7/10/1
f 4/7/4 16/11/4 6/12/4
f 5/13/5 8/14/5 7/15/5
f 1/1/1 7/10/1 9/16/1
f 14/17/6 15/18/6 4/7/6
f 7/19/7 10/20/7 9/21/7
f 1/1/1 9/16/1 11/22/1
f 6/23/8 17/24/8 8/14/8
f 9/21/9 12/25/9 11/26/9
f 1/1/1 11/22/1 13/27/1
f 79/28/10 78/29/10 20/30/10
f 12/31/11 13/32/11 11/33/11
f 1/1/1 13/27/1 3/2/1
f 10/20/12 80/34/12 12/25/12
f 14/17/13 3/9/13 13/35/13
f 16/36/14 23/37/14 17/24/14
f 18/5/15 23/38/15 24/39/15
f 77/40/16 24/39/16 19/41/16
f 19/42/17 26/43/17 20/30/17
f 15/18/18 51/44/18 56/45/18
f 15/18/19 22/46/19 16/11/19
f 26/47/20 27/48/20 21/49/20
f 21/49/21 28/50/21 22/46/21
f 23/37/22 28/51/22 29/52/22
f 24/39/23 29/53/23 30/54/23
f 25/55/24 30/54/24 31/56/24
f 25/57/25 32/58/25 26/43/25
f 28/59/26 33/60/26 34/61/26
f 28/59/27 35/62/27 29/63/27
f 29/63/28 36/64/28 30/65/28
f 30/54/29 37/66/29 31/56/29
f 31/56/30 38/67/30 32/68/30
f 27/48/31 38/69/31 33/70/31
f 33/70/32 44/71/32 39/72/32
f 34/73/33 39/72/33 40/74/33
f 35/62/34 40/75/34 41/76/34
f 35/62/35 42/77/35 36/64/35
f 36/78/36 43/79/36 37/66/36
f 37/66/37 44/80/37 38/67/37
f 44/71/38 45/81/38 39/72/38
f 40/74/39 45/81/39 46/82/39
f 40/75/40 47/83/40 41/76/40
f 41/76/41 48/84/41 42/77/41
f 43/79/42 48/85/42 49/86/42
f 43/79/43 50/87/43 44/80/43
f 2/88/44 46/89/44 45/90/44
f 2/88/44 47/91/44 46/89/44
f 2/88/45 48/92/45 47/91/45
f 2/88/44 49/93/44 48/92/44
f 2/88/45 50/94/45 49/93/45
f 2/88/44 45/90/44 50/94/44
f 54/95/46 53/96/46 26/47/46
f 55/97/47 60/98/47 54/99/47
f 62/100/48 67/101/48 61/102/48
f 52/103/49 59/104/49 58/105/49
f 56/106/50 61/102/50 55/97/50
f 53/107/51 60/108/51 59/109/51
f 51/110/52 58/111/52 57/112/52
f 51/110/53 62/113/53 56/114/53
f 63/115/54 74/116/54 68/117/54
f 59/109/55 66/118/55 65/119/55
f 57/112/56 64/120/56 63/115/56
f 57/112/57 68/117/57 62/113/57
f 61/102/58 66/121/58 60/98/58
f 58/105/59 65/122/59 64/123/59
f 72/124/60 69/125/60 71/126/60
f 66/121/61 73/127/61 72/128/61
f 65/122/62 70/129/62 64/123/62
f 68/130/63 73/127/63 67/101/63
f 66/118/64 71/131/64 65/119/64
f 63/132/65 70/129/65 69/133/65
f 78/134/66 83/135/66 77/136/66
f 78/137/67 77/40/67 19/41/67
f 76/6/68 18/5/68 77/40/68
f 86/138/69 87/139/69 92/140/69
f 80/141/70 81/142/70 86/138/70
f 76/143/71 81/144/71 75/145/71
f 79/146/72 86/138/72 85/147/72
f 77/148/73 82/149/73 76/143/73
f 78/29/74 85/150/74 84/151/74
f 90/152/75 97/153/75 96/154/75
f 81/144/76 88/155/76 87/156/76
f 86/138/77 91/157/77 85/147/77
f 82/149/78 89/158/78 88/155/78
f 85/150/79 90/152/79 84/151/79
f 84/159/80 89/160/80 83/135/80
f 98/161/81 95/162/81 96/163/81
f 89/160/82 96/164/82 95/165/82
f 92/140/83 93/166/83 98/167/83
f 88/155/84 93/168/84 87/156/84
f 92/140/85 97/169/85 91/157/85
f 89/160/86 94/170/86 88/171/86
f 75/172/87 10/20/87 8/173/87
f 8/173/88 17/4/88 75/172/88
f 76/6/2 75/172/2 17/4/2
f 4/7/89 6/12/89 5/8/89
f 4/7/90 15/18/90 16/11/90
f 5/13/5 6/23/5 8/14/5
f 14/17/91 20/174/91 15/18/91
f 7/19/92 8/173/92 10/20/92
f 6/23/8 16/36/8 17/24/8
f 9/21/93 10/20/93 12/25/93
f 20/30/10 14/175/10 79/28/10
f 12/31/10 79/28/10 14/175/10
f 78/29/10 19/42/10 20/30/10
f 12/31/11 14/175/11 13/32/11
f 79/176/67 12/25/67 80/34/67
f 10/20/94 75/172/94 80/34/94
f 14/17/95 4/7/95 3/9/95
f 16/36/14 22/177/14 23/37/14
f 18/5/96 17/4/96 23/38/96
f 25/55/97 19/41/97 24/39/97
f 77/40/16 18/5/16 24/39/16
f 19/42/17 25/57/17 26/43/17
f 20/174/98 53/96/98 52/178/98
f 20/174/98 52/178/98 51/44/98
f 55/179/99 21/49/99 15/18/99
f 20/174/98 51/44/98 15/18/98
f 56/45/100 55/179/100 15/18/100
f 15/18/101 21/49/101 22/46/101
f 26/47/102 32/180/102 27/48/102
f 21/49/103 27/48/103 28/50/103
f 23/37/22 22/177/22 28/51/22
f 24/39/104 23/38/104 29/53/104
f 25/55/105 24/39/105 30/54/105
f 25/57/25 31/181/25 32/58/25
f 28/59/106 27/182/106 33/60/106
f 28/59/27 34/61/27 35/62/27
f 29/63/107 35/62/107 36/64/107
f 30/54/108 36/78/108 37/66/108
f 31/56/30 37/66/30 38/67/30
f 27/48/109 32/180/109 38/69/109
f 33/70/110 38/69/110 44/71/110
f 34/73/111 33/70/111 39/72/111
f 35/62/34 34/61/34 40/75/34
f 35/62/112 41/76/112 42/77/112
f 36/78/113 42/183/113 43/79/113
f 37/66/37 43/79/37 44/80/37
f 44/71/38 50/184/38 45/81/38
f 40/74/39 39/72/39 45/81/39
f 40/75/40 46/185/40 47/83/40
f 41/76/41 47/83/41 48/84/41
f 43/79/42 42/183/42 48/85/42
f 43/79/43 49/86/43 50/87/43
f 26/47/99 21/49/99 54/95/99
f 21/49/99 55/179/99 54/95/99
f 53/96/98 20/174/98 26/47/98
f 55/97/114 61/102/114 60/98/114
f 62/100/115 68/130/115 67/101/115
f 52/103/116 53/186/116 59/104/116
f 56/106/117 62/100/117 61/102/117
f 53/107/118 54/187/118 60/108/118
f 51/110/119 52/188/119 58/111/119
f 51/110/120 57/112/120 62/113/120
f 63/115/54 69/189/54 74/116/54
f 59/109/121 60/108/121 66/118/121
f 57/112/122 58/111/122 64/120/122
f 57/112/123 63/115/123 68/117/123
f 61/102/124 67/101/124 66/121/124
f 58/105/125 59/104/125 65/122/125
f 70/190/126 71/126/126 69/125/126
f 72/124/127 73/191/127 69/125/127
f 74/192/128 69/125/128 73/191/128
f 66/121/61 67/101/61 73/127/61
f 65/122/129 71/193/129 70/129/129
f 68/130/63 74/194/63 73/127/63
f 66/118/64 72/195/64 71/131/64
f 63/132/65 64/123/65 70/129/65
f 78/134/130 84/159/130 83/135/130
f 86/138/131 81/142/131 87/139/131
f 80/141/132 75/196/132 81/142/132
f 76/143/133 82/149/133 81/144/133
f 79/146/134 80/141/134 86/138/134
f 77/148/135 83/197/135 82/149/135
f 78/29/136 79/28/136 85/150/136
f 90/152/137 91/198/137 97/153/137
f 81/144/138 82/149/138 88/155/138
f 86/138/139 92/140/139 91/157/139
f 82/149/140 83/197/140 89/158/140
f 85/150/141 91/198/141 90/152/141
f 84/159/142 90/199/142 89/160/142
f 96/163/81 97/200/81 98/161/81
f 98/161/143 93/201/143 94/202/143
f 94/202/144 95/162/144 98/161/144
f 89/160/145 90/199/145 96/164/145
f 92/140/83 87/139/83 93/166/83
f 88/155/84 94/203/84 93/168/84
f 92/140/85 98/167/85 97/169/85
f 89/160/146 95/165/146 94/170/146
