# Blender v2.77 (sub 0) OBJ File: 'treeCherrySmall.blend'
# www.blender.org
o Cube.002_Cube.003
v 0.358716 0.891347 -0.003072
v 0.725343 0.949190 0.161207
v 0.226192 0.999969 0.367156
v -0.434034 0.585550 0.103775
v -0.047408 0.908190 -0.356294
v 0.463209 0.925031 -0.391246
v 0.363290 1.256440 0.364099
v -0.236603 1.220836 0.225517
v -0.324785 1.018608 -0.205860
v 0.141379 1.268650 -0.360254
v 0.553749 1.206641 -0.100499
v 0.029277 1.418980 0.000252
v 0.271073 0.915123 0.221073
v 0.599597 0.842631 0.049725
v 0.553667 0.979644 0.349009
v 0.653263 0.884554 -0.168520
v 0.476740 0.857943 -0.241645
v -0.034023 0.837435 0.009579
v -0.133926 0.842912 0.233190
v 0.132499 0.932480 -0.203763
v -0.293949 0.703698 -0.145060
v 0.245538 0.997356 -0.358089
v 0.731426 1.070320 0.040667
v 0.555358 1.043591 -0.301156
v 0.338206 1.122661 0.428737
v 0.606129 1.121983 0.346315
v -0.431456 0.723193 0.199588
v -0.060122 1.091050 0.346294
v -0.242676 0.931072 -0.336300
v -0.505517 0.718319 -0.029513
v 0.312296 1.101280 -0.393537
v 0.035062 1.142995 -0.422071
v 0.539747 1.288603 0.213303
v 0.054924 1.266113 0.345774
v -0.377172 1.049494 0.019775
v -0.103373 1.274651 -0.343588
v 0.364251 1.273222 -0.242883
v 0.179401 1.374822 0.213796
v 0.327641 1.383535 0.000521
v -0.138044 1.364178 0.132044
v -0.177460 1.362415 -0.131561
v 0.087026 1.380267 -0.212382
v -0.046606 -0.058870 0.046606
v -0.069287 0.345306 0.075629
v -0.046606 -0.058870 -0.046606
v -0.069287 0.345306 0.012756
v 0.046606 -0.058870 0.046606
v -0.006415 0.345306 0.075629
v 0.046606 -0.058870 -0.046606
v -0.006415 0.345306 0.012756
v -0.018311 0.740070 0.113758
v -0.018311 0.740070 0.077062
v 0.018385 0.740070 0.077062
v 0.018385 0.740070 0.113758
v 0.071974 0.983017 0.012812
v 0.071974 0.983017 -0.012812
v 0.097598 0.983017 -0.012812
v 0.097598 0.983017 0.012812
v 0.015833 0.699453 0.070446
v 0.015799 0.698910 0.109783
v -0.018674 0.737262 0.076605
v -0.018389 0.739471 0.077298
v 0.232382 0.811013 0.084949
v 0.232382 0.811013 0.103212
v 0.249880 0.800285 0.101233
v 0.249650 0.800427 0.081656
v 0.389804 0.909924 0.090949
v 0.389804 0.909924 0.095188
v 0.393866 0.907434 0.094728
v 0.393812 0.907467 0.090184
vt 0.1597 0.3756
vt 0.1334 0.4722
vt 0.0669 0.3316
vt 0.0780 0.5320
vt 0.2216 0.5076
vt 0.1677 0.2016
vt 0.2482 0.2902
vt 0.2583 0.4322
vt 0.8484 0.2471
vt 0.8241 0.1013
vt 0.8996 0.1943
vt 0.5326 0.3502
vt 0.5863 0.4803
vt 0.5039 0.4182
vt 0.5863 0.0025
vt 0.5352 0.1717
vt 0.5380 0.0296
vt 0.7419 0.2675
vt 0.7877 0.4101
vt 0.7011 0.3434
vt 0.8193 0.0566
vt 0.7562 0.1336
vt 0.7257 0.0875
vt 0.9249 0.3287
vt 0.4546 0.2461
vt 0.0583 0.8998
vt 0.0177 0.8407
vt 0.1161 0.8484
vt 0.6622 0.1915
vt 0.7921 0.0025
vt 0.6371 0.7494
vt 0.5793 0.8322
vt 0.5680 0.6739
vt 0.3711 0.1881
vt 0.4020 0.3204
vt 0.3231 0.2462
vt 0.1868 0.7014
vt 0.0924 0.6941
vt 0.1521 0.5399
vt 0.3240 0.6766
vt 0.3231 0.5684
vt 0.3850 0.6478
vt 0.4470 0.8489
vt 0.3809 0.7705
vt 0.4828 0.7464
vt 0.4731 0.6153
vt 0.4105 0.5288
vt 0.2404 0.5699
vt 0.5231 0.5371
vt 0.0398 0.5369
vt 0.0024 0.6083
vt 0.6193 0.6145
vt 0.8946 0.0428
vt 0.9976 0.0683
vt 0.9632 0.1316
vt 0.6734 0.0428
vt 0.6336 0.1294
vt 0.5910 0.2280
vt 0.2404 0.7309
vt 0.4508 0.4461
vt 0.6371 0.8565
vt 0.9976 0.2701
vt 0.7510 0.4976
vt 0.8193 0.4963
vt 0.5374 0.5238
vt 0.8664 0.3293
vt 0.8477 0.0025
vt 0.3069 0.3508
vt 0.3183 0.4386
vt 0.3183 0.2166
vt 0.2461 0.0833
vt 0.1510 0.0025
vt 0.0762 0.1506
vt 0.0027 0.3148
vt 0.0024 0.4540
vt 0.2825 0.8248
vt 0.2615 0.9964
vt 0.2559 0.8240
vt 0.8516 0.8157
vt 0.8935 0.9850
vt 0.8265 0.8250
vt 0.9745 0.7101
vt 0.9354 0.5347
vt 0.9745 0.5288
vt 0.7369 0.8171
vt 0.7073 0.9920
vt 0.6700 0.9800
vt 0.3615 0.9024
vt 0.3231 0.8623
vt 0.3615 0.8614
vt 0.2451 0.6487
vt 0.2605 0.6494
vt 0.2608 0.6504
vt 0.8656 0.4455
vt 0.8800 0.3387
vt 0.8800 0.4518
vt 0.7620 0.8252
vt 0.7673 0.6660
vt 0.7856 0.6531
vt 0.8097 0.6696
vt 0.9481 0.7141
vt 0.9715 0.8672
vt 0.9550 0.8694
vt 0.3165 0.5369
vt 0.3056 0.5482
vt 0.3056 0.5369
vt 0.2606 0.6492
vt 0.2901 0.5369
vt 0.3009 0.5372
vt 0.7709 0.6484
vt 0.7856 0.5371
vt 0.8049 0.6529
vt 0.7917 0.5400
vt 0.8019 0.5362
vt 0.8885 0.5941
vt 0.9287 0.5288
vt 0.9306 0.5292
vt 0.7906 0.6595
vt 0.8406 0.5173
vt 0.8302 0.4068
vt 0.8385 0.4067
vt 0.6944 0.5908
vt 0.8609 0.5002
vt 0.8496 0.4056
vt 0.8574 0.4056
vt 0.8801 0.5924
vt 0.8529 0.3342
vt 0.8545 0.3360
vt 0.8527 0.3360
vt 0.8365 0.3343
vt 0.8384 0.3342
vt 0.6863 0.5930
vt 0.6437 0.5288
vt 0.3009 0.9975
vt 0.9306 0.9712
vt 0.3231 0.9032
vt 0.8700 0.3342
vt 0.3165 0.5482
vt 0.7753 0.5338
vt 0.7903 0.6583
vt 0.8241 0.5173
vt 0.8454 0.5002
vt 0.8548 0.3343
vt 0.6419 0.5293
vn -0.2033 -0.9788 0.0243
vn 0.6412 -0.7673 0.0103
vn 0.1393 -0.9775 0.1582
vn 0.1183 -0.9381 -0.3256
vn -0.2079 -0.9776 0.0340
vn 0.9619 -0.2155 -0.1680
vn 0.0203 -0.4633 0.8860
vn 0.1367 -0.5677 0.8118
vn -0.1513 -0.6161 -0.7730
vn -0.2099 -0.1922 -0.9587
vn 0.9046 0.2770 0.3240
vn -0.1683 -0.3151 0.9340
vn -0.9320 -0.1952 0.3054
vn -0.1254 -0.2265 -0.9659
vn 0.4031 0.3341 -0.8520
vn 0.2103 0.8765 0.4330
vn -0.3691 0.6723 0.6417
vn -0.8661 0.4272 -0.2596
vn -0.0219 0.7941 -0.6074
vn 0.5049 0.8122 -0.2922
vn 0.1168 0.9822 -0.1471
vn 0.3024 0.8845 -0.3554
vn 0.2572 0.8144 -0.5202
vn -0.1301 0.9686 -0.2117
vn -0.1914 0.8814 -0.4317
vn -0.7806 0.4321 -0.4516
vn -0.2852 0.9578 0.0362
vn -0.8104 0.5740 0.1173
vn -0.8047 0.5909 0.0577
vn -0.1015 0.9577 0.2694
vn -0.1644 0.8318 0.5301
vn -0.0129 0.7778 0.6284
vn 0.1170 0.9857 0.1216
vn 0.2284 0.9533 0.1977
vn 0.5519 0.8125 -0.1876
vn 0.5973 0.6247 -0.5029
vn 0.4083 0.5287 -0.7442
vn 0.3834 0.5404 -0.7490
vn -0.0483 0.4735 -0.8795
vn -0.3864 0.1373 -0.9120
vn -0.7180 0.2776 -0.6383
vn -0.8872 0.3823 -0.2583
vn -0.9069 0.3088 0.2866
vn -0.8846 0.3292 0.3303
vn -0.4026 0.2672 0.8755
vn -0.2114 0.1418 0.9671
vn -0.0395 0.4407 0.8968
vn 0.4128 0.6630 0.6245
vn 0.8165 0.5221 0.2465
vn 0.6769 0.7190 -0.1576
vn 0.1461 0.3344 -0.9310
vn 0.0441 -0.3478 -0.9365
vn 0.0843 -0.2961 -0.9514
vn -0.7963 0.1326 -0.5902
vn -0.4370 -0.5192 -0.7345
vn -0.3559 -0.7506 -0.5567
vn -0.4842 0.1446 0.8629
vn 0.0720 -0.4313 0.8993
vn -0.1819 -0.3625 0.9140
vn 0.2733 0.3765 0.8852
vn 0.2926 -0.0898 0.9520
vn 0.6958 -0.2437 0.6756
vn 0.7386 0.5261 -0.4216
vn 0.8737 0.1526 -0.4620
vn 0.7503 -0.0849 -0.6556
vn -0.3431 -0.8683 -0.3583
vn -0.2351 -0.8225 -0.5179
vn 0.2850 -0.9402 -0.1865
vn 0.4065 -0.8461 -0.3447
vn 0.4698 -0.8824 -0.0265
vn 0.5090 -0.8526 -0.1183
vn 0.5578 -0.7854 0.2684
vn 0.1776 -0.9787 0.1033
vn 0.1640 -0.8303 0.5326
vn 0.3006 -0.8598 -0.4128
vn 0.2027 -0.9697 -0.1364
vn -0.2055 -0.9780 0.0353
vn -0.0264 -0.8679 0.4960
vn 0.0179 -0.9081 0.4185
vn 0.3263 -0.8395 0.4344
vn -0.9984 -0.0560 0.0000
vn 0.0000 0.1453 -0.9894
vn 0.9915 0.1301 0.0000
vn 0.0000 -0.0716 0.9974
vn 0.0000 -1.0000 0.0000
vn -0.9918 0.1281 0.0000
vn 0.9507 -0.3100 0.0000
vn -0.0000 -0.0961 0.9954
vn 0.0000 0.1608 -0.9870
vn 0.9980 -0.0627 -0.0000
vn 0.0000 1.0000 0.0000
vn -0.9374 0.3483 0.0000
vn 0.0000 0.3837 0.9235
vn 0.0000 -0.3470 -0.9379
vn -0.0762 0.1807 -0.9806
vn 0.3970 -0.9177 -0.0113
vn 0.0823 -0.1009 0.9915
vn -0.3147 0.9492 0.0000
vn -0.0494 0.2224 -0.9737
vn 0.5227 0.8525 0.0000
vn -0.5320 0.8467 0.0000
vn 0.5966 -0.8025 -0.0128
vn 0.0820 -0.0498 0.9954
vn 0.3969 -0.9178 -0.0123
vn 0.0679 -0.0728 0.9950
vn -0.0173 0.1618 -0.9867
s off
f 1/1/1 14/2/1 13/3/1
f 2/4/2 14/2/2 16/5/2
f 1/1/3 13/3/3 18/6/3
f 1/1/4 18/6/4 20/7/4
f 1/1/5 20/7/5 17/8/5
f 2/9/6 16/10/6 23/11/6
f 3/12/7 15/13/7 25/14/7
f 4/15/8 19/16/8 27/17/8
f 5/18/9 21/19/9 29/20/9
f 6/21/10 22/22/10 31/23/10
f 2/9/11 23/11/11 26/24/11
f 3/12/12 25/14/12 28/25/12
f 4/26/13 27/27/13 30/28/13
f 5/18/14 29/20/14 32/29/14
f 6/21/15 31/23/15 24/30/15
f 7/31/16 33/32/16 38/33/16
f 8/34/17 34/35/17 40/36/17
f 9/37/18 35/38/18 41/39/18
f 10/40/19 36/41/19 42/42/19
f 11/43/20 37/44/20 39/45/20
f 39/45/21 42/42/21 12/46/21
f 39/45/22 37/44/22 42/42/22
f 37/44/23 10/40/23 42/42/23
f 42/42/24 41/47/24 12/46/24
f 42/42/25 36/41/25 41/47/25
f 36/48/26 9/37/26 41/39/26
f 41/47/27 40/49/27 12/46/27
f 41/39/28 35/38/28 40/50/28
f 35/38/29 8/51/29 40/50/29
f 40/49/30 38/33/30 12/46/30
f 40/49/31 34/52/31 38/33/31
f 34/52/32 7/31/32 38/33/32
f 38/33/33 39/45/33 12/46/33
f 38/33/34 33/32/34 39/45/34
f 33/32/35 11/43/35 39/45/35
f 24/53/36 37/54/36 11/55/36
f 24/30/37 31/23/37 37/56/37
f 31/23/38 10/57/38 37/56/38
f 32/29/39 36/58/39 10/57/39
f 32/29/40 29/20/40 36/58/40
f 29/59/41 9/37/41 36/48/41
f 30/28/42 35/38/42 9/37/42
f 30/28/43 27/27/43 35/38/43
f 27/27/44 8/51/44 35/38/44
f 28/25/45 34/35/45 8/34/45
f 28/25/46 25/14/46 34/35/46
f 25/14/47 7/60/47 34/35/47
f 26/61/48 33/32/48 7/31/48
f 26/24/49 23/11/49 33/62/49
f 23/11/50 11/55/50 33/62/50
f 31/23/51 32/29/51 10/57/51
f 31/23/52 22/22/52 32/29/52
f 22/22/53 5/18/53 32/29/53
f 29/59/54 30/28/54 9/37/54
f 29/20/55 21/19/55 30/63/55
f 21/19/56 4/64/56 30/63/56
f 27/17/57 28/25/57 8/34/57
f 27/17/58 19/16/58 28/25/58
f 19/16/59 3/12/59 28/25/59
f 25/14/60 26/65/60 7/60/60
f 25/14/61 15/13/61 26/65/61
f 15/66/62 2/9/62 26/24/62
f 23/11/63 24/53/63 11/55/63
f 23/11/64 16/10/64 24/53/64
f 16/10/65 6/67/65 24/53/65
f 17/8/66 22/68/66 6/69/66
f 17/8/67 20/7/67 22/68/67
f 20/7/68 5/70/68 22/68/68
f 20/7/69 21/71/69 5/70/69
f 20/7/70 18/6/70 21/71/70
f 18/6/71 4/72/71 21/71/71
f 18/6/72 19/73/72 4/72/72
f 18/6/73 13/3/73 19/73/73
f 13/3/74 3/74/74 19/73/74
f 16/5/75 17/8/75 6/69/75
f 16/5/76 14/2/76 17/8/76
f 14/2/77 1/1/77 17/8/77
f 13/3/78 15/75/78 3/74/78
f 13/3/79 14/2/79 15/75/79
f 14/2/80 2/4/80 15/75/80
f 46/76/81 43/77/81 44/78/81
f 50/79/82 45/80/82 46/81/82
f 50/82/83 47/83/83 49/84/83
f 48/85/84 43/86/84 47/87/84
f 45/88/85 47/89/85 43/90/85
f 51/91/86 62/92/86 61/93/86
f 53/94/87 58/95/87 54/96/87
f 44/97/88 60/98/88 51/99/88
f 46/81/89 59/100/89 50/79/89
f 48/101/90 59/102/90 60/103/90
f 57/104/91 55/105/91 58/106/91
f 52/107/92 55/108/92 56/109/92
f 54/110/93 55/111/93 51/99/93
f 53/112/94 56/113/94 57/114/94
f 66/115/95 67/116/95 70/117/95
f 51/99/88 60/98/88 54/110/88
f 61/118/89 53/112/89 59/100/89
f 62/92/86 52/107/86 61/93/86
f 60/119/96 66/120/96 65/121/96
f 60/98/97 64/122/97 54/110/97
f 53/123/98 64/124/98 63/125/98
f 59/100/99 63/126/99 66/115/99
f 69/127/100 67/128/100 68/129/100
f 63/125/101 68/129/101 67/128/101
f 65/121/102 70/130/102 69/131/102
f 65/132/103 68/133/103 64/122/103
f 46/76/81 45/134/81 43/77/81
f 50/79/82 49/135/82 45/80/82
f 50/82/83 48/101/83 47/83/83
f 48/85/84 44/97/84 43/86/84
f 45/88/85 49/136/85 47/89/85
f 61/93/86 46/76/86 44/78/86
f 44/78/86 51/91/86 61/93/86
f 53/94/87 57/137/87 58/95/87
f 44/97/88 48/85/88 60/98/88
f 46/81/89 61/118/89 59/100/89
f 48/101/90 50/82/90 59/102/90
f 57/104/91 56/138/91 55/105/91
f 52/107/92 51/91/92 55/108/92
f 54/110/93 58/139/93 55/111/93
f 53/112/94 52/140/94 56/113/94
f 66/115/95 63/126/95 67/116/95
f 61/118/89 52/140/89 53/112/89
f 62/92/86 51/91/86 52/107/86
f 60/119/104 59/141/104 66/120/104
f 60/98/105 65/132/105 64/122/105
f 53/123/98 54/142/98 64/124/98
f 59/100/106 53/112/106 63/126/106
f 69/127/100 70/143/100 67/128/100
f 63/125/101 64/124/101 68/129/101
f 65/121/102 66/120/102 70/130/102
f 65/132/103 69/144/103 68/133/103
