# Blender v2.77 (sub 0) OBJ File: 'RedGem.blend'
# www.blender.org
o Icosphere.001
v 0.000000 -0.065699 0.000000
v 0.337485 -0.020030 0.245194
v -0.128905 -0.020030 0.396736
v -0.417157 -0.020030 0.000000
v -0.128905 -0.020030 -0.396736
v 0.337485 -0.020030 -0.245194
v 0.128905 0.397130 0.396736
v -0.337485 0.397130 0.245194
v -0.337485 0.397130 -0.245194
v 0.128905 0.397130 -0.396736
v 0.417157 0.397130 0.000000
v 0.000000 0.654947 0.000000
v 0.456319 -0.166748 0.676775
v 0.055067 -0.166748 0.699770
v 0.276871 0.192149 0.807152
v -0.124381 0.192149 0.676775
v 0.524864 0.192149 0.465826
v 0.584674 -0.127189 0.205154
v 0.182758 -0.127189 0.233095
v 0.243097 -0.127189 -0.008482
v 0.491494 -0.127189 -0.025748
v 0.173681 0.084623 0.102505
v 0.364488 0.084623 -0.057469
v 0.575598 0.084623 0.074564
v 0.379178 0.215530 0.105560
v 0.119327 0.219299 0.624301
v 0.149550 0.254901 0.571189
v 0.010212 0.227081 0.575091
v 0.047867 0.205504 0.625468
v 0.106949 0.276509 0.519151
v 0.040127 0.263913 0.519704
v 0.201371 0.704445 0.221439
v 0.246651 0.711972 0.142354
v 0.331413 0.665374 0.129466
v 0.368703 0.607165 0.207773
v 0.327686 0.597696 0.285314
v 0.240215 0.647977 0.293728
v 0.312059 0.758594 0.255018
v 0.326859 0.761055 0.229169
v 0.354563 0.745824 0.224957
v 0.366751 0.726798 0.250551
v 0.353345 0.723703 0.275896
v 0.324755 0.740138 0.278646
v -0.066171 0.625625 -0.395810
v -0.162865 0.618795 -0.373793
v -0.206585 0.668611 -0.291021
v -0.141040 0.726496 -0.232647
v -0.043118 0.733152 -0.255304
v -0.005286 0.685929 -0.332592
v -0.103644 0.720870 -0.396326
v -0.144621 0.717976 -0.386996
v -0.163149 0.739087 -0.351919
v -0.135372 0.763617 -0.327181
v -0.093875 0.766438 -0.336783
v -0.077843 0.746426 -0.369536
v 0.115442 0.492659 0.141513
v 0.237470 0.421716 0.131547
v 0.143769 0.451479 0.194230
v 0.207558 0.414811 0.188094
v 0.210276 0.464166 0.074441
v 0.148463 0.498148 0.083840
v -0.062800 0.737534 0.252837
v -0.000291 0.697264 0.328574
v -0.037707 0.639304 0.396192
v -0.141000 0.606621 0.407613
v -0.215273 0.650803 0.322669
v -0.166007 0.712700 0.253483
v -0.105215 0.749235 0.346388
v -0.086939 0.737461 0.368532
v -0.097878 0.720515 0.388301
v -0.128078 0.710959 0.391641
v -0.149794 0.723877 0.366805
v -0.135390 0.741974 0.346577
v 0.086791 0.448991 0.595422
v 0.142374 0.420798 0.663317
v 0.102941 0.374348 0.732613
v 0.009707 0.356349 0.734135
v -0.039422 0.384501 0.668408
v -0.000392 0.432557 0.596143
v 0.051854 0.454207 0.670710
v 0.065400 0.447337 0.687256
v 0.055790 0.436017 0.704143
v 0.033069 0.431631 0.704514
v 0.021097 0.438492 0.688497
v 0.030608 0.450203 0.670886
v 0.022914 0.466967 -0.168031
v -0.004526 0.501218 -0.111972
v -0.075552 0.496391 -0.095539
v -0.123093 0.454406 -0.137879
v -0.091382 0.418272 -0.197915
v -0.021247 0.423226 -0.213885
v -0.143857 0.455186 0.176821
v -0.107392 0.501000 0.125612
v -0.012429 0.446675 0.231239
v -0.088883 0.422485 0.239693
v -0.031002 0.519381 0.125133
v 0.015265 0.489575 0.181191
vt 0.5807 0.6196
vt 0.7499 0.4926
vt 0.7499 0.7447
vt 0.5120 0.4153
vt 0.5120 0.8233
vt 0.3650 0.6196
vt 0.7176 0.0024
vt 0.7562 0.2060
vt 0.5385 0.0796
vt 0.3173 0.3582
vt 0.3117 0.4469
vt 0.0961 0.4041
vt 0.3602 0.1099
vt 0.1261 0.1959
vt 0.3782 0.7414
vt 0.7172 0.4105
vt 0.5383 0.3318
vt 0.4758 0.0024
vt 0.1656 0.0024
vt 0.4754 0.4105
vt 0.0024 0.1842
vt 0.3650 0.2060
vt 0.9245 0.4153
vt 0.9245 0.6225
vt 0.9173 0.5019
vt 0.0024 0.8129
vt 0.1962 0.8120
vt 0.1058 0.9976
vt 0.3602 0.5490
vt 0.3467 0.6677
vt 0.1613 0.6309
vt 0.1871 0.4518
vt 0.2626 0.9661
vt 0.2626 0.7581
vt 0.0475 0.6725
vt 0.9125 0.6270
vt 0.8003 0.5733
vt 0.9098 0.5156
vt 0.8634 0.8435
vt 0.9345 0.8113
vt 0.9345 0.9321
vt 0.7547 0.5151
vt 0.8123 0.4465
vt 0.9292 0.9291
vt 0.8360 0.4214
vt 0.9125 0.4153
vt 0.7968 0.2497
vt 0.7941 0.2029
vt 0.8058 0.2001
vt 0.8961 0.1799
vt 0.9008 0.0799
vt 0.9239 0.1863
vt 0.7974 0.3729
vt 0.7610 0.2581
vt 0.9506 0.0674
vt 0.9602 0.1772
vt 0.8455 0.3790
vt 0.8473 0.2499
vt 0.8627 0.2581
vt 0.8342 0.3730
vt 0.4036 0.8281
vt 0.3650 0.8984
vt 0.3705 0.8281
vt 0.9177 0.0110
vt 0.9014 0.0151
vt 0.9074 0.0024
vt 0.8273 0.2029
vt 0.8223 0.2002
vt 0.9208 0.0051
vt 0.9602 0.0492
vt 0.8890 0.0122
vt 0.8579 0.1605
vt 0.8207 0.1828
vt 0.8508 0.1396
vt 0.7927 0.0078
vt 0.7997 0.1257
vt 0.7610 0.1332
vt 0.8156 0.8066
vt 0.7740 0.6671
vt 0.8273 0.6664
vt 0.7687 0.9290
vt 0.8057 0.8200
vt 0.8057 0.9290
vt 0.8579 0.0125
vt 0.8208 0.0024
vt 0.7769 0.8071
vt 0.7547 0.6783
vt 0.8586 0.6783
vt 0.8383 0.8152
vt 0.8237 0.1916
vt 0.7856 0.1890
vt 0.7991 0.1768
vt 0.7940 0.6320
vt 0.8166 0.6318
vt 0.8298 0.6368
vt 0.7826 0.1800
vt 0.9210 0.6318
vt 0.8634 0.7547
vt 0.9009 0.6448
vt 0.8675 0.2388
vt 0.9135 0.2001
vt 0.8960 0.2263
vt 0.8225 0.9189
vt 0.8567 0.8200
vt 0.8567 0.8991
vt 0.9411 0.3561
vt 0.9505 0.2270
vt 0.9008 0.3556
vt 0.9658 0.6427
vt 0.8907 0.7370
vt 0.9732 0.2388
vt 0.9579 0.3648
vt 0.9229 0.8023
vt 0.8990 0.8030
vt 0.8930 0.7948
vt 0.9512 0.7518
vt 0.9010 0.7896
vt 0.9295 0.2003
vt 0.9361 0.2038
vt 0.9658 0.7804
vt 0.9187 0.7940
vt 0.3602 0.8318
vt 0.3199 0.8065
vt 0.3248 0.8083
vt 0.2981 0.9220
vt 0.2674 0.8318
vt 0.2927 0.8248
vt 0.3567 0.6819
vt 0.2942 0.7529
vt 0.3238 0.6725
vt 0.3344 0.9217
vt 0.3498 0.9273
vt 0.2674 0.7624
vt 0.3033 0.6798
vt 0.4597 0.8879
vt 0.4151 0.8281
vt 0.4597 0.8513
vt 0.3401 0.8245
vt 0.3165 0.7994
vt 0.2993 0.7983
vt 0.2948 0.7931
vt 0.3013 0.7908
vt 0.3567 0.7882
vt 0.3118 0.7938
vt 0.3371 0.7652
vt 0.3084 0.8066
vt 0.8627 0.0711
vt 0.7713 0.3790
vt 0.4103 0.8984
vt 0.8916 0.0061
vt 0.7547 0.8200
vt 0.7629 0.8152
vt 0.8064 0.1953
vt 0.7858 0.6368
vt 0.9052 0.2038
vt 0.8105 0.8468
vt 0.8797 0.3648
vt 0.9145 0.8065
vt 0.2787 0.9273
vt 0.4151 0.8759
vt 0.3104 0.8017
vt 0.3022 0.8083
vn 0.0414 -0.9910 0.1275
vn 0.1341 -0.9910 0.0000
vn -0.1085 -0.9910 0.0788
vn -0.1085 -0.9910 -0.0788
vn 0.0414 -0.9910 -0.1275
vn 0.9822 -0.1876 0.0000
vn 0.3035 -0.1876 0.9342
vn -0.7946 -0.1876 0.5774
vn -0.7946 -0.1876 -0.5774
vn 0.3035 -0.1876 -0.9342
vn 0.7946 0.1876 0.5774
vn -0.3035 0.1876 0.9342
vn -0.9822 0.1876 0.0000
vn -0.3035 0.1876 -0.9342
vn 0.7946 0.1876 -0.5774
vn -0.6071 0.7947 0.0000
vn 0.4911 0.7947 -0.3568
vn 0.4420 0.4844 0.7550
vn 0.8512 0.4182 -0.3171
vn 0.0543 -0.3169 0.9469
vn -0.8549 -0.4068 0.3220
vn -0.3077 -0.0932 0.9469
vn 0.3995 0.8696 0.2903
vn -0.7940 0.4907 -0.3590
vn 0.9109 -0.1876 -0.3676
vn -0.9530 -0.1876 -0.2380
vn -0.0681 -0.1876 -0.9799
vn -0.6311 0.1876 -0.7527
vn 0.5208 0.1876 -0.8328
vn 0.9651 -0.0315 0.2600
vn -0.4483 0.7163 -0.5347
vn 0.3756 0.7058 -0.6006
vn 0.4740 0.8701 -0.1352
vn 0.1235 0.0489 0.9911
vn -0.0012 0.2645 -0.9644
vn -0.1382 -0.3926 0.9093
vn 0.7574 -0.2970 -0.5815
vn -0.7842 0.4707 -0.4042
vn -0.8276 0.1297 0.5461
vn 0.7155 -0.6302 0.3015
vn 0.4911 0.7947 0.3568
vn 0.9300 0.1371 -0.3410
vn -0.3997 0.9055 -0.1427
vn -0.4770 0.5498 0.6857
vn 0.8817 -0.1460 0.4486
vn 0.2840 0.6983 -0.6571
vn -0.2151 -0.0899 -0.9725
vn 0.9147 0.3113 0.2575
vn -0.7375 0.1782 0.6514
vn -0.1173 -0.6782 -0.7255
vn 0.8111 -0.2811 -0.5130
vn 0.1552 0.5379 0.8286
vn -0.8671 -0.4652 -0.1780
vn -0.1876 0.7947 -0.5774
vn 0.5850 0.2259 -0.7789
vn 0.0216 0.9301 0.3665
vn -0.8572 0.0902 -0.5070
vn 0.6709 0.7320 -0.1189
vn -0.7441 0.6358 0.2051
vn -0.8457 0.0841 -0.5270
vn -0.2294 0.9476 -0.2225
vn 0.2740 -0.6045 0.7480
vn 0.8019 0.3846 -0.4573
vn -0.1228 0.4880 -0.8642
vn -0.7495 -0.5492 0.3697
vn 0.9181 -0.1814 0.3525
vn -0.1876 0.7947 0.5774
vn -0.6870 0.1923 0.7007
vn 0.5398 0.4679 0.6998
vn -0.7571 0.6518 0.0440
vn 0.0639 0.1433 0.9876
vn 0.4548 0.8855 0.0955
vn 0.4201 0.6250 0.6580
vn -0.0820 0.3950 -0.9150
vn -0.7895 -0.4775 0.3856
vn 0.9019 -0.1793 0.3931
vn -0.8807 0.0031 -0.4736
vn 0.1214 -0.5598 0.8197
vn 0.7938 0.3212 -0.5165
vn -0.1580 0.8594 0.4862
vn -0.6820 0.7227 0.1122
vn -0.0585 0.3812 0.9226
vn 0.3516 0.9309 0.0987
vn -0.1843 0.9709 -0.1528
vn -0.6143 0.4466 0.6505
vn 0.4911 0.7946 0.3568
vn -0.1876 0.7946 -0.5774
vn 0.0216 0.9302 0.3665
vn -0.1876 0.7946 0.5774
s off
f 1/1/1 2/2/1 3/3/1
f 2/2/2 1/1/2 6/4/2
f 1/1/3 3/3/3 4/5/3
f 1/1/4 4/5/4 5/6/4
f 1/1/5 5/6/5 6/4/5
f 2/7/6 6/8/6 11/9/6
f 3/10/7 2/11/7 7/12/7
f 4/13/8 3/10/8 8/14/8
f 5/6/9 4/5/9 9/15/9
f 6/8/10 5/16/10 10/17/10
f 2/7/11 11/9/11 7/18/11
f 3/10/12 7/12/12 8/14/12
f 4/13/13 8/14/13 9/19/13
f 5/16/14 9/20/14 10/17/14
f 6/8/15 10/17/15 11/9/15
f 9/19/16 8/14/16 12/21/16
f 11/9/17 10/17/17 12/22/17
f 25/23/18 18/24/18 24/25/18
f 25/26/19 17/27/19 18/28/19
f 14/29/20 13/30/20 15/31/20
f 3/10/21 14/29/21 16/32/21
f 13/33/11 17/27/11 15/34/11
f 14/29/22 15/31/22 16/32/22
f 15/34/23 17/27/23 7/35/23
f 3/10/24 16/32/24 7/12/24
f 18/36/25 21/37/25 24/38/25
f 20/39/26 19/40/26 22/41/26
f 21/37/27 20/42/27 23/43/27
f 20/39/28 22/41/28 23/44/28
f 21/37/29 23/43/29 24/38/29
f 18/28/30 17/27/30 13/33/30
f 23/43/31 22/45/31 25/46/31
f 24/38/32 23/43/32 25/46/32
f 25/26/33 7/35/33 17/27/33
f 37/47/34 42/48/34 43/49/34
f 61/50/35 34/51/35 60/52/35
f 58/53/36 36/54/36 37/47/36
f 60/52/37 35/55/37 57/56/37
f 61/57/38 32/58/38 33/59/38
f 56/60/39 37/47/39 32/58/39
f 57/61/40 36/62/40 59/63/40
f 41/64/41 40/65/41 43/66/41
f 34/51/42 41/64/42 35/55/42
f 32/58/43 39/67/43 33/59/43
f 37/47/44 38/68/44 32/58/44
f 35/55/45 42/69/45 36/70/45
f 34/51/46 39/71/46 40/65/46
f 45/72/47 50/73/47 44/74/47
f 87/75/48 49/76/48 48/77/48
f 89/78/49 47/79/49 46/80/49
f 90/81/50 44/82/50 91/83/50
f 91/84/51 49/76/51 86/85/51
f 88/86/52 48/87/52 47/79/52
f 89/78/53 45/88/53 90/89/53
f 51/90/54 53/91/54 55/92/54
f 49/76/55 50/73/55 55/92/55
f 48/87/56 53/93/56 47/79/56
f 45/88/57 52/94/57 51/95/57
f 49/76/58 54/96/58 48/77/58
f 47/79/59 52/94/59 46/80/59
f 92/97/60 67/98/60 93/99/60
f 67/100/61 68/101/61 62/102/61
f 94/103/62 65/104/62 95/105/62
f 97/106/63 62/102/63 63/107/63
f 96/108/64 67/100/64 62/102/64
f 95/109/65 66/110/65 92/97/65
f 97/106/66 64/111/66 94/112/66
f 70/113/67 68/114/67 73/115/67
f 65/116/68 72/117/68 66/110/68
f 64/111/69 69/118/69 70/119/69
f 67/98/70 72/117/70 73/115/70
f 64/120/71 71/121/71 65/116/71
f 62/102/72 69/118/72 63/107/72
f 76/122/73 81/123/73 82/124/73
f 30/125/74 79/126/74 74/127/74
f 29/128/75 78/129/75 28/130/75
f 27/131/76 76/122/76 26/132/76
f 28/130/77 79/133/77 31/134/77
f 26/135/78 77/136/78 29/137/78
f 27/131/79 74/127/79 75/138/79
f 82/139/80 80/140/80 85/141/80
f 79/133/81 84/142/81 85/141/81
f 76/143/82 83/144/82 77/145/82
f 74/127/83 81/123/83 75/138/83
f 79/126/84 80/146/84 74/127/84
f 78/129/85 83/144/85 84/142/85
f 9/20/54 12/22/54 10/17/54
f 15/31/80 7/12/80 16/32/80
f 7/18/41 11/9/41 12/22/41
f 7/12/67 12/21/67 8/14/67
f 37/47/34 36/54/34 42/48/34
f 61/50/35 33/147/35 34/51/35
f 58/53/36 59/148/36 36/54/36
f 60/52/37 34/51/37 35/55/37
f 61/57/38 56/60/38 32/58/38
f 56/60/39 58/53/39 37/47/39
f 57/61/40 35/149/40 36/62/40
f 38/150/86 43/66/86 39/71/86
f 42/69/41 41/64/41 43/66/41
f 40/65/41 39/71/41 43/66/41
f 34/51/42 40/65/42 41/64/42
f 32/58/43 38/68/43 39/67/43
f 37/47/44 43/49/44 38/68/44
f 35/55/45 41/64/45 42/69/45
f 34/51/46 33/147/46 39/71/46
f 45/72/47 51/90/47 50/73/47
f 87/75/48 86/85/48 49/76/48
f 89/78/49 88/86/49 47/79/49
f 90/81/50 45/151/50 44/82/50
f 91/84/51 44/74/51 49/76/51
f 88/86/52 87/152/52 48/87/52
f 89/78/53 46/80/53 45/88/53
f 54/96/87 55/92/87 53/91/87
f 50/73/54 51/90/54 55/92/54
f 52/153/54 53/91/54 51/90/54
f 49/76/55 44/74/55 50/73/55
f 48/87/88 54/154/88 53/93/88
f 45/88/57 46/80/57 52/94/57
f 49/76/58 55/92/58 54/96/58
f 47/79/59 53/93/59 52/94/59
f 92/97/60 66/110/60 67/98/60
f 67/100/61 73/155/61 68/101/61
f 94/103/62 64/156/62 65/104/62
f 97/106/63 96/108/63 62/102/63
f 96/108/64 93/157/64 67/100/64
f 95/109/65 65/116/65 66/110/65
f 97/106/66 63/107/66 64/111/66
f 73/115/67 72/117/67 71/121/67
f 71/121/67 70/113/67 73/115/67
f 69/158/89 68/114/89 70/113/89
f 65/116/68 71/121/68 72/117/68
f 64/111/69 63/107/69 69/118/69
f 67/98/70 66/110/70 72/117/70
f 64/120/71 70/113/71 71/121/71
f 62/102/72 68/101/72 69/118/72
f 76/122/73 75/138/73 81/123/73
f 30/125/74 31/159/74 79/126/74
f 29/128/75 77/145/75 78/129/75
f 27/131/76 75/138/76 76/122/76
f 28/130/77 78/129/77 79/133/77
f 26/135/78 76/160/78 77/136/78
f 27/131/79 30/125/79 74/127/79
f 85/141/80 84/142/80 82/139/80
f 83/144/80 82/139/80 84/142/80
f 81/161/80 80/140/80 82/139/80
f 79/133/81 78/129/81 84/142/81
f 76/143/82 82/139/82 83/144/82
f 74/127/83 80/146/83 81/123/83
f 79/126/84 85/162/84 80/146/84
f 78/129/85 77/145/85 83/144/85
