# Blender v2.77 (sub 0) OBJ File: 'grassTuft1.blend'
# www.blender.org
o Plane_Plane.001
v -0.005760 -0.047329 0.078918
v 0.044512 -0.047329 0.090009
v 0.010997 -0.047329 0.117119
v 0.015739 -0.047329 0.096444
v 0.015582 0.212401 0.079948
v 0.051492 0.212401 0.071917
v 0.009664 0.212401 0.105753
v -0.011251 0.212401 0.058075
v 0.016001 0.459706 0.151488
v 0.032876 0.463493 0.149116
v 0.013220 0.447536 0.159110
v 0.003391 0.470021 0.145028
v 0.016254 0.536457 0.224569
v 0.021626 0.537663 0.223814
v 0.015368 0.532583 0.226996
v 0.012240 0.539741 0.222513
v 0.006949 -0.047329 0.016669
v -0.034642 -0.047329 0.047007
v -0.032777 -0.047329 0.003941
v -0.020419 -0.047329 0.021181
v -0.007951 0.212401 0.031983
v -0.025702 0.212401 0.064216
v -0.023374 0.212401 0.010466
v 0.026206 0.212401 0.026351
v -0.067300 0.413550 -0.013685
v -0.076693 0.417338 0.000534
v -0.071172 0.401381 -0.020815
v -0.054110 0.423866 -0.018859
v -0.122244 0.490302 -0.061873
v -0.125234 0.491507 -0.057346
v -0.123477 0.486428 -0.064142
v -0.118046 0.493585 -0.063520
v 0.070517 -0.050167 0.058452
v 0.045537 -0.050167 0.013438
v 0.088045 -0.050167 0.020598
v 0.069412 -0.050167 0.030736
v 0.057156 0.209563 0.041778
v 0.027357 0.209563 0.020189
v 0.080411 0.209563 0.029124
v 0.058535 0.209563 0.076369
v 0.123392 0.349328 -0.061852
v 0.111879 0.354218 -0.074029
v 0.128514 0.335681 -0.063049
v 0.128323 0.360297 -0.049103
v 0.193866 0.408104 -0.114866
v 0.190201 0.409660 -0.118742
v 0.195497 0.403759 -0.115247
v 0.195436 0.411595 -0.110807
v 0.042874 -0.015746 0.062094
v 0.009660 -0.017597 0.053892
v 0.031198 -0.022913 0.030335
v 0.028446 -0.018964 0.047833
v 0.028838 0.152827 0.033744
v 0.005392 0.154534 0.041306
v 0.032273 0.147899 0.011904
v 0.046845 0.156844 0.051543
v 0.027310 0.299839 -0.053052
v 0.016268 0.302835 -0.051086
v 0.029003 0.290476 -0.058216
v 0.035705 0.307701 -0.049010
v 0.025864 0.335806 -0.122786
v 0.022349 0.336760 -0.122160
v 0.026403 0.332826 -0.124430
v 0.028537 0.338309 -0.121500
v 0.007381 -0.015746 0.058912
v 0.035874 -0.017597 0.039976
v 0.038679 -0.022913 0.071772
v 0.027643 -0.018964 0.057916
v 0.037762 0.152827 0.067728
v 0.048035 0.154534 0.045337
v 0.051537 0.147899 0.085021
v 0.012474 0.156844 0.068970
v 0.102765 0.299839 0.125265
v 0.108779 0.302835 0.115797
v 0.105427 0.290476 0.130003
v 0.094113 0.307701 0.128720
v 0.155138 0.335806 0.171330
v 0.157053 0.336760 0.168316
v 0.155986 0.332826 0.172838
v 0.152384 0.338309 0.172430
v 0.020138 -0.015746 0.027653
v 0.027012 -0.017597 0.061166
v -0.003517 -0.022913 0.051848
v 0.013465 -0.018964 0.046810
v 0.000576 0.152827 0.052514
v 0.017483 0.154534 0.070431
v -0.020620 0.147899 0.058801
v 0.008904 0.156844 0.028604
v -0.073948 0.273447 0.124842
v -0.068201 0.277350 0.134143
v -0.075875 0.262803 0.124381
v -0.077127 0.281917 0.116671
v -0.142481 0.282285 0.162041
v -0.140651 0.283528 0.165002
v -0.143094 0.278897 0.161894
v -0.143492 0.284982 0.159440
vt 0.1627 0.0759
vt 0.1405 0.0695
vt 0.1542 0.0002
vt 0.1175 0.0684
vt 0.0475 0.2146
vt 0.0595 0.5284
vt 0.0212 0.5389
vt 0.1761 0.2344
vt 0.1142 0.5596
vt 0.0924 0.5561
vt 0.1140 0.2362
vt 0.0002 0.2027
vt 0.2189 0.2397
vt 0.1096 0.2354
vt 0.0424 0.6215
vt 0.0355 0.6205
vt 0.0368 0.6570
vt 0.0511 0.6233
vt 0.0620 0.5289
vt 0.0002 0.5394
vt 0.3972 0.0794
vt 0.3746 0.0715
vt 0.3927 0.0002
vt 0.3505 0.0690
vt 0.2681 0.2170
vt 0.2761 0.4829
vt 0.2395 0.4908
vt 0.4022 0.2457
vt 0.3247 0.5161
vt 0.3053 0.5105
vt 0.3363 0.2431
vt 0.2193 0.2025
vt 0.4481 0.2579
vt 0.3321 0.2421
vt 0.2547 0.5693
vt 0.2483 0.5680
vt 0.2474 0.6016
vt 0.2625 0.5714
vt 0.2784 0.4834
vt 0.2193 0.4905
vt 0.6197 0.0725
vt 0.5991 0.0651
vt 0.6161 0.0002
vt 0.5765 0.0624
vt 0.4948 0.2039
vt 0.5102 0.4490
vt 0.4715 0.4608
vt 0.6638 0.2317
vt 0.5475 0.4746
vt 0.6240 0.2146
vt 0.5628 0.2293
vt 0.4484 0.1881
vt 0.5588 0.2285
vt 0.4908 0.5458
vt 0.4834 0.5444
vt 0.4833 0.5821
vt 0.4995 0.5479
vt 0.5127 0.4495
vt 0.4484 0.4584
vt 0.7434 0.0056
vt 0.7374 0.0025
vt 0.7382 0.0002
vt 0.7327 0.0037
vt 0.6886 0.1302
vt 0.7124 0.3518
vt 0.6823 0.3554
vt 0.7708 0.1343
vt 0.7615 0.3653
vt 0.7433 0.3624
vt 0.7279 0.1394
vt 0.6641 0.1274
vt 0.7950 0.1365
vt 0.7286 0.1394
vt 0.6978 0.5014
vt 0.7023 0.5046
vt 0.7128 0.3519
vt 0.6641 0.3570
vt 0.6999 0.5040
vt 0.7000 0.5018
vt 0.8746 0.0056
vt 0.8686 0.0025
vt 0.8694 0.0002
vt 0.8639 0.0037
vt 0.8198 0.1302
vt 0.8435 0.3518
vt 0.8135 0.3554
vt 0.9020 0.1343
vt 0.8927 0.3652
vt 0.8745 0.3624
vt 0.8591 0.1394
vt 0.7953 0.1273
vt 0.9262 0.1365
vt 0.8598 0.1394
vt 0.8290 0.5014
vt 0.8335 0.5045
vt 0.8440 0.3518
vt 0.7953 0.3570
vt 0.8311 0.5039
vt 0.8312 0.5017
vt 0.8710 0.5102
vt 0.8651 0.5069
vt 0.8657 0.5049
vt 0.8603 0.5086
vt 0.8205 0.6393
vt 0.8428 0.8400
vt 0.8133 0.8482
vt 0.9233 0.6407
vt 0.8746 0.8507
vt 0.9018 0.6356
vt 0.8612 0.6462
vt 0.7953 0.6342
vt 0.8617 0.6465
vt 0.8334 0.9964
vt 0.8935 0.8535
vt 0.8378 0.9998
vt 0.8436 0.8400
vt 0.7953 0.8480
vt 0.8354 0.9991
vt 0.8355 0.9968
vt 0.5691 0.4826
vn 0.0000 1.0000 -0.0000
vn -0.5696 0.2027 -0.7966
vn -0.5858 -0.2291 0.7774
vn 0.9157 -0.0129 -0.4017
vn 0.2179 0.0620 0.9740
vn -0.6311 0.0488 0.7742
vn -0.6285 -0.0372 -0.7769
vn -0.6728 0.4719 -0.5698
vn -0.6828 -0.5026 0.5302
vn 0.9130 0.0771 -0.4005
vn 0.2100 -0.2720 0.9391
vn -0.0000 -0.5308 -0.8475
vn 0.9285 0.2171 -0.3014
vn 0.2486 -0.6684 0.7011
vn 0.9646 0.2577 0.0569
vn -0.1648 -0.2657 -0.9499
vn -0.3051 -0.0129 0.9522
vn -0.8743 0.0620 -0.4815
vn -0.1625 0.0488 -0.9855
vn 0.9984 -0.0372 0.0432
vn 0.8725 0.4719 -0.1271
vn 0.0546 -0.5026 -0.8628
vn -0.3041 0.0802 0.9492
vn -0.8221 -0.3453 -0.4527
vn 0.6352 -0.5308 0.5610
vn -0.3887 0.2171 0.8954
vn -0.6900 -0.6684 -0.2778
vn 0.0337 0.5316 0.8463
vn 0.8952 -0.4442 -0.0357
vn -0.9074 -0.0129 -0.4201
vn 0.5856 0.0620 -0.8082
vn 0.9980 0.0488 -0.0398
vn -0.1660 -0.0372 0.9854
vn 0.0766 0.5581 0.8262
vn 0.7271 -0.6337 0.2640
vn -0.9465 0.1535 -0.2839
vn 0.4408 -0.6600 -0.6084
vn -0.7484 -0.3313 0.5745
vn -0.7615 0.3150 -0.5664
vn 0.2473 -0.7955 -0.5532
vn 0.0000 0.9755 -0.2201
vn 0.6907 0.3452 0.6354
vn 0.6651 -0.3796 -0.6431
vn -0.9408 0.0422 0.3363
vn -0.3111 -0.0770 -0.9472
vn 0.7084 -0.0593 -0.7033
vn 0.7439 0.0671 0.6650
vn 0.7460 0.5739 0.3378
vn 0.7250 -0.6059 -0.3275
vn -0.9396 0.1335 0.3153
vn -0.2800 -0.4902 -0.8254
vn 0.0263 -0.4791 0.8774
vn -0.9443 0.2591 0.2028
vn -0.3069 -0.8484 -0.4312
vn 0.1622 0.9755 0.1488
vn -0.9351 0.3452 0.0796
vn 0.0245 -0.3796 0.9248
vn 0.3880 0.0422 -0.9207
vn 0.9084 -0.0770 0.4109
vn 0.0396 -0.0593 0.9975
vn -0.9928 0.0671 0.0988
vn -0.7532 0.5739 0.3215
vn -0.2486 -0.6059 0.7557
vn 0.4027 0.1335 -0.9056
vn 0.7976 -0.4902 0.3515
vn -0.6644 -0.4791 -0.5736
vn 0.4888 0.2591 -0.8330
vn 0.5253 -0.8484 0.0652
vn -0.1988 0.9755 0.0946
vn 0.1057 0.5150 -0.8506
vn -0.8675 -0.3434 -0.3598
vn 0.7081 0.0422 0.7048
vn -0.7215 -0.0770 0.6881
vn -0.9396 -0.0593 -0.3372
vn 0.2806 0.0671 -0.9575
vn -0.2588 0.6287 -0.7334
vn -0.4049 -0.7090 -0.5774
vn 0.7212 -0.0476 0.6910
vn -0.5194 -0.6521 0.5523
vn 0.8673 -0.1363 -0.4787
vn 0.8673 -0.1363 -0.4788
vn 0.5190 0.3488 0.7804
vn 0.0691 -0.9344 0.3494
vn -0.6183 0.1828 -0.7644
vn -0.6167 -0.2178 0.7565
vn 0.8852 0.1028 -0.4536
vn 0.1941 -0.2751 0.9416
vn 0.9670 0.2515 0.0419
vn -0.1570 -0.2625 -0.9521
vn -0.2539 0.1090 0.9611
vn -0.8228 -0.3451 -0.4516
vn -0.1307 0.6170 0.7760
vn 0.9069 -0.4212 0.0116
vn -0.9052 0.0702 -0.4191
vn 0.4018 -0.6530 -0.6420
vn 0.7351 0.3127 0.6015
vn 0.6952 -0.3601 -0.6221
vn -0.9198 0.1684 0.3545
vn -0.2998 -0.4885 -0.8194
vn -0.9402 0.3127 0.1352
vn -0.0114 -0.3601 0.9329
vn -0.7532 0.5739 0.3216
vn 0.3603 0.1684 -0.9175
vn 0.8066 -0.4885 0.3328
vn 0.1564 0.5452 -0.8236
vn -0.8772 -0.4604 -0.1360
vn 0.8448 0.2468 0.4747
vn -0.4969 -0.6468 0.5785
s off
f 1/1/1 3/2/1 4/3/1
f 4/3/1 3/2/1 2/4/1
f 6/5/2 11/6/2 10/7/2
f 8/8/3 9/9/3 12/10/3
f 1/1/4 7/11/4 3/2/4
f 2/4/5 5/12/5 4/3/5
f 1/1/6 5/13/6 8/8/6
f 2/4/7 7/14/7 6/5/7
f 10/7/8 15/15/8 14/16/8
f 12/10/9 13/17/9 16/18/9
f 8/8/10 11/19/10 7/11/10
f 6/5/11 9/20/11 5/12/11
f 16/18/12 13/17/12 15/15/12
f 13/17/12 14/16/12 15/15/12
f 12/10/13 15/15/13 11/19/13
f 10/7/14 13/17/14 9/20/14
f 17/21/1 19/22/1 20/23/1
f 20/23/1 19/22/1 18/24/1
f 22/25/15 27/26/15 26/27/15
f 24/28/16 25/29/16 28/30/16
f 17/21/17 23/31/17 19/22/17
f 18/24/18 21/32/18 20/23/18
f 17/21/19 21/33/19 24/28/19
f 18/24/20 23/34/20 22/25/20
f 26/27/21 31/35/21 30/36/21
f 28/30/22 29/37/22 32/38/22
f 24/28/23 27/39/23 23/31/23
f 22/25/24 25/40/24 21/32/24
f 32/38/25 29/37/25 31/35/25
f 29/37/25 30/36/25 31/35/25
f 28/30/26 31/35/26 27/39/26
f 26/27/27 29/37/27 25/40/27
f 33/41/1 35/42/1 36/43/1
f 36/43/1 35/42/1 34/44/1
f 38/45/28 43/46/28 42/47/28
f 37/48/29 44/49/29 40/50/29
f 33/41/30 39/51/30 35/42/30
f 34/44/31 37/52/31 36/43/31
f 33/41/32 37/48/32 40/50/32
f 34/44/33 39/53/33 38/45/33
f 42/47/34 47/54/34 46/55/34
f 44/49/35 45/56/35 48/57/35
f 39/51/36 44/49/36 43/58/36
f 38/45/37 41/59/37 37/52/37
f 48/57/38 45/56/38 47/54/38
f 45/56/38 46/55/38 47/54/38
f 44/49/39 47/54/39 43/58/39
f 42/47/40 45/56/40 41/59/40
f 49/60/41 51/61/41 52/62/41
f 52/62/41 51/61/41 50/63/41
f 54/64/42 59/65/42 58/66/42
f 56/67/43 57/68/43 60/69/43
f 49/60/44 55/70/44 51/61/44
f 50/63/45 53/71/45 52/62/45
f 49/60/46 53/72/46 56/67/46
f 50/63/47 55/73/47 54/64/47
f 59/65/48 62/74/48 58/66/48
f 57/68/49 64/75/49 60/69/49
f 56/67/50 59/76/50 55/70/50
f 53/71/51 58/66/51 57/77/51
f 64/75/52 61/78/52 63/79/52
f 61/78/52 62/74/52 63/79/52
f 59/76/53 64/75/53 63/79/53
f 57/77/54 62/74/54 61/78/54
f 65/80/55 67/81/55 68/82/55
f 68/82/55 67/81/55 66/83/55
f 70/84/56 75/85/56 74/86/56
f 72/87/57 73/88/57 76/89/57
f 65/80/58 71/90/58 67/81/58
f 66/83/59 69/91/59 68/82/59
f 65/80/60 69/92/60 72/87/60
f 66/83/61 71/93/61 70/84/61
f 75/85/62 78/94/62 74/86/62
f 73/88/63 80/95/63 76/89/63
f 72/87/64 75/96/64 71/90/64
f 69/91/65 74/86/65 73/97/65
f 80/95/66 77/98/66 79/99/66
f 77/98/66 78/94/66 79/99/66
f 75/96/67 80/95/67 79/99/67
f 73/97/68 78/94/68 77/98/68
f 81/100/69 83/101/69 84/102/69
f 84/102/69 83/101/69 82/103/69
f 86/104/70 91/105/70 90/106/70
f 85/107/71 92/108/71 88/109/71
f 81/100/72 87/110/72 83/101/72
f 82/103/73 85/111/73 84/102/73
f 81/100/74 85/107/74 88/109/74
f 82/103/75 87/112/75 86/104/75
f 91/105/76 94/113/76 90/106/76
f 89/114/77 96/115/77 92/108/77
f 88/109/78 91/116/78 87/110/78
f 86/104/79 89/117/79 85/111/79
f 96/115/80 93/118/80 95/119/80
f 93/118/81 94/113/81 95/119/81
f 91/116/82 96/115/82 95/119/82
f 89/117/83 94/113/83 93/118/83
f 6/5/84 7/14/84 11/6/84
f 8/8/85 5/13/85 9/9/85
f 1/1/4 8/8/4 7/11/4
f 2/4/5 6/5/5 5/12/5
f 1/1/6 4/3/6 5/13/6
f 2/4/7 3/2/7 7/14/7
f 10/7/8 11/6/8 15/15/8
f 12/10/9 9/9/9 13/17/9
f 8/8/86 12/10/86 11/19/86
f 6/5/87 10/7/87 9/20/87
f 12/10/13 16/18/13 15/15/13
f 10/7/14 14/16/14 13/17/14
f 22/25/88 23/34/88 27/26/88
f 24/28/89 21/33/89 25/29/89
f 17/21/17 24/28/17 23/31/17
f 18/24/18 22/25/18 21/32/18
f 17/21/19 20/23/19 21/33/19
f 18/24/20 19/22/20 23/34/20
f 26/27/21 27/26/21 31/35/21
f 28/30/22 25/29/22 29/37/22
f 24/28/90 28/30/90 27/39/90
f 22/25/91 26/27/91 25/40/91
f 28/30/26 32/38/26 31/35/26
f 26/27/27 30/36/27 29/37/27
f 38/45/92 39/53/92 43/46/92
f 37/48/93 41/120/93 44/49/93
f 33/41/30 40/50/30 39/51/30
f 34/44/31 38/45/31 37/52/31
f 33/41/32 36/43/32 37/48/32
f 34/44/33 35/42/33 39/53/33
f 42/47/34 43/46/34 47/54/34
f 44/49/35 41/120/35 45/56/35
f 39/51/94 40/50/94 44/49/94
f 38/45/95 42/47/95 41/59/95
f 44/49/39 48/57/39 47/54/39
f 42/47/40 46/55/40 45/56/40
f 54/64/96 55/73/96 59/65/96
f 56/67/97 53/72/97 57/68/97
f 49/60/44 56/67/44 55/70/44
f 50/63/45 54/64/45 53/71/45
f 49/60/46 52/62/46 53/72/46
f 50/63/47 51/61/47 55/73/47
f 59/65/48 63/79/48 62/74/48
f 57/68/49 61/78/49 64/75/49
f 56/67/98 60/69/98 59/76/98
f 53/71/99 54/64/99 58/66/99
f 59/76/53 60/69/53 64/75/53
f 57/77/54 58/66/54 62/74/54
f 70/84/100 71/93/100 75/85/100
f 72/87/101 69/92/101 73/88/101
f 65/80/58 72/87/58 71/90/58
f 66/83/59 70/84/59 69/91/59
f 65/80/60 68/82/60 69/92/60
f 66/83/61 67/81/61 71/93/61
f 75/85/102 79/99/102 78/94/102
f 73/88/63 77/98/63 80/95/63
f 72/87/103 76/89/103 75/96/103
f 69/91/104 70/84/104 74/86/104
f 75/96/67 76/89/67 80/95/67
f 73/97/68 74/86/68 78/94/68
f 86/104/105 87/112/105 91/105/105
f 85/107/106 89/114/106 92/108/106
f 81/100/72 88/109/72 87/110/72
f 82/103/73 86/104/73 85/111/73
f 81/100/74 84/102/74 85/107/74
f 82/103/75 83/101/75 87/112/75
f 91/105/76 95/119/76 94/113/76
f 89/114/77 93/118/77 96/115/77
f 88/109/107 92/108/107 91/116/107
f 86/104/108 90/106/108 89/117/108
f 91/116/82 92/108/82 96/115/82
f 89/117/83 90/106/83 94/113/83
