# Blender v2.78 (sub 0) OBJ File: 'hexagon_l.blend'
# www.blender.org
o Cylinder
v 0.000000 -0.353553 0.000000
v 0.000000 -0.353553 -1.500000
v 1.299038 -0.353553 -0.750000
v 1.299038 -0.353553 0.750000
v -0.000000 -0.353553 1.500000
v -1.299038 -0.353553 0.750000
v -1.299038 -0.353553 -0.750000
vt 0.7500 0.2500
vt 0.5000 0.1250
vt 0.7500 0.0000
vt 1.0000 0.1250
vt 1.0000 0.3750
vt 0.7500 0.5000
vt 0.5000 0.3750
vn 0.0000 -1.0000 0.0000
s off
f 1/1/1 2/2/1 3/3/1
f 1/1/1 3/3/1 4/4/1
f 1/1/1 4/4/1 5/5/1
f 1/1/1 5/5/1 6/6/1
f 1/1/1 6/6/1 7/7/1
f 1/1/1 7/7/1 2/2/1
