# Blender v2.77 (sub 0) OBJ File: 'lilipad.blend'
# www.blender.org
o Cylinder.001
v -0.127064 -0.006509 0.048358
v 0.108949 0.069953 -0.087904
v -0.127064 -0.006509 -0.234070
v -0.127064 0.084860 -0.280175
v 0.117526 -0.006509 -0.092856
v 0.157454 0.084860 -0.115909
v 0.117526 -0.006509 0.189571
v 0.157454 0.084860 0.212624
v -0.127064 -0.006509 0.330785
v -0.127064 0.084860 0.376890
v -0.371653 -0.006509 0.189571
v -0.411581 0.084860 0.212624
v -0.371653 -0.006509 -0.092856
v -0.411581 0.084860 -0.115909
v 0.124449 0.084860 -0.096853
v -0.127064 0.084860 -0.242064
v 0.124449 0.084860 0.193568
v -0.127064 0.084860 0.338779
v -0.378576 0.084860 0.193568
v -0.378576 0.084860 -0.096853
v -0.127064 0.055047 0.048358
v 0.093449 0.055047 -0.078955
v -0.127064 0.055047 -0.206269
v 0.093449 0.055047 0.175671
v -0.127064 0.055047 0.302984
v -0.347577 0.055047 0.175671
v -0.347577 0.055047 -0.078955
v 0.351787 0.000061 -0.130577
v -0.127064 0.069953 -0.224166
v 0.224309 0.069208 0.021700
v -0.127064 0.084860 -0.261119
v 0.140951 0.084860 -0.106381
v 0.254001 0.000061 0.022990
v 0.354736 0.057927 -0.124915
v 0.435887 0.000061 0.030892
v 0.338058 0.069208 -0.156936
v 0.533673 0.000061 -0.122676
v 0.549636 0.069208 -0.147745
v 0.617774 0.000061 0.038793
v 0.647466 0.069208 0.040083
v 0.519987 0.000061 0.192361
v 0.533716 0.069208 0.218720
v 0.338101 0.000061 0.184459
v 0.322138 0.069208 0.209528
v 0.349406 0.069208 -0.135148
v 0.248853 0.069208 0.022767
v 0.536441 0.069208 -0.127022
v 0.622922 0.069208 0.039017
v 0.522368 0.069208 0.196931
v 0.335333 0.069208 0.188806
v 0.435887 0.046646 0.030892
v 0.360065 0.046646 -0.114683
v 0.271905 0.046646 0.023768
v 0.524047 0.046646 -0.107559
v 0.599869 0.046646 0.038015
v 0.511709 0.046646 0.176466
v 0.347727 0.046646 0.169342
v 0.260379 0.057927 0.023267
v 0.236581 0.069208 0.022233
v 0.343732 0.069208 -0.146042
v -0.053813 -0.005864 -0.471180
v -0.043247 0.072001 -0.247800
v -0.017668 -0.005864 -0.269381
v -0.047051 0.059297 -0.468739
v 0.139023 -0.005864 -0.401583
v -0.085292 0.072001 -0.482541
v 0.102878 -0.005864 -0.603381
v 0.096977 0.072001 -0.636324
v 0.295713 -0.005864 -0.533784
v 0.321292 0.072001 -0.555366
v 0.331858 -0.005864 -0.331986
v 0.363337 0.072001 -0.320624
v 0.175168 -0.005864 -0.199784
v 0.181068 0.072001 -0.166841
v -0.059271 0.072001 -0.473149
v -0.022103 0.072001 -0.265639
v 0.101855 0.072001 -0.609093
v 0.300148 0.072001 -0.537526
v 0.337316 0.072001 -0.330016
v 0.176191 0.072001 -0.194072
v 0.139023 0.046594 -0.401583
v -0.034831 0.046594 -0.464329
v -0.002244 0.046594 -0.282394
v 0.106436 0.046594 -0.583517
v 0.280289 0.046594 -0.520771
v 0.312876 0.046594 -0.338836
v 0.171610 0.046594 -0.219648
v -0.012173 0.059297 -0.274017
v -0.032675 0.072001 -0.256719
v -0.072281 0.072001 -0.477845
v -0.143683 -0.018871 0.195968
v -0.071984 0.035902 0.248060
v -0.171069 0.035902 0.280255
v -0.232309 0.035902 0.195968
v -0.171069 0.035902 0.111681
v -0.071984 0.035902 0.143876
v -0.109313 0.101472 0.301751
v -0.233668 0.101472 0.261345
v -0.233668 0.101472 0.130591
v -0.109313 0.101472 0.090185
v -0.032455 0.101472 0.195968
v -0.134610 0.084038 0.223894
v -0.167438 0.084038 0.213227
v -0.167438 0.084038 0.178710
v -0.134610 0.084038 0.168043
v -0.114320 0.084038 0.195968
vt 0.5682 0.6507
vt 0.5918 0.6188
vt 0.5732 0.8145
vt 0.4097 0.8504
vt 0.4226 0.8253
vt 0.4226 0.9736
vt 0.1932 0.4198
vt 0.2178 0.4202
vt 0.1932 0.4919
vt 0.3529 0.1204
vt 0.2481 0.1799
vt 0.2481 0.0609
vt 0.1707 0.7576
vt 0.2340 0.8739
vt 0.1685 0.8788
vt 0.6263 0.4459
vt 0.7562 0.6421
vt 0.6355 0.6421
vt 0.3529 0.0014
vt 0.1472 0.9681
vt 0.0828 0.8545
vt 0.1472 0.8460
vt 0.6455 0.1973
vt 0.7727 0.0014
vt 0.7652 0.1973
vt 0.4577 0.0609
vt 0.8701 0.9832
vt 0.8373 0.9806
vt 0.8373 0.8762
vt 0.4498 0.2421
vt 0.2481 0.3459
vt 0.2516 0.2644
vt 0.4577 0.1799
vt 0.2359 0.9397
vt 0.1707 0.9538
vt 0.4457 0.3371
vt 0.2516 0.4617
vt 0.3529 0.2394
vt 0.8344 0.8762
vt 0.8344 0.9823
vt 0.8020 0.9850
vt 0.6392 0.8400
vt 0.7658 0.6449
vt 0.7592 0.8400
vt 0.9986 0.4108
vt 0.9192 0.2623
vt 0.9907 0.2623
vt 0.2453 0.0706
vt 0.2453 0.2090
vt 0.2382 0.2050
vt 0.2311 0.0786
vt 0.1233 0.0014
vt 0.1233 0.0174
vt 0.0014 0.0706
vt 0.0156 0.0786
vt 0.0014 0.2090
vt 0.1233 0.2622
vt 0.1233 0.2702
vt 0.0156 0.2010
vt 0.8433 0.3189
vt 0.8433 0.3956
vt 0.7758 0.3572
vt 0.0959 0.3883
vt 0.0959 0.4956
vt 0.0014 0.4419
vt 0.1904 0.4419
vt 0.1904 0.3346
vt 0.0959 0.2810
vt 0.0014 0.3346
vt 0.7758 0.2805
vt 0.8433 0.2421
vt 0.1945 0.4170
vt 0.2427 0.3461
vt 0.2438 0.4090
vt 0.7087 0.9904
vt 0.6378 0.8432
vt 0.7087 0.8427
vt 0.6522 0.4378
vt 0.6564 0.2741
vt 0.6641 0.3061
vt 0.8251 0.2364
vt 0.7755 0.1632
vt 0.8251 0.1599
vt 0.9206 0.8526
vt 0.7696 0.7918
vt 0.9203 0.7906
vt 0.9109 0.2805
vt 0.1932 0.3454
vt 0.2438 0.2897
vt 0.9206 0.7205
vt 0.9109 0.3572
vt 0.8279 0.2235
vt 0.8279 0.1602
vt 0.8523 0.1601
vt 0.3360 0.9726
vt 0.2494 0.8253
vt 0.3250 0.8253
vt 0.4053 0.6084
vt 0.3267 0.6530
vt 0.3267 0.6478
vt 0.3962 0.5243
vt 0.3962 0.6032
vt 0.3267 0.4745
vt 0.4053 0.5191
vt 0.3267 0.4849
vt 0.2481 0.5191
vt 0.2526 0.6058
vt 0.2481 0.6084
vt 0.5136 0.8864
vt 0.5136 0.8173
vt 0.5745 0.8518
vt 0.4526 0.8518
vt 0.4526 0.9210
vt 0.5136 0.9556
vt 0.5745 0.9210
vt 0.0799 0.8503
vt 0.0678 0.9737
vt 0.0652 0.9493
vt 0.2611 0.7954
vt 0.2481 0.8225
vt 0.2586 0.6557
vt 0.2570 0.8226
vt 0.3426 0.8222
vt 0.4526 0.5374
vt 0.6234 0.6161
vt 0.4541 0.6015
vt 0.0775 0.7568
vt 0.1536 0.8000
vt 0.0775 0.8432
vt 0.0014 0.8000
vt 0.0014 0.7136
vt 0.0014 0.6677
vt 0.0845 0.6130
vt 0.0874 0.6677
vt 0.4541 0.4552
vt 0.6217 0.5415
vt 0.3998 0.7682
vt 0.4104 0.8226
vt 0.9632 0.6130
vt 0.8680 0.4459
vt 0.9553 0.4459
vt 0.0775 0.6704
vt 0.9174 0.6158
vt 0.8616 0.6994
vt 0.8616 0.6216
vt 0.6306 0.1612
vt 0.4605 0.0768
vt 0.6303 0.0793
vt 0.1536 0.7136
vt 0.1432 0.6107
vt 0.1488 0.6379
vt 0.6306 0.0145
vt 0.4526 0.2924
vt 0.5411 0.2421
vt 0.5411 0.2480
vt 0.4629 0.2982
vt 0.4526 0.3929
vt 0.5411 0.4314
vt 0.4629 0.3870
vt 0.6194 0.3870
vt 0.5411 0.4431
vt 0.6194 0.2982
vt 0.6245 0.2953
vt 0.8441 0.0793
vt 0.7755 0.0403
vt 0.8441 0.0014
vt 0.7755 0.1182
vt 0.8441 0.1571
vt 0.9127 0.1182
vt 0.9127 0.0403
vt 0.1503 0.4983
vt 0.8585 0.4459
vt 0.8588 0.5651
vt 0.8149 0.5579
vt 0.9264 0.8229
vt 0.9703 0.7103
vt 0.9703 0.8303
vt 0.9695 0.2595
vt 0.9211 0.1490
vt 0.9620 0.1443
vt 0.2057 0.4983
vt 0.2405 0.6152
vt 0.2026 0.6144
vt 0.1685 0.6152
vt 0.9234 0.9655
vt 0.8122 0.7000
vt 0.9155 0.0095
vt 0.2302 0.7548
vt 0.1743 0.7548
vt 0.8588 0.7075
vt 0.7696 0.6927
vt 0.9695 0.0014
vt 0.9703 0.9722
vt 0.4092 0.5634
vt 0.4472 0.5189
vt 0.4475 0.5300
vt 0.5409 0.1748
vt 0.5806 0.2168
vt 0.5409 0.2256
vt 0.5381 0.1748
vt 0.5011 0.2114
vt 0.5011 0.1969
vt 0.4081 0.5214
vt 0.4475 0.5065
vt 0.4983 0.2298
vt 0.4605 0.1967
vt 0.4983 0.1748
vt 0.4168 0.5897
vt 0.4168 0.5662
vt 0.4309 0.5707
vt 0.4532 0.8145
vt 0.5608 0.6827
vt 0.4526 0.6827
vt 0.5757 0.6188
vt 0.3472 0.9786
vt 0.4069 0.8747
vt 0.3389 0.8793
vt 0.4124 0.8260
vt 0.2423 0.4838
vt 0.2423 0.4207
vt 0.2359 0.7677
vt 0.7667 0.4459
vt 0.0828 0.9615
vt 0.6335 0.0014
vt 0.9029 0.8667
vt 0.9029 0.9858
vt 0.4498 0.4718
vt 0.7696 0.9877
vt 0.7696 0.8667
vt 0.6263 0.6449
vt 0.9155 0.4108
vt 0.2311 0.2010
vt 0.1233 0.2782
vt 0.6263 0.9910
vt 0.6325 0.2421
vt 0.6406 0.2422
vt 0.6488 0.2422
vt 0.7730 0.3063
vt 0.7730 0.4381
vt 0.7755 0.2303
vt 0.7699 0.8640
vt 0.1945 0.2810
vt 0.7699 0.7103
vt 0.8767 0.1599
vt 0.8767 0.2321
vt 0.2481 0.9726
vt 0.3267 0.6426
vt 0.2572 0.5243
vt 0.2572 0.6032
vt 0.0799 0.9986
vt 0.0752 0.9983
vt 0.0704 0.9980
vt 0.0014 0.9454
vt 0.0092 0.8460
vt 0.3246 0.6561
vt 0.2653 0.7682
vt 0.3247 0.7685
vt 0.3403 0.7679
vt 0.0091 0.6130
vt 0.6234 0.4459
vt 0.8616 0.6130
vt 0.9174 0.7045
vt 0.4609 0.1720
vt 0.1544 0.6651
vt 0.4609 0.0014
vt 0.5411 0.2538
vt 0.6296 0.3929
vt 0.6296 0.2924
vt 0.1657 0.6651
vt 0.1600 0.6651
vt 0.0679 0.6107
vt 0.0667 0.4983
vt 0.5806 0.2034
vt 0.5381 0.2298
vt 0.4092 0.4745
vt 0.4605 0.2113
vt 0.4309 0.5852
vt 0.4081 0.5780
vn -0.5000 0.0000 -0.8660
vn -0.8869 0.0000 0.4619
vn -0.0325 0.6630 0.7479
vn 0.0000 -1.0000 -0.0000
vn -0.3466 0.7208 -0.6003
vn 0.9163 -0.4004 0.0000
vn 0.6932 0.7208 0.0000
vn 0.4582 -0.4004 0.7936
vn -0.6932 0.7208 -0.0000
vn -0.4582 -0.4004 0.7936
vn 0.3466 0.7208 -0.6003
vn -0.9163 -0.4004 0.0000
vn 0.3466 0.7208 0.6003
vn -0.4582 -0.4004 -0.7936
vn 0.8312 -0.3488 -0.4329
vn 0.0000 1.0000 -0.0000
vn 0.0325 0.6630 -0.7479
vn 0.0407 -0.3488 -0.9363
vn 1.0000 0.0000 0.0000
vn -0.6639 0.6630 0.3458
vn 0.7905 -0.3488 0.5034
vn -0.6315 0.6630 -0.4021
vn -0.0407 -0.3488 0.9363
vn 0.6639 0.6630 -0.3458
vn -0.8312 -0.3488 0.4329
vn 0.0434 0.0000 -0.9991
vn -0.3395 0.0000 0.9406
vn 0.4827 0.6630 0.5722
vn 0.3182 -0.3488 -0.8815
vn -0.4827 0.6630 -0.5722
vn -0.6043 -0.3488 -0.7163
vn -0.2541 0.6630 0.7041
vn 0.9225 -0.3488 -0.1652
vn -0.7369 0.6630 0.1320
vn 0.6043 -0.3488 0.7163
vn 0.2541 0.6630 -0.7041
vn -0.3182 -0.3488 0.8815
vn -0.6449 0.0000 -0.7643
vn 0.1876 -0.7947 0.5774
vn 0.6071 -0.7947 0.0000
vn -0.4911 -0.7947 0.3568
vn -0.4911 -0.7947 -0.3568
vn 0.1876 -0.7947 -0.5774
vn 0.8564 -0.5163 0.0000
vn 0.2647 -0.5163 0.8145
vn -0.6929 -0.5163 0.5034
vn -0.6929 -0.5163 -0.5034
vn 0.2647 -0.5163 -0.8145
vn 0.8088 -0.0207 0.5877
vn -0.3090 -0.0207 0.9509
vn -0.9998 -0.0207 0.0000
vn -0.3090 -0.0207 -0.9509
vn 0.8088 -0.0207 -0.5877
vn 0.0787 0.9671 -0.2421
vn -0.2059 0.9671 0.1496
vn 0.2546 0.9671 0.0000
vn -0.2059 0.9671 -0.1496
vn 0.0787 0.9671 0.2421
vn 0.2541 0.6630 -0.7042
vn -0.6448 0.0000 -0.7643
s off
f 2/1/1 6/2/1 5/3/1
f 34/4/2 36/5/2 28/6/2
f 45/7/3 34/8/3 47/9/3
f 1/10/4 5/11/4 7/12/4
f 17/13/5 25/14/5 18/15/5
f 6/16/6 7/17/6 5/18/6
f 1/10/4 7/12/4 9/19/4
f 19/20/7 27/21/7 20/22/7
f 7/23/8 10/24/8 9/25/8
f 1/10/4 9/19/4 11/26/4
f 2/27/9 22/28/9 24/29/9
f 10/30/10 11/31/10 9/32/10
f 1/10/4 11/26/4 13/33/4
f 18/15/11 26/34/11 19/35/11
f 12/36/12 13/37/12 11/31/12
f 1/10/4 13/33/4 3/38/4
f 27/39/13 23/40/13 29/41/13
f 13/42/14 4/43/14 3/44/14
f 38/45/15 39/46/15 37/47/15
f 8/48/16 6/49/16 32/50/16
f 17/51/16 10/52/16 8/48/16
f 18/53/16 12/54/16 10/52/16
f 19/55/16 14/56/16 12/54/16
f 16/57/16 31/58/16 20/59/16
f 35/60/4 28/61/4 37/62/4
f 21/63/16 24/64/16 22/65/16
f 21/63/16 25/66/16 24/64/16
f 21/63/16 26/67/16 25/66/16
f 21/63/16 27/68/16 26/67/16
f 21/63/16 23/69/16 27/68/16
f 35/60/4 39/70/4 41/71/4
f 50/72/17 56/73/17 57/74/17
f 36/75/18 37/76/18 28/77/18
f 3/78/19 29/79/19 23/80/19
f 47/81/20 55/82/20 48/83/20
f 35/60/4 37/62/4 39/70/4
f 39/84/21 42/85/21 41/86/21
f 35/60/4 41/71/4 43/87/4
f 49/88/22 55/89/22 56/73/22
f 42/85/23 43/90/23 41/86/23
f 35/60/4 43/87/4 33/91/4
f 57/92/24 53/93/24 58/94/24
f 44/95/25 33/96/25 43/97/25
f 38/98/16 36/99/16 60/100/16
f 48/101/16 38/98/16 47/102/16
f 48/101/16 42/103/16 40/104/16
f 49/105/16 44/106/16 42/103/16
f 59/107/16 30/108/16 44/106/16
f 51/109/16 54/110/16 52/111/16
f 51/109/16 55/112/16 54/110/16
f 51/109/16 56/113/16 55/112/16
f 51/109/16 57/114/16 56/113/16
f 51/109/16 53/115/16 57/114/16
f 33/116/26 58/117/26 53/118/26
f 64/119/27 66/120/27 61/121/27
f 75/122/28 64/119/28 77/123/28
f 67/124/29 70/125/29 69/126/29
f 65/127/4 61/128/4 67/129/4
f 65/127/4 69/130/4 71/131/4
f 79/132/30 87/133/30 80/134/30
f 61/135/31 68/136/31 67/124/31
f 77/123/32 85/137/32 78/138/32
f 65/127/4 67/129/4 69/130/4
f 70/139/33 71/140/33 69/141/33
f 65/127/4 71/131/4 73/142/4
f 79/143/34 85/144/34 86/145/34
f 71/146/35 74/147/35 73/148/35
f 65/127/4 73/142/4 63/149/4
f 87/133/36 83/150/36 88/151/36
f 74/147/37 63/152/37 73/148/37
f 68/153/16 66/154/16 90/155/16
f 77/156/16 70/157/16 68/153/16
f 79/158/16 70/157/16 78/159/16
f 80/160/16 72/161/16 79/158/16
f 76/162/16 89/163/16 80/160/16
f 81/164/16 84/165/16 82/166/16
f 81/164/16 85/167/16 84/165/16
f 81/164/16 86/168/16 85/167/16
f 81/164/16 87/169/16 86/168/16
f 81/164/16 83/170/16 87/169/16
f 63/171/38 88/151/38 83/150/38
f 91/172/39 92/173/39 93/174/39
f 92/175/40 91/176/40 96/177/40
f 91/178/41 93/179/41 94/180/41
f 91/181/42 94/182/42 95/183/42
f 91/181/43 95/183/43 96/184/43
f 92/175/44 96/177/44 101/185/44
f 93/174/45 92/173/45 97/186/45
f 94/180/46 93/179/46 98/187/46
f 95/183/47 94/182/47 99/188/47
f 96/184/48 95/183/48 100/189/48
f 92/173/49 101/190/49 97/186/49
f 93/174/50 97/186/50 98/191/50
f 94/180/51 98/187/51 99/192/51
f 95/183/52 99/188/52 100/189/52
f 96/177/53 100/193/53 101/185/53
f 98/194/54 102/195/54 103/196/54
f 100/197/55 106/198/55 101/199/55
f 99/200/56 103/201/56 104/202/56
f 97/203/57 106/204/57 102/195/57
f 99/205/58 105/206/58 100/207/58
f 105/208/16 103/209/16 102/210/16
f 5/3/1 1/211/1 22/212/1
f 1/211/1 21/213/1 22/212/1
f 15/214/1 6/2/1 2/1/1
f 5/3/1 22/212/1 2/1/1
f 28/6/2 35/215/2 52/216/2
f 35/215/2 51/217/2 52/216/2
f 45/218/2 36/5/2 34/4/2
f 28/6/2 52/216/2 34/4/2
f 54/219/3 47/9/3 34/8/3
f 34/8/3 52/220/3 54/219/3
f 17/13/5 24/221/5 25/14/5
f 6/16/6 8/222/6 7/17/6
f 19/20/7 26/223/7 27/21/7
f 7/23/8 8/224/8 10/24/8
f 24/29/9 17/225/9 2/27/9
f 15/226/9 2/27/9 17/225/9
f 10/30/10 12/36/10 11/31/10
f 18/15/11 25/14/11 26/34/11
f 12/36/12 14/227/12 13/37/12
f 29/41/13 16/228/13 20/229/13
f 20/229/13 27/39/13 29/41/13
f 13/42/14 14/230/14 4/43/14
f 38/45/15 40/231/15 39/46/15
f 32/50/16 15/232/16 17/51/16
f 17/51/16 8/48/16 32/50/16
f 17/51/16 18/53/16 10/52/16
f 18/53/16 19/55/16 12/54/16
f 19/55/16 20/59/16 14/56/16
f 14/56/16 20/59/16 31/58/16
f 31/58/16 4/233/16 14/56/16
f 50/72/17 49/88/17 56/73/17
f 36/75/18 38/234/18 37/76/18
f 3/78/19 4/235/19 31/236/19
f 31/236/19 16/237/19 29/79/19
f 23/80/19 21/238/19 1/239/19
f 31/236/19 29/79/19 3/78/19
f 23/80/19 1/239/19 3/78/19
f 47/81/20 54/240/20 55/82/20
f 39/84/21 40/241/21 42/85/21
f 49/88/22 48/242/22 55/89/22
f 42/85/23 44/243/23 43/90/23
f 58/94/24 46/244/24 50/245/24
f 50/245/24 57/92/24 58/94/24
f 44/95/25 30/246/25 33/96/25
f 60/100/16 45/247/16 47/102/16
f 47/102/16 38/98/16 60/100/16
f 48/101/16 40/104/16 38/98/16
f 48/101/16 49/105/16 42/103/16
f 49/105/16 50/248/16 44/106/16
f 44/106/16 50/248/16 59/107/16
f 46/249/16 59/107/16 50/248/16
f 33/116/26 30/250/26 59/251/26
f 59/251/26 46/252/26 58/117/26
f 53/118/26 51/253/26 35/254/26
f 59/251/26 58/117/26 33/116/26
f 53/118/26 35/254/26 33/116/26
f 61/121/27 65/255/27 82/256/27
f 65/255/27 81/257/27 82/256/27
f 75/122/27 66/120/27 64/119/27
f 61/121/27 82/256/27 64/119/27
f 84/258/28 77/123/28 64/119/28
f 64/119/28 82/256/28 84/258/28
f 67/124/29 68/136/29 70/125/29
f 79/132/30 86/259/30 87/133/30
f 61/135/31 66/260/31 68/136/31
f 77/123/32 84/258/32 85/137/32
f 70/139/33 72/261/33 71/140/33
f 79/143/34 78/262/34 85/144/34
f 71/146/35 72/263/35 74/147/35
f 88/151/59 76/264/59 80/134/59
f 80/134/36 87/133/36 88/151/36
f 74/147/37 62/265/37 63/152/37
f 90/155/16 75/266/16 77/156/16
f 77/156/16 68/153/16 90/155/16
f 77/156/16 78/159/16 70/157/16
f 79/158/16 72/161/16 70/157/16
f 80/160/16 74/267/16 72/161/16
f 74/267/16 80/160/16 89/163/16
f 89/163/16 62/268/16 74/267/16
f 63/171/60 62/269/60 89/270/60
f 89/270/38 76/264/38 88/151/38
f 83/150/38 81/271/38 65/272/38
f 89/270/38 88/151/38 63/171/38
f 83/150/38 65/272/38 63/171/38
f 98/194/54 97/203/54 102/195/54
f 100/197/55 105/273/55 106/198/55
f 99/200/56 98/274/56 103/201/56
f 97/203/57 101/275/57 106/204/57
f 99/205/58 104/276/58 105/206/58
f 102/210/16 106/277/16 105/208/16
f 105/208/16 104/278/16 103/209/16
