# Blender v2.77 (sub 0) OBJ File: 'gemgreen.blend'
# www.blender.org
o Icosphere
v -0.243923 0.500168 0.316979
v -0.021227 0.615406 0.432897
v -0.241716 0.615406 0.504539
v -0.441137 0.622053 0.316979
v -0.304864 0.622053 0.129419
v -0.021227 0.615406 0.201062
v -0.042480 0.804479 0.504539
v -0.340323 0.812621 0.432897
v -0.340323 0.812621 0.201062
v -0.119833 0.812621 0.129419
v 0.093793 0.804479 0.316979
v -0.103421 0.926364 0.316979
v -0.019114 0.467231 -0.257095
v 0.396045 0.516215 0.044533
v -0.177688 0.516215 0.230953
v -0.532283 0.516215 -0.257095
v -0.177688 0.516215 -0.745142
v 0.396045 0.516215 -0.558722
v 0.139459 1.029386 0.230953
v -0.434274 1.029386 0.044533
v -0.434274 1.029386 -0.558722
v 0.139459 1.029386 -0.576257
v 0.494054 1.029386 -0.257095
v -0.019114 1.206401 -0.257095
v 0.197879 0.447204 0.218050
v 0.501304 0.554559 0.587926
v 0.081984 0.585271 0.574747
v -0.177177 0.585271 0.179890
v 0.081984 0.555052 -0.176806
v 0.501304 0.554560 -0.002396
v 0.313775 0.929617 0.724173
v -0.105546 0.929617 0.438500
v -0.105546 0.926484 -0.040558
v 0.313775 0.809349 -0.138647
v 0.572936 0.809349 0.367477
v 0.197879 1.041147 0.218051
v 0.251223 1.078694 -0.119616
v 0.282654 1.062302 -0.097472
v 0.279082 1.054404 -0.061041
v 0.244794 1.061756 -0.043182
v 0.214078 1.077364 -0.063184
v 0.218364 1.085195 -0.100329
v 0.309284 1.247631 -0.132596
v 0.383119 1.209123 -0.080576
v 0.374729 1.190569 0.005007
v 0.294181 1.207840 0.046959
v 0.222023 1.244505 -0.000028
v 0.232092 1.262902 -0.087288
v 0.335526 1.323092 -0.058451
v 0.367024 1.306665 -0.036260
v 0.363445 1.298750 0.000248
v 0.329084 1.306118 0.018145
v 0.298302 1.321759 -0.001899
v 0.302597 1.329607 -0.039123
v 0.219149 1.092130 -0.129080
v 0.186486 1.107036 -0.143597
v 0.155033 1.113339 -0.125451
v 0.155033 1.103938 -0.087949
v 0.188301 1.089128 -0.074641
v 0.239209 1.189715 -0.071708
v 0.235735 1.200462 -0.118233
v 0.177636 1.200622 -0.141725
v 0.127064 1.188908 -0.112360
v 0.133342 1.175051 -0.051674
v 0.192269 1.175436 -0.030140
v 0.205881 1.222313 -0.072525
v 0.204315 1.227157 -0.093494
v 0.178130 1.227229 -0.104081
v 0.155338 1.221950 -0.090847
v 0.158168 1.215704 -0.063496
v 0.184726 1.215878 -0.053791
v -0.267050 0.847803 0.305667
v -0.267941 0.847374 0.331834
v -0.267941 0.847374 0.331834
v -0.289275 0.837132 0.344587
v -0.289275 0.837132 0.344587
v -0.308785 0.827764 0.331956
v -0.308791 0.827761 0.331952
v -0.308988 0.827667 0.303816
v -0.308988 0.827667 0.303816
v -0.287051 0.838199 0.290649
v -0.287051 0.838199 0.290649
v -0.294532 0.936748 0.298268
v -0.295880 0.936100 0.337882
v -0.328177 0.920594 0.357188
v -0.357711 0.906414 0.338066
v -0.357721 0.906409 0.338060
v -0.358019 0.906267 0.295466
v -0.324810 0.922211 0.275534
v -0.338281 0.938669 0.341830
v -0.355597 0.930355 0.330619
v -0.355602 0.930352 0.330616
v -0.319346 0.947760 0.330511
v -0.318556 0.948140 0.307287
v -0.355777 0.930269 0.305644
v -0.336307 0.939616 0.293958
v 0.321463 0.952695 0.406448
v 0.351721 0.936569 0.388835
v 0.377005 0.919912 0.410787
v 0.374198 0.918558 0.445268
v 0.344872 0.934162 0.462635
v 0.318689 0.951185 0.442515
v 0.378842 1.092487 0.404599
v 0.429119 1.065690 0.375332
v 0.471133 1.038013 0.411808
v 0.466469 1.035763 0.469104
v 0.417739 1.061692 0.497962
v 0.374233 1.089977 0.464530
v 0.429677 1.141075 0.421808
v 0.461342 1.124199 0.403376
v 0.487802 1.106767 0.426349
v 0.484865 1.105350 0.462434
v 0.454174 1.121680 0.480609
v 0.426774 1.139495 0.459553
vt 0.0003 0.7952
vt 0.0848 0.7544
vt 0.0622 0.8209
vt 0.4392 0.8277
vt 0.3482 0.8344
vt 0.4031 0.7611
vt 0.0003 0.8778
vt 0.2704 0.8386
vt 0.3060 0.7695
vt 0.4843 0.7611
vt 0.1431 0.7984
vt 0.0870 0.8875
vt 0.2370 0.7636
vt 0.3219 0.9519
vt 0.2333 0.9997
vt 0.2574 0.9222
vt 0.5040 0.8314
vt 0.1894 0.8251
vt 0.1894 0.9402
vt 0.3219 0.8631
vt 0.5539 0.7804
vt 0.5932 0.8571
vt 0.5980 0.8161
vt 0.5931 0.8177
vt 0.2396 0.8577
vt 0.5785 0.1696
vt 0.4664 0.2890
vt 0.4298 0.1009
vt 0.6564 0.3137
vt 0.1683 0.7538
vt 0.0003 0.6672
vt 0.1683 0.6000
vt 0.3363 0.6672
vt 0.7397 0.1410
vt 0.3933 0.4560
vt 0.6128 0.4560
vt 0.5036 0.5986
vt 0.2851 0.2266
vt 0.0587 0.4560
vt 0.2778 0.4560
vt 0.8388 0.3137
vt 0.3368 0.6689
vt 0.2486 0.0385
vt 0.9308 0.1562
vt 0.6313 0.6605
vt 0.4476 0.6829
vt 0.4526 0.6922
vt 0.3526 0.7103
vt 0.1261 0.1599
vt 0.0608 0.0003
vt 0.0003 0.1723
vt 0.5199 0.7606
vt 0.0835 0.3142
vt 0.2363 0.3250
vt 0.1472 0.4216
vt 0.6319 0.8111
vt 0.7476 0.6744
vt 0.8069 0.7754
vt 0.0003 0.4080
vt 0.7774 0.3376
vt 0.7122 0.4508
vt 0.6394 0.3269
vt 0.9043 0.6788
vt 0.7473 0.8689
vt 0.2809 0.4554
vt 0.8685 0.6738
vt 0.7041 0.6738
vt 0.7809 0.5742
vt 0.5782 0.4554
vt 0.9043 0.8077
vt 0.3439 0.3273
vt 0.6319 0.5348
vt 0.9221 0.5353
vt 0.5268 0.3201
vt 0.3584 0.4107
vt 0.3631 0.4073
vt 0.4450 0.4368
vt 0.7969 0.4560
vt 0.4607 0.6607
vt 0.4528 0.6713
vt 0.8806 0.8935
vt 0.9042 0.9613
vt 0.8733 0.9853
vt 0.9660 0.9629
vt 0.9340 0.9984
vt 0.9429 0.9749
vt 0.9184 0.8908
vt 0.9345 0.9507
vt 0.9221 0.9522
vt 0.9914 0.8948
vt 0.9729 0.8947
vt 0.8997 0.8942
vt 0.9544 0.8908
vt 0.9352 0.8924
vt 0.9481 0.9529
vt 0.9258 0.9740
vt 0.9343 0.9653
vt 0.9287 0.9664
vt 0.9406 0.9669
vt 0.7864 0.9231
vt 0.7811 0.9299
vt 0.7783 0.9246
vt 0.4591 0.6630
vt 0.4655 0.6734
vt 0.4634 0.6916
vt 0.4752 0.6917
vt 0.7477 0.9089
vt 0.7726 0.9292
vt 0.7398 0.9292
vt 0.7744 0.9625
vt 0.7284 0.9448
vt 0.7943 0.8872
vt 0.7813 0.8885
vt 0.7636 0.8948
vt 0.7695 0.9388
vt 0.8126 0.8926
vt 0.7940 0.9245
vt 0.7882 0.9428
vt 0.7852 0.9297
vt 0.7781 0.9324
vt 0.7790 0.9376
vt 0.8126 0.9413
vt 0.7888 0.9320
vt 0.8341 0.9323
vt 0.8359 0.9241
vt 0.8396 0.9266
vt 0.6313 0.8033
vt 0.5998 0.8156
vt 0.8636 0.9461
vt 0.8131 0.9364
vt 0.8559 0.8872
vt 0.8340 0.9093
vt 0.8179 0.9059
vt 0.8608 0.8983
vt 0.8341 0.9094
vt 0.8696 0.9206
vt 0.8400 0.9158
vt 0.8661 0.9084
vt 0.8696 0.9336
vt 0.8410 0.9214
vt 0.8610 0.8988
vt 0.8244 0.9203
vt 0.8325 0.9159
vt 0.8375 0.9208
vt 0.8312 0.9265
vt 0.8365 0.9175
vt 0.8324 0.9159
vt 0.3530 0.4035
vt 0.6252 0.8956
vt 0.6538 0.9485
vt 0.6403 0.9666
vt 0.6867 0.9380
vt 0.6770 0.9458
vt 0.6764 0.9363
vt 0.6585 0.8872
vt 0.6662 0.9388
vt 0.6763 0.8872
vt 0.7089 0.8932
vt 0.7193 0.9741
vt 0.6994 0.9458
vt 0.6411 0.8923
vt 0.6924 0.8894
vt 0.6702 0.9543
vt 0.6818 0.9481
vt 0.6849 0.9550
vt 0.6718 0.9472
vt 0.6763 0.9643
vt 0.6021 0.8154
vt 0.4578 0.7028
vt 0.4606 0.6811
vt 0.3532 0.4141
vt 0.3693 0.4052
vt 0.4556 0.6493
vt 0.4396 0.6700
vt 0.9955 0.9874
vt 0.4557 0.6757
vt 0.5961 0.8176
vt 0.5977 0.8166
vt 0.5983 0.8156
vt 0.5981 0.8146
vt 0.8563 0.9585
vt 0.3603 0.4036
vt 0.7278 0.8968
vn 0.1672 -0.8409 0.5147
vn 0.4596 -0.8881 0.0000
vn -0.4647 -0.7520 0.4675
vn -0.4911 -0.7947 -0.3568
vn 0.1246 -0.8130 -0.5688
vn 0.8543 -0.5197 0.0000
vn 0.2938 -0.3096 0.9043
vn -0.6844 -0.0789 0.7249
vn -0.8070 0.0703 -0.5863
vn 0.2335 -0.2267 -0.9455
vn 0.8021 -0.1307 0.5828
vn -0.2214 0.2333 0.9469
vn -0.8839 0.4676 0.0000
vn -0.2960 0.2874 -0.9109
vn 0.6599 0.0578 -0.7491
vn 0.4911 0.7947 0.3568
vn -0.1141 0.8157 0.5671
vn -0.4328 0.9015 0.0000
vn -0.1628 0.8499 -0.5012
vn 0.4583 0.7416 -0.4898
vn 0.0362 -0.9931 0.1114
vn 0.1172 -0.9931 0.0000
vn -0.0948 -0.9931 0.0689
vn -0.0948 -0.9931 -0.0689
vn 0.0362 -0.9931 -0.1114
vn 0.9822 -0.1876 0.0000
vn 0.3035 -0.1876 0.9342
vn -0.7946 -0.1876 0.5774
vn -0.7946 -0.1876 -0.5774
vn 0.3067 0.1211 -0.9441
vn 0.7946 0.1876 0.5774
vn -0.3035 0.1876 0.9342
vn -0.9822 0.1876 0.0000
vn -0.0289 0.3285 -0.9441
vn 0.6392 0.2953 -0.7101
vn 0.3173 0.9199 0.2305
vn -0.1212 0.9199 0.3730
vn -0.3922 0.9199 0.0000
vn -0.0150 0.8712 -0.4907
vn 0.3066 0.8888 -0.3406
vn -0.0793 -0.9380 0.3373
vn 0.3336 -0.9427 -0.0000
vn -0.3567 -0.9044 0.2341
vn -0.3268 -0.9317 -0.1585
vn 0.1214 -0.9479 -0.2945
vn 0.9627 -0.2706 -0.0000
vn -0.0560 -0.3655 0.9291
vn -0.8133 -0.2317 0.5338
vn -0.8010 -0.1971 -0.5653
vn 0.3755 -0.2067 -0.9035
vn 0.8229 0.2214 0.5233
vn -0.5629 0.0204 0.8263
vn -0.9788 0.2046 -0.0013
vn -0.1454 0.2752 -0.9503
vn 0.8232 0.3805 -0.4215
vn 0.5025 0.8613 0.0747
vn -0.1696 0.9535 0.2490
vn -0.3489 0.9371 -0.0061
vn 0.1171 0.8497 -0.5141
vn 0.5851 0.7536 -0.2996
vn -0.6149 -0.2530 0.7469
vn -0.7092 0.7019 0.0661
vn 0.8268 -0.5611 -0.0406
vn -0.9918 0.0837 -0.0968
vn 0.2797 -0.5709 0.7719
vn 0.4778 -0.2294 -0.8480
vn -0.4886 0.1013 -0.8666
vn 0.4749 0.0881 0.8756
vn 0.6580 0.3988 -0.6388
vn -0.2387 0.7216 -0.6499
vn -0.3624 0.3784 0.8518
vn 0.9868 0.1082 0.1202
vn 0.4793 0.5080 0.7157
vn 0.3173 0.9199 0.2306
vn -0.2936 -0.5039 0.8123
vn -0.5041 -0.0304 -0.8631
vn 0.9815 -0.1905 -0.0191
vn 0.6774 -0.3615 0.6407
vn -0.9392 -0.3331 -0.0835
vn 0.4163 0.0272 -0.9088
vn -0.0906 0.9688 0.2306
vn -0.8062 0.5533 0.2097
vn 0.2301 0.7933 -0.5637
vn -0.3114 0.4358 0.8445
vn -0.4630 0.7267 -0.5075
vn 0.6934 0.7117 0.1126
vn 0.1182 0.7576 -0.6419
vn -0.4329 0.9015 0.0000
vn -0.3685 -0.3225 -0.8719
vn -0.8488 -0.5287 0.0077
vn -0.4122 -0.3189 0.8534
vn 0.4784 0.0911 0.8734
vn 0.9539 0.2978 0.0374
vn -0.4032 -0.3175 0.8583
vn 0.5639 0.1061 -0.8190
vn -0.9959 0.0902 0.0067
vn 0.4373 0.8988 0.0296
vn -0.6010 0.3590 -0.7141
vn 0.1088 0.6783 0.7267
vn -0.6096 0.2826 0.7406
vn -0.6134 0.2835 0.7372
vn 0.5026 0.8613 0.0747
vn 0.7812 -0.6230 0.0391
vn -0.6868 0.7265 -0.0224
vn -0.4293 0.1645 -0.8881
vn -0.9239 0.3785 -0.0552
vn 0.2948 -0.4078 0.8642
vn 0.4634 -0.3623 -0.8087
vn -0.5662 0.0967 0.8186
vn 0.4906 -0.0463 0.8701
vn 0.6558 0.0006 -0.7549
vn -0.3435 0.4475 0.8257
vn 0.9661 -0.2488 0.0689
vn -0.2100 0.5142 -0.8316
vn -0.4850 -0.3831 0.7862
vn -0.4961 -0.0333 -0.8676
vn 0.9845 -0.1401 -0.1059
vn 0.5907 -0.3206 0.7404
vn -0.9519 -0.3050 0.0288
vn 0.3744 0.0539 -0.9257
vn -0.0905 0.9688 0.2306
vn 0.0000 0.0000 1.0000
vn -0.4350 0.9004 0.0057
vn -0.3994 -0.3191 0.8594
vn -0.4276 0.9040 0.0000
vn -0.6105 0.2835 0.7396
s off
f 1/1/1 2/2/1 3/3/1
f 2/4/2 1/5/2 6/6/2
f 1/1/3 3/3/3 4/7/3
f 1/5/4 4/8/4 5/9/4
f 1/5/5 5/9/5 6/6/5
f 2/4/6 6/6/6 11/10/6
f 3/3/7 2/2/7 7/11/7
f 4/7/8 3/3/8 8/12/8
f 5/9/9 4/8/9 9/13/9
f 6/14/10 5/15/10 10/16/10
f 2/4/11 11/10/11 7/17/11
f 3/3/12 7/11/12 8/12/12
f 4/8/13 8/18/13 9/13/13
f 5/15/14 9/19/14 10/16/14
f 6/14/15 10/16/15 11/20/15
f 7/17/16 11/10/16 12/21/16
f 8/22/17 7/17/17 12/21/17
f 72/23/18 74/24/18 12/21/18
f 10/16/19 9/19/19 12/25/19
f 11/20/20 10/16/20 12/25/20
f 13/26/21 14/27/21 15/28/21
f 14/27/22 13/26/22 18/29/22
f 13/30/23 15/31/23 16/32/23
f 13/30/24 16/32/24 17/33/24
f 13/26/25 17/34/25 18/29/25
f 14/35/26 18/36/26 23/37/26
f 15/28/27 14/27/27 19/38/27
f 16/32/28 15/31/28 20/39/28
f 17/33/29 16/32/29 21/40/29
f 18/29/30 17/34/30 22/41/30
f 14/35/31 23/37/31 19/42/31
f 15/28/32 19/38/32 20/43/32
f 16/32/33 20/39/33 21/40/33
f 17/34/34 21/44/34 22/41/34
f 18/36/35 22/45/35 23/37/35
f 41/46/36 59/47/36 19/48/36
f 20/43/37 19/38/37 24/49/37
f 21/50/38 20/43/38 24/49/38
f 22/51/39 21/50/39 24/49/39
f 23/37/40 22/45/40 24/52/40
f 25/53/41 26/54/41 27/55/41
f 26/56/42 25/57/42 30/58/42
f 25/53/43 27/55/43 28/59/43
f 25/60/44 28/61/44 29/62/44
f 25/57/45 29/63/45 30/58/45
f 26/56/46 30/58/46 35/64/46
f 27/55/47 26/54/47 31/65/47
f 28/66/48 27/67/48 32/68/48
f 29/62/49 28/61/49 33/69/49
f 30/58/50 29/63/50 34/70/50
f 26/54/51 35/71/51 31/65/51
f 27/67/52 31/72/52 32/68/52
f 28/66/53 32/68/53 33/73/53
f 29/62/54 33/69/54 34/74/54
f 30/58/55 34/70/55 35/64/55
f 102/75/56 97/76/56 36/77/56
f 32/68/57 31/72/57 36/78/57
f 33/73/58 32/68/58 36/78/58
f 34/74/59 33/69/59 36/77/59
f 35/71/60 34/74/60 36/77/60
f 39/79/36 40/80/36 19/42/36
f 41/81/61 46/82/61 47/83/61
f 48/84/62 53/85/62 54/86/62
f 39/87/63 44/88/63 45/89/63
f 41/90/64 48/84/64 42/91/64
f 39/87/65 46/82/65 40/92/65
f 37/93/66 44/88/66 38/94/66
f 37/93/67 48/84/67 43/95/67
f 52/96/36 50/97/36 54/86/36
f 46/82/68 51/98/68 52/96/68
f 44/88/69 49/99/69 50/97/69
f 48/84/70 49/99/70 43/95/70
f 46/82/71 53/85/71 47/83/71
f 44/88/72 51/98/72 45/89/72
f 60/100/73 71/101/73 65/102/73
f 37/103/74 23/37/74 55/104/74
f 24/52/36 57/105/36 56/106/36
f 58/107/75 65/102/75 64/108/75
f 57/109/76 62/110/76 56/111/76
f 55/112/77 60/100/77 42/113/77
f 59/114/78 60/100/78 65/102/78
f 58/107/79 63/115/79 57/109/79
f 56/116/80 61/117/80 55/112/80
f 68/118/81 71/101/81 66/119/81
f 63/115/82 70/120/82 69/121/82
f 62/122/83 67/123/83 61/117/83
f 65/102/84 70/120/84 64/108/84
f 62/110/85 69/121/85 68/118/85
f 60/100/86 67/123/86 66/119/86
f 89/124/87 94/125/87 83/126/87
f 9/127/88 8/22/88 79/128/88
f 81/129/89 88/130/89 89/124/89
f 79/131/90 87/132/90 88/133/90
f 78/134/91 86/135/91 87/132/91
f 73/136/92 85/137/92 75/138/92
f 72/139/93 84/140/93 73/136/93
f 75/138/94 86/135/94 77/141/94
f 72/139/95 89/124/95 83/126/95
f 95/142/18 91/143/18 94/125/18
f 87/132/96 95/142/96 88/133/96
f 84/140/97 94/125/97 93/144/97
f 88/130/98 96/145/98 89/124/98
f 85/137/99 93/144/99 90/146/99
f 86/135/100 92/147/100 87/132/100
f 86/135/101 90/146/101 91/143/101
f 100/148/102 31/65/102 35/71/102
f 100/149/103 105/150/103 106/151/103
f 108/152/104 109/153/104 103/154/104
f 98/155/105 103/154/105 104/156/105
f 97/157/106 108/152/106 103/154/106
f 101/158/107 106/159/107 107/160/107
f 98/155/108 105/150/108 99/161/108
f 102/162/109 107/160/109 108/152/109
f 111/163/102 109/153/102 114/164/102
f 106/159/110 113/165/110 107/160/110
f 105/150/111 110/166/111 111/163/111
f 107/160/112 114/164/112 108/152/112
f 105/150/113 112/167/113 106/151/113
f 103/154/114 110/166/114 104/156/114
f 12/21/18 9/127/18 72/23/18
f 9/127/18 81/168/18 72/23/18
f 74/24/18 8/22/18 12/21/18
f 58/169/36 19/48/36 59/47/36
f 41/46/36 42/170/36 59/47/36
f 31/65/102 101/171/102 102/75/102
f 97/76/102 98/172/102 36/77/102
f 36/77/102 31/65/102 102/75/102
f 23/37/36 38/173/36 39/79/36
f 40/80/36 41/174/36 19/42/36
f 19/42/36 23/37/36 39/79/36
f 41/81/61 40/92/61 46/82/61
f 48/84/62 47/175/62 53/85/62
f 39/87/63 38/94/63 44/88/63
f 41/90/64 47/175/64 48/84/64
f 39/87/65 45/89/65 46/82/65
f 37/93/66 43/95/66 44/88/66
f 37/93/67 42/91/67 48/84/67
f 54/86/36 53/85/36 52/96/36
f 52/96/36 51/98/36 50/97/36
f 50/97/36 49/99/36 54/86/36
f 46/82/68 45/89/68 51/98/68
f 44/88/69 43/95/69 49/99/69
f 48/84/70 54/86/70 49/99/70
f 46/82/71 52/96/71 53/85/71
f 44/88/72 50/97/72 51/98/72
f 60/100/73 66/119/73 71/101/73
f 55/104/74 42/176/74 37/103/74
f 37/103/36 38/173/36 23/37/36
f 55/104/74 23/37/74 56/106/74
f 24/52/36 19/48/36 58/169/36
f 24/52/74 58/169/74 57/105/74
f 56/106/36 23/37/36 24/52/36
f 58/107/115 59/114/115 65/102/115
f 57/109/116 63/115/116 62/110/116
f 55/112/117 61/117/117 60/100/117
f 59/114/118 42/113/118 60/100/118
f 58/107/119 64/108/119 63/115/119
f 56/116/120 62/122/120 61/117/120
f 66/119/81 67/123/81 68/118/81
f 68/118/121 69/121/121 70/120/121
f 70/120/81 71/101/81 68/118/81
f 63/115/82 64/108/82 70/120/82
f 62/122/83 68/118/83 67/123/83
f 65/102/84 71/101/84 70/120/84
f 62/110/85 63/115/85 69/121/85
f 60/100/86 61/117/86 67/123/86
f 89/124/87 96/145/87 94/125/87
f 74/24/122 72/23/122 73/177/122
f 75/178/18 77/179/18 8/22/18
f 8/22/122 74/24/122 73/177/122
f 8/22/18 73/177/18 75/178/18
f 79/128/18 81/168/18 9/127/18
f 8/22/123 77/179/123 78/180/123
f 78/180/18 79/128/18 8/22/18
f 81/129/89 79/181/89 88/130/89
f 79/131/90 78/134/90 87/132/90
f 78/134/124 77/141/124 86/135/124
f 73/136/92 84/140/92 85/137/92
f 72/139/93 83/126/93 84/140/93
f 75/138/94 85/137/94 86/135/94
f 72/139/95 81/129/95 89/124/95
f 93/144/18 94/125/18 91/143/18
f 96/145/18 95/142/18 94/125/18
f 92/147/125 91/143/125 95/142/125
f 90/146/18 93/144/18 91/143/18
f 87/132/96 92/147/96 95/142/96
f 84/140/97 83/126/97 94/125/97
f 88/130/98 95/142/98 96/145/98
f 85/137/99 84/140/99 93/144/99
f 86/135/126 91/143/126 92/147/126
f 86/135/101 85/137/101 90/146/101
f 35/71/102 36/77/102 98/172/102
f 35/71/56 98/172/56 99/182/56
f 101/171/56 31/65/56 100/148/56
f 35/71/102 99/182/102 100/148/102
f 100/149/103 99/161/103 105/150/103
f 108/152/104 114/164/104 109/153/104
f 98/155/105 97/157/105 103/154/105
f 97/157/106 102/162/106 108/152/106
f 101/158/107 100/183/107 106/159/107
f 98/155/108 104/156/108 105/150/108
f 102/162/109 101/158/109 107/160/109
f 114/164/102 113/165/102 111/163/102
f 112/167/56 111/163/56 113/165/56
f 110/166/102 109/153/102 111/163/102
f 106/159/110 112/167/110 113/165/110
f 105/150/111 104/156/111 110/166/111
f 107/160/112 113/165/112 114/164/112
f 105/150/113 111/163/113 112/167/113
f 103/154/114 109/153/114 110/166/114
l 76 79
