# Blender v2.78 (sub 0) OBJ File: 'cloud.blend'
# www.blender.org
o Icosphere.001_Icosphere.002
v -0.527835 -0.983430 0.739337
v -0.274575 -0.789955 0.923339
v -0.624570 -0.789955 1.037061
v -0.840884 -0.789955 0.739337
v -0.624570 -0.789955 0.441613
v -0.274575 -0.789955 0.555335
v -0.431100 -0.476905 1.037061
v -0.781095 -0.476905 0.923339
v -0.781095 -0.476905 0.555335
v -0.431100 -0.476905 0.441613
v -0.214786 -0.476905 0.739337
v -0.527835 -0.283430 0.739337
v 0.626043 -0.155479 -0.859692
v 0.995079 0.126442 -0.591575
v 0.485087 0.126442 -0.425866
v 0.169886 0.126442 -0.859692
v 0.485087 0.126442 -1.293518
v 0.995079 0.126442 -1.127809
v 0.766999 0.582601 -0.425866
v 0.257007 0.582601 -0.591575
v 0.257007 0.582601 -1.127809
v 0.766999 0.582601 -1.293518
v 1.082200 0.582601 -0.859692
v 0.626043 0.864521 -0.859692
v 0.000000 -0.770000 -1.386909
v 0.557172 -0.344356 -0.982105
v -0.212816 -0.344356 -0.731916
v -0.688707 -0.344356 -1.386909
v -0.212816 -0.344356 -2.041902
v 0.557172 -0.344356 -1.791714
v 0.212816 0.344356 -0.731916
v -0.557172 0.344356 -0.982105
v -0.557172 0.344356 -1.791714
v 0.212816 0.344356 -2.041902
v 0.688707 0.344356 -1.386909
v 0.000000 0.770000 -1.386909
v 0.000000 -0.680000 0.966964
v 0.492048 -0.304106 1.324453
v -0.187942 -0.304106 1.545399
v -0.608209 -0.304106 0.966964
v -0.187942 -0.304106 0.388529
v 0.492048 -0.304106 0.609474
v 0.187942 0.304106 1.545399
v -0.492048 0.304106 1.324453
v -0.492048 0.304106 0.609474
v 0.187942 0.304106 0.388529
v 0.608209 0.304106 0.966964
v 0.000000 0.680000 0.966964
v 0.000000 -1.000000 0.000000
v 0.723600 -0.447215 0.525720
v -0.276385 -0.447215 0.850640
v -0.894425 -0.447215 0.000000
v -0.276385 -0.447215 -0.850640
v 0.723600 -0.447215 -0.525720
v 0.276385 0.447215 0.850640
v -0.723600 0.447215 0.525720
v -0.723600 0.447215 -0.525720
v 0.276385 0.447215 -0.850640
v 0.894425 0.447215 0.000000
v 0.000000 1.000000 0.000000
vt 0.0534 0.9055
vt 0.0005 0.9055
vt 0.0371 0.9558
vt 0.0371 0.8552
vt 0.0962 0.9366
vt 0.0962 0.8744
vt 0.5084 0.7785
vt 0.5084 0.8407
vt 0.4556 0.8096
vt 0.5084 0.9201
vt 0.4556 0.9465
vt 0.4556 0.8874
vt 0.1410 0.7579
vt 0.1410 0.8082
vt 0.1938 0.7890
vt 0.1410 0.7076
vt 0.1938 0.7268
vt 0.3279 0.9637
vt 0.3808 0.9373
vt 0.3279 0.9046
vt 0.4556 0.7593
vt 0.5084 0.8610
vt 0.3808 0.8782
vt 0.4556 0.8599
vt 0.8158 0.2427
vt 0.7655 0.2061
vt 0.8158 0.1898
vt 0.0973 0.9055
vt 0.1338 0.8552
vt 0.1501 0.9055
vt 0.1338 0.9558
vt 0.1929 0.9366
vt 0.1929 0.8744
vt 0.0776 0.7809
vt 0.0538 0.8541
vt 0.1399 0.8262
vt 0.0005 0.7809
vt 0.1399 0.7356
vt 0.0538 0.7076
vt 0.9609 0.4426
vt 0.9609 0.5332
vt 0.8838 0.4879
vt 0.9995 0.0867
vt 0.9224 0.1252
vt 0.9224 0.0391
vt 0.9829 0.2411
vt 0.9829 0.1678
vt 0.9058 0.1958
vt 0.4453 0.7211
vt 0.5084 0.7583
vt 0.5084 0.6689
vt 0.8838 0.4135
vt 0.9609 0.3750
vt 0.8838 0.3274
vt 0.8838 0.4146
vt 0.9995 0.0005
vt 0.9058 0.2863
vt 0.9609 0.2889
vt 0.7644 0.2791
vt 0.7013 0.2269
vt 0.7644 0.1898
vt 0.8635 0.8005
vt 0.8915 0.7144
vt 0.9367 0.7767
vt 0.9367 0.8538
vt 0.9048 0.2584
vt 0.8186 0.2863
vt 0.8424 0.2131
vt 0.9048 0.1678
vt 0.5076 0.5773
vt 0.5076 0.6678
vt 0.4453 0.6225
vt 0.1168 0.3995
vt 0.0809 0.5101
vt 0.2109 0.4679
vt 0.2120 0.8541
vt 0.3226 0.8900
vt 0.3226 0.7737
vt 0.2109 0.3312
vt 0.0809 0.2889
vt 0.0005 0.3995
vt 0.8810 0.5766
vt 0.8810 0.7133
vt 0.7647 0.6450
vt 0.3279 0.6354
vt 0.4442 0.5773
vt 0.4442 0.7073
vt 0.7636 0.6450
vt 0.7636 0.5344
vt 0.6473 0.5766
vt 0.7636 0.7556
vt 0.6473 0.7133
vt 0.8176 0.0005
vt 0.7013 0.0587
vt 0.8176 0.1306
vt 0.7647 0.5344
vt 0.3279 0.7654
vt 0.7013 0.1887
vt 0.3279 0.8088
vt 0.4442 0.7665
vt 0.4442 0.8771
vt 0.6684 0.4189
vt 0.7106 0.2889
vt 0.7790 0.3830
vt 0.7790 0.4993
vt 0.5162 0.5766
vt 0.6463 0.5344
vt 0.6103 0.6450
vt 0.5162 0.7133
vt 0.6463 0.7556
vt 0.1032 0.6089
vt 0.0715 0.7065
vt 0.1863 0.6692
vt 0.9652 0.5344
vt 0.8821 0.5947
vt 0.9652 0.6551
vt 0.1863 0.5485
vt 0.0715 0.5112
vt 0.0005 0.6089
vt 0.6189 0.7940
vt 0.6189 0.9147
vt 0.5162 0.8543
vt 0.9213 0.1154
vt 0.8186 0.1667
vt 0.8186 0.0519
vt 0.8828 0.3866
vt 0.8828 0.2889
vt 0.7800 0.3262
vt 0.8828 0.4843
vt 0.7800 0.4469
vt 0.6609 0.9228
vt 0.7636 0.8715
vt 0.6609 0.8080
vt 0.5162 0.7567
vt 0.9213 0.0005
vt 0.7636 0.7567
vt 0.9553 0.8548
vt 0.9553 0.9641
vt 0.8635 0.9308
vt 0.7647 0.8292
vt 0.8020 0.7144
vt 0.8624 0.7975
vt 0.8624 0.9002
vt 0.2120 0.6146
vt 0.3268 0.5773
vt 0.2951 0.6749
vt 0.2120 0.7353
vt 0.3268 0.7726
vt 0.4259 0.1442
vt 0.2748 0.1442
vt 0.3792 0.2878
vt 0.3792 0.0005
vt 0.5481 0.2330
vt 0.5481 0.0554
vt 0.5152 0.3438
vt 0.5152 0.5213
vt 0.3641 0.4325
vt 0.5162 0.3644
vt 0.6673 0.2889
vt 0.6673 0.4578
vt 0.3630 0.4325
vt 0.3630 0.2889
vt 0.2120 0.3438
vt 0.3630 0.5762
vt 0.2120 0.5213
vt 0.7002 0.0005
vt 0.5492 0.0761
vt 0.7002 0.1694
vt 0.3641 0.2889
vt 0.5162 0.5333
vt 0.5492 0.2449
vt 0.3641 0.5762
vt 0.2738 0.0554
vt 0.2738 0.2330
vt 0.1516 0.1442
vt 0.1049 0.0005
vt 0.0005 0.1442
vt 0.1049 0.2878
vn 0.1876 -0.7947 0.5774
vn 0.6071 -0.7947 0.0000
vn -0.4911 -0.7947 0.3568
vn -0.4911 -0.7947 -0.3568
vn 0.1876 -0.7947 -0.5774
vn 0.9822 -0.1876 0.0000
vn 0.3035 -0.1876 0.9342
vn -0.7946 -0.1876 0.5774
vn -0.7946 -0.1876 -0.5774
vn 0.3035 -0.1876 -0.9342
vn 0.7946 0.1876 0.5774
vn -0.3035 0.1876 0.9342
vn -0.9822 0.1876 0.0000
vn -0.3035 0.1876 -0.9342
vn 0.7946 0.1876 -0.5774
vn 0.4911 0.7947 0.3568
vn -0.1876 0.7947 0.5774
vn -0.6071 0.7947 0.0000
vn -0.1876 0.7947 -0.5774
vn 0.4911 0.7947 -0.3568
s off
f 1/1/1 2/2/1 3/3/1
f 2/2/2 1/1/2 6/4/2
f 1/1/3 3/3/3 4/5/3
f 1/1/4 4/5/4 5/6/4
f 1/1/5 5/6/5 6/4/5
f 2/7/6 6/8/6 11/9/6
f 3/10/7 2/11/7 7/12/7
f 4/13/8 3/14/8 8/15/8
f 5/16/9 4/13/9 9/17/9
f 6/18/10 5/19/10 10/20/10
f 2/7/11 11/9/11 7/21/11
f 3/10/12 7/12/12 8/22/12
f 4/13/13 8/15/13 9/17/13
f 5/19/14 9/23/14 10/20/14
f 6/8/15 10/24/15 11/9/15
f 7/25/16 11/26/16 12/27/16
f 8/28/17 7/29/17 12/30/17
f 9/31/18 8/28/18 12/30/18
f 10/32/19 9/31/19 12/30/19
f 11/33/20 10/32/20 12/30/20
f 13/34/1 14/35/1 15/36/1
f 14/35/2 13/34/2 18/37/2
f 13/34/3 15/36/3 16/38/3
f 13/34/4 16/38/4 17/39/4
f 13/34/5 17/39/5 18/37/5
f 14/40/6 18/41/6 23/42/6
f 15/43/7 14/44/7 19/45/7
f 16/46/8 15/47/8 20/48/8
f 17/49/9 16/50/9 21/51/9
f 18/52/10 17/53/10 22/54/10
f 14/40/11 23/42/11 19/55/11
f 15/43/12 19/45/12 20/56/12
f 16/46/13 20/48/13 21/57/13
f 17/53/14 21/58/14 22/54/14
f 18/59/15 22/60/15 23/61/15
f 19/62/16 23/63/16 24/64/16
f 20/65/17 19/62/17 24/64/17
f 21/66/18 20/67/18 24/68/18
f 22/69/19 21/66/19 24/68/19
f 23/70/20 22/71/20 24/72/20
f 25/73/1 26/74/1 27/75/1
f 26/76/2 25/77/2 30/78/2
f 25/73/3 27/75/3 28/79/3
f 25/73/4 28/79/4 29/80/4
f 25/73/5 29/80/5 30/81/5
f 26/82/6 30/83/6 35/84/6
f 27/85/7 26/86/7 31/87/7
f 28/88/8 27/89/8 32/90/8
f 29/91/9 28/88/9 33/92/9
f 30/93/10 29/94/10 34/95/10
f 26/82/11 35/84/11 31/96/11
f 27/85/12 31/87/12 32/97/12
f 28/88/13 32/90/13 33/92/13
f 29/94/14 33/98/14 34/95/14
f 30/99/15 34/100/15 35/101/15
f 31/102/16 35/103/16 36/104/16
f 32/105/17 31/102/17 36/104/17
f 33/106/18 32/107/18 36/108/18
f 34/109/19 33/106/19 36/108/19
f 35/110/20 34/109/20 36/108/20
f 37/111/1 38/112/1 39/113/1
f 38/114/2 37/115/2 42/116/2
f 37/111/3 39/113/3 40/117/3
f 37/111/4 40/117/4 41/118/4
f 37/111/5 41/118/5 42/119/5
f 38/120/6 42/121/6 47/122/6
f 39/123/7 38/124/7 43/125/7
f 40/126/8 39/127/8 44/128/8
f 41/129/9 40/126/9 45/130/9
f 42/131/10 41/132/10 46/133/10
f 38/120/11 47/122/11 43/134/11
f 39/123/12 43/125/12 44/135/12
f 40/126/13 44/128/13 45/130/13
f 41/132/14 45/136/14 46/133/14
f 42/137/15 46/138/15 47/139/15
f 43/140/16 47/141/16 48/142/16
f 44/143/17 43/140/17 48/142/17
f 45/144/18 44/145/18 48/146/18
f 46/147/19 45/144/19 48/146/19
f 47/148/20 46/147/20 48/146/20
f 49/149/1 50/150/1 51/151/1
f 50/150/2 49/149/2 54/152/2
f 49/149/3 51/151/3 52/153/3
f 49/149/4 52/153/4 53/154/4
f 49/149/5 53/154/5 54/152/5
f 50/155/6 54/156/6 59/157/6
f 51/158/7 50/159/7 55/160/7
f 52/161/8 51/162/8 56/163/8
f 53/164/9 52/161/9 57/165/9
f 54/166/10 53/167/10 58/168/10
f 50/155/11 59/157/11 55/169/11
f 51/158/12 55/160/12 56/170/12
f 52/161/13 56/163/13 57/165/13
f 53/167/14 57/171/14 58/168/14
f 54/156/15 58/172/15 59/157/15
f 55/173/16 59/174/16 60/175/16
f 56/176/17 55/173/17 60/175/17
f 57/177/18 56/176/18 60/175/18
f 58/178/19 57/177/19 60/175/19
f 59/174/20 58/178/20 60/175/20
