# Blender v2.77 (sub 0) OBJ File: 'table.blend'
# www.blender.org
o Cube
v -0.049598 0.079904 -0.493147
v -0.049598 0.079904 -0.506853
v 0.049598 0.079904 -0.506853
v 0.049598 0.079904 -0.493147
v -0.079360 0.489379 -0.493147
v -0.079360 0.489379 -0.506853
v 0.079360 0.489379 -0.506853
v 0.079360 0.489379 -0.493147
v 0.177913 0.602516 0.542859
v 0.277913 0.602516 0.542859
v -0.177913 0.602516 -0.522859
v -0.117512 -0.001416 -0.522859
v 0.177913 0.602516 -0.522859
v 0.117512 -0.001416 -0.522859
v 0.177913 0.602516 -0.477141
v 0.117512 -0.001416 -0.477141
v -0.117512 -0.001416 -0.477141
v -0.177913 0.602516 -0.477141
v -0.117512 -0.001416 -0.467141
v 0.117512 -0.001416 -0.467141
v -0.313566 -0.045821 -0.467141
v -0.313566 -0.001416 -0.467141
v 0.313566 -0.001416 -0.467141
v 0.313566 -0.045821 -0.467141
v 0.117512 -0.001416 -0.532859
v -0.117512 -0.001416 -0.532859
v -0.313566 -0.001416 -0.532859
v -0.313566 -0.045821 -0.532859
v 0.313566 -0.001416 -0.532859
v 0.313566 -0.045821 -0.532859
v -0.049598 0.079904 0.506853
v -0.049598 0.079904 0.493147
v 0.049598 0.079904 0.493147
v 0.049598 0.079904 0.506853
v -0.079360 0.489379 0.506853
v -0.079360 0.489379 0.493147
v 0.079360 0.489379 0.493147
v 0.079360 0.489379 0.506853
v -0.177913 0.602516 0.542859
v 0.277913 0.653732 0.542859
v -0.177913 0.602516 0.477141
v -0.117512 -0.001416 0.477141
v 0.177913 0.602516 0.477141
v 0.117512 -0.001416 0.477141
v 0.177913 0.602516 0.522859
v 0.117512 -0.001416 0.522859
v -0.117512 -0.001416 0.522859
v -0.177913 0.602516 0.522859
v -0.117512 -0.001416 0.532859
v 0.117512 -0.001416 0.532859
v -0.313566 -0.045821 0.532859
v -0.313566 -0.001416 0.532859
v 0.313566 -0.001416 0.532859
v 0.313566 -0.045821 0.532859
v 0.117512 -0.001416 0.467141
v -0.117512 -0.001416 0.467141
v -0.313566 -0.001416 0.467141
v -0.313566 -0.045821 0.467141
v 0.313566 -0.001416 0.467141
v 0.313566 -0.045821 0.467141
v -0.277913 0.602516 0.542859
v -0.277913 0.653732 0.542859
v 0.177913 0.602516 -0.542859
v -0.177913 0.602516 -0.542859
v 0.277913 0.653732 -0.542859
v 0.277913 0.602516 -0.542859
v -0.277913 0.653732 -0.542859
v -0.277913 0.602516 -0.542859
v -0.160186 0.047465 -0.378828
v -0.208141 0.526960 -0.378828
v -0.160186 0.047465 -0.370889
v -0.208141 0.526960 0.378828
v -0.160186 0.047465 0.378828
v -0.160186 0.047465 0.370889
v -0.117512 -0.032802 -0.467141
v 0.117512 -0.032802 -0.467141
v 0.117512 -0.032802 0.467141
v -0.117512 -0.032802 0.467141
vt 0.9229 0.1883
vt 0.9675 0.1636
vt 0.9675 0.1883
vt 0.7060 0.1632
vt 0.8341 0.2053
vt 0.7060 0.2053
vt 0.9989 0.1356
vt 0.9750 0.1483
vt 0.9750 0.1356
vt 0.7060 0.2053
vt 0.8341 0.2474
vt 0.7060 0.2474
vt 0.8436 0.1816
vt 0.8530 0.2421
vt 0.8436 0.2421
vt 0.7533 0.0513
vt 0.7533 0.0605
vt 0.7060 0.0605
vt 0.8436 0.1211
vt 0.8530 0.1816
vt 0.8436 0.1816
vt 0.8575 0.0000
vt 0.8575 0.0605
vt 0.8101 0.0092
vt 0.1343 1.0000
vt 0.0000 0.0000
vt 0.1343 0.0000
vt 0.6951 1.0000
vt 0.6842 0.0000
vt 0.6951 0.0000
vt 0.6951 0.0000
vt 0.7060 1.0000
vt 0.6951 1.0000
vt 0.8708 0.2537
vt 0.9229 0.2242
vt 0.9229 0.2606
vt 0.9229 0.1080
vt 0.8708 0.0785
vt 0.9229 0.0833
vt 0.8708 0.1444
vt 0.9229 0.1149
vt 0.9229 0.1514
vt 0.9750 0.2584
vt 0.9229 0.2698
vt 0.9229 0.2537
vt 0.7937 0.0366
vt 0.7697 0.0366
vt 0.9229 0.0490
vt 0.9750 0.0785
vt 0.9229 0.0737
vt 0.9750 0.1460
vt 0.9229 0.1636
vt 0.9229 0.1393
vt 0.9229 0.1325
vt 0.9750 0.1149
vt 0.9750 0.1393
vt 0.9675 0.1883
vt 0.9229 0.2130
vt 0.9229 0.1883
vt 0.9996 0.2824
vt 0.9612 0.2698
vt 0.9996 0.2698
vt 0.9878 0.2092
vt 0.9784 0.1797
vt 0.9878 0.1931
vt 0.8708 0.2606
vt 0.9033 0.2767
vt 0.8708 0.2767
vt 0.9844 0.0935
vt 0.9844 0.0801
vt 0.9938 0.0801
vt 0.8101 0.0513
vt 0.8101 0.2721
vt 0.8547 0.2474
vt 0.8547 0.2721
vt 0.7060 0.1211
vt 0.8341 0.1632
vt 0.7060 0.1632
vt 0.9989 0.1230
vt 0.9750 0.1356
vt 0.9750 0.1230
vt 0.8708 0.0000
vt 0.9990 0.0421
vt 0.8708 0.0421
vt 0.8341 0.1816
vt 0.8436 0.2421
vt 0.8341 0.2421
vt 0.7533 0.1118
vt 0.7533 0.1211
vt 0.7060 0.1211
vt 0.8341 0.1211
vt 0.8436 0.1816
vt 0.8341 0.1816
vt 0.8575 0.0605
vt 0.8575 0.1211
vt 0.8101 0.0697
vt 0.4770 0.9816
vt 0.3910 1.0000
vt 0.3910 0.9816
vt 0.9784 0.2177
vt 0.9675 0.2109
vt 0.9675 0.1865
vt 0.4770 0.9395
vt 0.4770 0.0605
vt 0.5011 0.0000
vt 0.9229 0.1080
vt 0.9750 0.0785
vt 0.9750 0.1149
vt 0.9229 0.1809
vt 0.8708 0.1514
vt 0.9229 0.1562
vt 0.8708 0.0716
vt 0.9229 0.0421
vt 0.9229 0.0785
vt 0.7697 0.0845
vt 0.7937 0.0845
vt 0.9750 0.2423
vt 0.9229 0.2537
vt 0.9229 0.2376
vt 0.9229 0.2173
vt 0.8708 0.1878
vt 0.9229 0.1926
vt 0.8101 0.2541
vt 0.7580 0.2717
vt 0.7580 0.2474
vt 0.7060 0.2650
vt 0.7580 0.2474
vt 0.7580 0.2717
vt 0.9675 0.2130
vt 0.9229 0.2376
vt 0.9229 0.2130
vt 0.9612 0.2824
vt 0.9229 0.2698
vt 0.9612 0.2698
vt 0.9844 0.1096
vt 0.9750 0.0801
vt 0.9844 0.0935
vt 0.7533 0.0697
vt 0.8101 0.0605
vt 0.9878 0.2521
vt 0.9878 0.2655
vt 0.9784 0.2655
vt 1.0000 0.1797
vt 0.9675 0.1636
vt 1.0000 0.1636
vt 0.9750 0.0801
vt 0.9750 0.0421
vt 0.9858 0.0489
vt 0.3910 0.0184
vt 0.4770 0.0000
vt 0.4770 0.0184
vt 0.6842 0.0000
vt 0.6842 1.0000
vt 0.6600 0.0605
vt 0.5011 0.6978
vt 0.5011 0.0000
vt 0.6033 0.6905
vt 0.1343 0.8789
vt 0.2469 0.7884
vt 0.2629 0.8789
vt 0.1343 0.0000
vt 0.2469 0.0906
vt 0.1448 0.0906
vt 0.2629 0.0000
vt 0.1343 0.8697
vt 0.1448 0.7811
vt 0.1448 0.7884
vt 0.3910 0.8697
vt 0.8575 0.0000
vt 0.8641 0.8605
vt 0.8575 0.8605
vt 0.9811 0.1931
vt 0.9811 0.2360
vt 0.9878 0.2360
vt 0.8641 0.0000
vt 0.8708 0.8605
vt 0.8641 0.8605
vt 0.6033 0.0000
vt 0.6600 0.8605
vt 0.6033 0.8605
vt 0.8641 0.0000
vt 0.8708 0.0000
vt 0.9229 0.1636
vt 0.8341 0.1632
vt 0.9989 0.1483
vt 0.8341 0.2053
vt 0.8530 0.1816
vt 0.7060 0.0000
vt 0.7533 0.0092
vt 0.7533 0.0000
vt 0.8530 0.1211
vt 0.8101 0.0000
vt 0.8101 0.0605
vt 0.0000 1.0000
vt 0.6842 1.0000
vt 0.7060 0.0000
vt 0.8708 0.2290
vt 0.8708 0.1149
vt 0.8708 0.1198
vt 0.9750 0.2651
vt 0.9750 0.0421
vt 0.9750 0.1569
vt 0.9229 0.1217
vt 0.9675 0.2130
vt 0.9612 0.2824
vt 0.9878 0.1797
vt 0.9878 0.2226
vt 0.9784 0.2226
vt 0.9033 0.2606
vt 0.9938 0.1230
vt 0.9844 0.1096
vt 0.9844 0.1230
vt 0.8101 0.2474
vt 0.8341 0.1211
vt 0.9989 0.1356
vt 0.9990 0.0000
vt 0.8436 0.1816
vt 0.7060 0.0605
vt 0.7533 0.0605
vt 0.8436 0.1211
vt 0.8101 0.1118
vt 0.8101 0.1211
vt 0.4770 1.0000
vt 0.9675 0.1797
vt 0.9784 0.1797
vt 0.9675 0.2177
vt 0.5011 1.0000
vt 0.3910 0.9395
vt 0.3910 0.0605
vt 0.9229 0.0833
vt 0.8708 0.1878
vt 0.8708 0.0469
vt 0.9750 0.2491
vt 0.8708 0.2242
vt 0.8101 0.2650
vt 0.7060 0.2541
vt 0.9675 0.2376
vt 0.9229 0.2824
vt 0.9844 0.0801
vt 0.9844 0.1230
vt 0.9750 0.1230
vt 0.9784 0.2226
vt 0.9878 0.2226
vt 0.9675 0.1797
vt 0.9858 0.0733
vt 0.9858 0.0801
vt 0.9858 0.0421
vt 0.3910 0.0000
vt 0.6600 0.9816
vt 0.6600 0.9395
vt 0.6600 0.0184
vt 0.6600 0.0000
vt 0.6600 1.0000
vt 0.6033 0.0073
vt 0.6033 0.6978
vt 0.6033 0.0000
vt 0.1343 0.0092
vt 0.1448 0.0979
vt 0.3910 0.0000
vt 0.3910 0.0092
vt 0.3910 0.8789
vt 0.9811 0.2092
vt 0.9811 0.2521
vt 0.6600 0.0000
vn -0.9974 0.0725 0.0000
vn 0.9950 -0.0995 0.0000
vn 0.0000 1.0000 0.0000
vn -0.9950 -0.0995 0.0000
vn -1.0000 0.0000 0.0000
vn 1.0000 0.0000 0.0000
vn 0.1804 0.0180 -0.9834
vn -0.2119 0.0154 -0.9772
vn -0.1804 0.0180 0.9834
vn 0.0000 0.1931 0.9812
vn 0.0000 0.1931 -0.9812
vn 0.2119 0.0154 0.9772
vn 0.0000 -0.1401 -0.9901
vn 0.0000 -0.1401 0.9901
vn 0.9974 0.0725 0.0000
vn 0.0000 -1.0000 0.0000
vn 0.0000 0.0000 1.0000
vn 0.0000 0.0000 -1.0000
vn 0.9950 0.0995 0.0000
vn 0.9294 0.0930 -0.3572
vn 0.9294 0.0930 0.3572
vn 0.9285 -0.3715 0.0000
vn 0.7533 0.6577 0.0000
vn 0.2119 0.0154 -0.9772
vn -0.1804 0.0180 -0.9834
vn -0.2119 0.0154 0.9772
vn 0.1804 0.0180 0.9834
s off
f 4/1/1 7/2/1 3/3/1
f 15/4/2 14/5/2 13/6/2
f 4/7/3 2/8/3 1/9/3
f 11/10/4 17/11/4 18/12/4
f 27/13/5 21/14/5 22/15/5
f 12/16/3 26/17/3 27/18/3
f 30/19/6 23/20/6 24/21/6
f 23/22/3 29/23/3 16/24/3
f 65/25/3 62/26/3 40/27/3
f 66/28/6 40/29/6 10/30/6
f 67/31/5 61/32/5 62/33/5
f 6/34/7 12/35/7 11/36/7
f 7/37/8 14/38/8 3/39/8
f 8/40/9 16/41/9 15/42/9
f 4/43/10 17/44/10 16/45/10
f 3/46/11 12/16/11 2/47/11
f 5/48/12 17/49/12 1/50/12
f 7/51/13 11/52/13 13/53/13
f 5/54/14 15/55/14 18/56/14
f 5/57/15 2/58/15 6/59/15
f 8/60/16 6/61/16 7/62/16
f 19/63/17 24/64/17 20/65/17
f 17/66/3 20/67/3 16/68/3
f 25/69/18 29/70/18 30/71/18
f 14/72/3 26/17/3 12/16/3
f 34/73/1 37/74/1 33/75/1
f 45/76/2 44/77/2 43/78/2
f 34/79/3 32/80/3 31/81/3
f 41/82/4 47/83/4 48/84/4
f 57/85/5 51/86/5 52/87/5
f 42/88/3 56/89/3 57/90/3
f 60/91/6 53/92/6 54/93/6
f 53/94/3 59/95/3 46/96/3
f 45/97/16 39/98/16 48/99/16
f 62/100/17 39/101/17 9/102/17
f 43/103/16 15/104/16 66/105/16
f 36/106/7 42/107/7 41/108/7
f 37/109/8 44/110/8 33/111/8
f 38/112/9 46/113/9 45/114/9
f 31/115/10 46/96/10 34/116/10
f 32/117/11 44/118/11 42/119/11
f 35/120/12 47/121/12 31/122/12
f 37/123/13 41/124/13 43/125/13
f 35/126/14 45/127/14 48/128/14
f 35/129/15 32/130/15 36/131/15
f 38/132/16 36/133/16 37/134/16
f 49/135/17 54/136/17 50/137/17
f 47/138/3 50/139/3 46/96/3
f 55/140/18 59/141/18 60/142/18
f 44/143/3 56/144/3 42/145/3
f 67/146/18 65/147/18 63/148/18
f 11/149/16 63/150/16 13/151/16
f 61/152/16 68/153/16 41/154/16
f 70/155/19 72/156/19 71/157/19
f 42/158/20 72/159/20 41/160/20
f 17/161/21 70/162/21 69/163/21
f 41/160/22 70/162/22 18/164/22
f 56/165/23 74/166/23 73/167/23
f 56/168/4 41/160/4 18/164/4
f 56/169/6 75/170/6 19/171/6
f 19/63/17 76/172/17 20/65/17
f 55/140/18 78/173/18 56/174/18
f 20/175/5 77/176/5 55/177/5
f 19/178/16 55/179/16 56/180/16
f 78/181/3 76/182/3 75/170/3
f 4/1/1 8/183/1 7/2/1
f 15/4/2 16/184/2 14/5/2
f 4/7/3 3/185/3 2/8/3
f 11/10/4 12/186/4 17/11/4
f 27/13/5 28/187/5 21/14/5
f 27/18/3 22/188/3 17/189/3
f 17/189/3 12/16/3 27/18/3
f 22/188/3 19/190/3 17/189/3
f 30/19/6 29/191/6 23/20/6
f 14/72/3 16/24/3 29/23/3
f 20/192/3 23/22/3 16/24/3
f 29/23/3 25/193/3 14/72/3
f 65/25/3 67/194/3 62/26/3
f 66/28/6 65/195/6 40/29/6
f 67/31/5 68/196/5 61/32/5
f 6/34/24 2/197/24 12/35/24
f 7/37/25 13/198/25 14/38/25
f 8/40/26 4/199/26 16/41/26
f 4/43/10 1/200/10 17/44/10
f 3/46/11 14/72/11 12/16/11
f 5/48/27 18/201/27 17/49/27
f 7/51/13 6/202/13 11/52/13
f 5/54/14 8/203/14 15/55/14
f 5/57/15 1/204/15 2/58/15
f 8/60/16 5/205/16 6/61/16
f 23/206/17 20/65/17 24/64/17
f 19/63/17 22/207/17 21/208/17
f 21/208/17 24/64/17 19/63/17
f 17/66/3 19/209/3 20/67/3
f 30/71/18 28/210/18 26/211/18
f 26/211/18 25/69/18 30/71/18
f 28/210/18 27/212/18 26/211/18
f 14/72/3 25/193/3 26/17/3
f 34/73/1 38/213/1 37/74/1
f 45/76/2 46/214/2 44/77/2
f 34/79/3 33/215/3 32/80/3
f 41/82/4 42/216/4 47/83/4
f 57/85/5 58/217/5 51/86/5
f 57/90/3 52/218/3 47/138/3
f 47/138/3 42/88/3 57/90/3
f 52/218/3 49/219/3 47/138/3
f 60/91/6 59/220/6 53/92/6
f 44/221/3 46/96/3 59/95/3
f 50/139/3 53/94/3 46/96/3
f 59/95/3 55/222/3 44/221/3
f 45/97/16 9/223/16 39/98/16
f 10/224/17 40/225/17 9/102/17
f 62/100/17 61/226/17 39/101/17
f 9/102/17 40/225/17 62/100/17
f 66/105/16 10/227/16 43/103/16
f 10/227/16 9/223/16 45/97/16
f 13/151/16 63/150/16 66/105/16
f 41/228/16 18/229/16 15/104/16
f 15/104/16 13/151/16 66/105/16
f 10/227/16 45/97/16 43/103/16
f 43/103/16 41/228/16 15/104/16
f 36/106/24 32/230/24 42/107/24
f 37/109/25 43/231/25 44/110/25
f 38/112/26 34/232/26 46/113/26
f 31/115/10 47/138/10 46/96/10
f 32/117/11 33/233/11 44/118/11
f 35/120/27 48/234/27 47/121/27
f 37/123/13 36/235/13 41/124/13
f 35/126/14 38/236/14 45/127/14
f 35/129/15 31/237/15 32/130/15
f 38/132/16 35/238/16 36/133/16
f 53/239/17 50/137/17 54/136/17
f 49/135/17 52/240/17 51/241/17
f 51/241/17 54/136/17 49/135/17
f 47/138/3 49/219/3 50/139/3
f 60/142/18 58/242/18 56/174/18
f 56/174/18 55/140/18 60/142/18
f 58/242/18 57/243/18 56/174/18
f 44/143/3 55/244/3 56/144/3
f 63/148/18 64/245/18 67/146/18
f 68/246/18 67/146/18 64/245/18
f 65/147/18 66/247/18 63/148/18
f 11/149/16 64/248/16 63/150/16
f 11/249/16 18/250/16 68/153/16
f 48/251/16 39/252/16 61/152/16
f 18/250/16 41/154/16 68/153/16
f 68/153/16 64/253/16 11/249/16
f 48/251/16 61/152/16 41/154/16
f 74/254/19 71/157/19 72/156/19
f 69/255/19 70/155/19 71/157/19
f 72/156/19 73/256/19 74/254/19
f 42/158/20 73/167/20 72/159/20
f 17/161/21 18/164/21 70/162/21
f 41/160/22 72/159/22 70/162/22
f 19/257/23 17/161/23 69/163/23
f 71/258/23 74/166/23 56/165/23
f 19/257/23 69/163/23 71/258/23
f 73/167/23 42/158/23 56/165/23
f 56/165/23 19/257/23 71/258/23
f 18/164/4 17/259/4 19/260/4
f 19/260/4 56/168/4 18/164/4
f 42/261/4 41/160/4 56/168/4
f 56/169/6 78/181/6 75/170/6
f 19/63/17 75/262/17 76/172/17
f 55/140/18 77/263/18 78/173/18
f 20/175/5 76/182/5 77/176/5
f 19/178/16 20/264/16 55/179/16
f 78/181/3 77/263/3 76/182/3
