# Blender v2.78 (sub 0) OBJ File: 'treePine.blend'
# www.blender.org
o Cone
v 0.000000 0.014214 -0.200000
v 0.000000 1.014214 -0.150000
v 0.173205 0.014214 -0.100000
v 0.129904 1.014214 -0.075000
v 0.173205 0.014214 0.100000
v 0.129904 1.014214 0.075000
v -0.000000 0.014214 0.200000
v -0.000000 1.014214 0.150000
v -0.173205 0.014214 0.100000
v -0.129904 1.014214 0.075000
v -0.173205 0.014214 -0.100000
v -0.129904 1.014214 -0.075000
v 0.000000 2.514214 -0.400000
v 0.346410 2.514214 -0.200000
v 0.346410 2.514214 0.200000
v -0.000000 2.514214 0.400000
v 0.000000 3.114213 0.000000
v -0.346410 2.514214 0.200000
v -0.346410 2.514214 -0.200000
v 0.000000 1.814214 -0.600000
v 0.000000 2.514214 -0.250000
v 0.519615 1.814214 -0.300000
v 0.216506 2.514214 -0.125000
v 0.519615 1.814214 0.300000
v 0.216506 2.514214 0.125000
v -0.000000 1.814214 0.600000
v -0.000000 2.514214 0.250000
v -0.519615 1.814214 0.300000
v -0.216506 2.514214 0.125000
v -0.519615 1.814214 -0.300000
v -0.216506 2.514214 -0.125000
v 0.000000 1.014214 -0.800000
v 0.000000 1.814214 -0.400000
v 0.692820 1.014214 -0.400000
v 0.346410 1.814214 -0.200000
v 0.692820 1.014214 0.400000
v 0.346410 1.814214 0.200000
v -0.000000 1.014214 0.800000
v -0.000000 1.814214 0.400000
v -0.692820 1.014214 0.400000
v -0.346410 1.814214 0.200000
v -0.692820 1.014214 -0.400000
v -0.346410 1.814214 -0.200000
vt 0.8294 1.0000
vt 0.8817 0.8193
vt 0.9340 1.0000
vt 0.8386 0.4316
vt 0.9804 0.3180
vt 0.8801 0.4765
vt 0.9804 0.5063
vt 1.0000 0.6360
vt 1.0000 0.8193
vt 0.9396 0.6412
vt 0.8543 0.7025
vt 0.8294 0.7586
vt 0.0905 0.9540
vt 0.0905 0.7420
vt 0.1811 0.7950
vt 0.2268 0.7420
vt 0.3379 0.9437
vt 0.1811 0.9437
vt 0.4021 0.5697
vt 0.6203 0.5830
vt 0.5742 0.6625
vt 0.4214 0.5366
vt 0.6203 0.4240
vt 0.6665 0.3180
vt 0.8193 0.4439
vt 0.6203 0.3975
vt 0.6203 0.8997
vt 0.7335 0.8997
vt 0.6203 0.9659
vt 0.6203 0.5565
vt 0.8386 0.5432
vt 0.6665 0.6360
vt 0.0000 0.5035
vt 0.1358 0.4240
vt 0.2716 0.6625
vt 0.6203 0.8666
vt 0.7772 0.6360
vt 0.8294 0.8666
vt 0.8170 0.3180
vt 0.6511 0.1590
vt 0.8785 0.2120
vt 0.6511 0.0530
vt 0.8785 0.0000
vt 0.6203 0.1060
vt 0.3621 0.1060
vt 0.4237 0.0000
vt 0.5832 0.7155
vt 0.4927 0.8745
vt 0.4021 0.7155
vt 0.5896 0.1590
vt 0.3621 0.3180
vt 0.6203 0.3180
vt 0.4237 0.4240
vt 0.1811 0.4240
vt 0.0000 0.1060
vt 0.3621 0.1060
vt 0.1811 0.9010
vt 0.0000 0.9010
vt 0.0000 0.7950
vt 0.2921 0.7420
vt 0.4214 0.4704
vt 0.8386 0.4107
vt 0.6769 0.9991
vt 0.6769 0.8666
vt 0.7335 0.9659
vt 0.8193 0.5101
vt 0.1358 0.7420
vt 0.0000 0.6625
vt 0.2716 0.5035
vt 0.6726 0.6360
vt 0.6203 0.2120
vt 0.4927 0.6625
vt 0.5832 0.8215
vt 0.4021 0.8215
vt 0.5896 0.2650
vt 0.3621 0.3180
vt 0.0000 0.3180
vt 0.1811 0.0000
vt 0.3564 0.6888
vt 0.4021 0.9419
vt 0.3498 0.9419
vt 0.8916 0.0000
vt 0.9047 0.2648
vt 0.8785 0.2492
vt 0.9112 0.0117
vt 0.9569 0.2648
vt 0.4021 0.4396
vt 0.3694 0.6771
vt 0.3760 0.4240
vt 0.7675 0.8666
vt 0.8014 0.9262
vt 0.7335 0.9262
vt 0.3237 0.4240
vt 0.3302 0.6771
vt 0.2976 0.4396
vt 0.8838 0.5063
vt 0.8838 0.6123
vt 0.8386 0.5858
vt 0.3956 0.6888
vt 0.9504 0.0117
vt 0.3890 0.6888
vt 0.7335 0.8864
vt 0.8014 0.8864
vt 0.7675 0.9461
vt 0.3106 0.6888
vt 0.8386 0.5328
vt 0.9291 0.5328
vt 0.9291 0.5858
vn 0.4330 0.5000 -0.7500
vn 0.8660 0.5000 0.0000
vn 0.4330 0.5000 0.7500
vn -0.4330 0.5000 0.7500
vn -0.8660 0.5000 0.0000
vn -0.4330 0.5000 -0.7500
vn 0.0000 -1.0000 0.0000
vn 0.4588 0.3974 -0.7947
vn 0.9177 0.3974 0.0000
vn 0.4588 0.3974 0.7947
vn -0.4588 0.3974 0.7947
vn 0.0000 1.0000 0.0000
vn -0.9177 0.3974 0.0000
vn -0.4588 0.3974 -0.7947
vn 0.4995 0.0433 -0.8652
vn 0.9991 0.0433 0.0000
vn 0.4995 0.0433 0.8652
vn -0.4995 0.0433 0.8652
vn -0.9991 0.0433 0.0000
vn -0.4995 0.0433 -0.8652
s off
f 13/1/1 17/2/1 14/3/1
f 14/4/2 17/5/2 15/6/2
f 15/6/3 17/5/3 16/7/3
f 16/8/4 17/9/4 18/10/4
f 18/10/5 17/9/5 19/11/5
f 19/11/6 17/9/6 13/12/6
f 14/13/7 18/14/7 19/15/7
f 21/16/8 22/17/8 20/18/8
f 23/19/9 24/20/9 22/21/9
f 25/22/10 26/23/10 24/20/10
f 26/24/11 29/25/11 28/26/11
f 21/27/12 29/28/12 23/29/12
f 29/25/13 30/30/13 28/26/13
f 30/30/14 21/31/14 20/32/14
f 24/33/7 26/34/7 30/35/7
f 32/36/8 35/37/8 34/38/8
f 34/39/9 37/40/9 36/41/9
f 36/41/10 39/42/10 38/43/10
f 39/44/11 40/45/11 38/46/11
f 33/47/12 41/48/12 37/49/12
f 41/50/13 42/51/13 40/45/13
f 42/51/14 33/52/14 32/53/14
f 34/54/7 38/55/7 42/56/7
f 19/15/7 13/57/7 14/13/7
f 14/13/7 15/58/7 16/59/7
f 16/59/7 18/14/7 14/13/7
f 21/16/8 23/60/8 22/17/8
f 23/19/9 25/22/9 24/20/9
f 25/22/10 27/61/10 26/23/10
f 26/24/11 27/62/11 29/25/11
f 25/63/12 23/29/12 29/28/12
f 21/27/12 31/64/12 29/28/12
f 29/28/12 27/65/12 25/63/12
f 29/25/13 31/66/13 30/30/13
f 30/30/14 31/66/14 21/31/14
f 30/35/7 20/67/7 22/68/7
f 22/68/7 24/33/7 30/35/7
f 26/34/7 28/69/7 30/35/7
f 32/36/8 33/70/8 35/37/8
f 34/39/9 35/71/9 37/40/9
f 36/41/10 37/40/10 39/42/10
f 39/44/11 41/50/11 40/45/11
f 37/49/12 35/72/12 33/47/12
f 33/47/12 43/73/12 41/48/12
f 41/48/12 39/74/12 37/49/12
f 41/50/13 43/75/13 42/51/13
f 42/51/14 43/75/14 33/52/14
f 42/56/7 32/76/7 34/54/7
f 34/54/7 36/77/7 38/55/7
f 38/55/7 40/78/7 42/56/7
f 2/79/15 3/80/15 1/81/15
f 4/82/16 5/83/16 3/84/16
f 6/85/17 7/86/17 5/83/17
f 7/87/18 10/88/18 9/89/18
f 2/90/12 10/91/12 6/92/12
f 10/88/19 11/93/19 9/89/19
f 12/94/20 1/95/20 11/93/20
f 3/96/7 9/97/7 11/98/7
f 2/79/15 4/99/15 3/80/15
f 4/82/16 6/85/16 5/83/16
f 6/85/17 8/100/17 7/86/17
f 7/87/18 8/101/18 10/88/18
f 6/92/12 4/102/12 2/90/12
f 2/90/12 12/103/12 10/91/12
f 10/91/12 8/104/12 6/92/12
f 10/88/19 12/94/19 11/93/19
f 12/94/20 2/105/20 1/95/20
f 11/98/7 1/106/7 3/96/7
f 3/96/7 5/107/7 7/108/7
f 7/108/7 9/97/7 3/96/7
