# Blender v2.77 (sub 0) OBJ File: 'treePine.blend'
# www.blender.org
o Cylinder.001_Cylinder.003
v 0.061535 0.002391 -0.088155
v 0.061535 0.387674 -0.088155
v 0.105464 0.002391 0.003280
v 0.105464 0.387674 0.003280
v 0.070710 0.002391 0.077937
v 0.070710 0.387674 0.077937
v -0.027539 0.002391 0.103184
v -0.027539 0.387674 0.103184
v -0.103116 0.002391 0.035520
v -0.103116 0.387674 0.035520
v -0.106561 0.002391 -0.026851
v -0.106561 0.387674 -0.026851
v -0.038897 0.002391 -0.102428
v -0.038897 0.387674 -0.102428
v 0.145649 0.310625 -0.614158
v -0.331928 0.310625 -0.540338
v -0.634843 0.310625 -0.027898
v -0.469270 0.310625 0.426100
v -0.004032 0.931230 -0.000762
v 0.092419 0.310625 0.623222
v -0.204807 0.695199 -0.275523
v -0.332845 0.698130 -0.117067
v 0.019203 1.220838 0.023711
v 0.568377 0.310625 0.265709
v 0.589146 0.310625 -0.217093
v 0.123974 0.682927 -0.310443
v 0.335515 0.671499 -0.056304
v 0.182660 1.010248 -0.108723
v 0.285020 0.670086 0.207496
v 0.206137 1.004877 0.131950
v -0.005442 0.679303 0.365654
v -0.254125 0.690211 0.264758
v -0.330944 0.694628 0.151496
v 0.190946 1.003203 0.007980
v 0.036709 1.024237 0.246136
v 0.068015 1.461241 0.034066
v -0.151499 1.047892 0.167795
v -0.191196 1.054818 -0.033439
v -0.151431 1.050779 -0.108382
v -0.047098 1.038858 -0.178697
v 0.036815 1.028765 -0.187108
vt 0.8984 0.9932
vt 0.9252 0.8529
vt 0.9252 1.0000
vt 0.2062 0.7730
vt 0.1689 0.9247
vt 0.1689 0.7730
vt 0.9478 0.3445
vt 0.9105 0.4888
vt 0.9105 0.3436
vt 0.8683 0.9941
vt 0.8984 0.8461
vt 0.1481 0.9247
vt 0.1481 0.7730
vt 0.2225 0.7730
vt 0.2062 0.9247
vt 0.8921 0.4788
vt 0.8921 0.3336
vt 0.7389 0.5798
vt 0.7925 0.5972
vt 0.7614 0.6593
vt 0.7925 0.6130
vt 0.8133 0.5798
vt 0.8669 0.5972
vt 0.4363 0.2078
vt 0.5838 0.0742
vt 0.7359 0.3336
vt 0.2281 0.5244
vt 0.2281 0.7730
vt 0.0347 0.6625
vt 0.4363 0.4530
vt 0.7181 0.3336
vt 0.5600 0.5802
vt 0.4079 0.4758
vt 0.4307 0.7203
vt 0.2281 0.7203
vt 0.7181 0.6786
vt 0.7359 0.0000
vt 0.0000 0.4758
vt 0.8921 0.5798
vt 0.7969 0.3592
vt 0.8921 0.3336
vt 0.2988 0.0000
vt 0.4363 0.3552
vt 0.0839 0.4300
vt 0.9254 0.6786
vt 1.0000 0.8461
vt 0.9397 0.8433
vt 0.4240 0.7914
vt 0.2281 0.8536
vt 0.4250 0.7203
vt 0.7771 0.1907
vt 0.8110 0.3334
vt 0.7359 0.3334
vt 0.8683 0.6786
vt 0.7747 0.9000
vt 0.6790 0.8288
vt 0.7181 0.4104
vt 0.8683 0.9301
vt 0.4363 0.7973
vt 0.4830 0.7040
vt 0.6259 0.6890
vt 0.4250 0.9433
vt 0.4240 0.8437
vt 0.7852 0.0200
vt 0.8652 0.1907
vt 0.7359 0.0608
vt 0.9291 0.1791
vt 0.9866 0.0000
vt 0.9866 0.1914
vt 0.8287 0.0034
vt 0.8652 0.0000
vt 0.9010 0.1672
vt 0.8718 0.1467
vt 0.8683 0.8461
vt 0.0298 0.7874
vt 0.0583 0.9424
vt 0.0173 0.9190
vt 0.8414 0.2962
vt 0.8110 0.1984
vt 0.8414 0.1907
vt 0.9478 0.4897
vt 0.8683 0.8470
vt 0.2225 0.9247
vt 0.7324 0.6499
vt 0.7181 0.6130
vt 0.7762 0.5798
vt 0.7925 0.6372
vt 0.8669 0.6372
vt 0.8358 0.6593
vt 0.8013 0.6440
vt 0.8506 0.5798
vt 0.0000 0.2621
vt 0.0839 0.0456
vt 0.4363 0.1208
vt 0.2988 0.4758
vt 0.6790 0.7457
vt 0.6790 0.8760
vt 0.5776 0.9484
vt 0.4830 0.9177
vt 0.5274 0.6786
vt 0.8652 0.1345
vt 0.0000 0.8912
vt 0.0002 0.8258
vt 0.0743 0.7730
vt 0.1409 0.8110
vt 0.1481 0.8912
vt 0.0896 0.9424
vn 0.9014 0.0000 -0.4331
vn -0.6670 0.0000 0.7450
vn 0.1407 0.0000 -0.9901
vn 0.9066 0.0000 0.4220
vn 0.2489 0.0000 0.9685
vn -0.9985 0.0000 0.0552
vn -0.7450 0.0000 -0.6670
vn 0.0000 1.0000 0.0000
vn 0.0000 -1.0000 -0.0000
vn 0.4965 0.6678 -0.5545
vn -0.6407 0.6678 -0.3788
vn 0.7280 0.6849 0.0313
vn -0.2465 0.6678 0.7023
vn 0.4470 0.6678 0.5951
vn -0.1113 0.6849 -0.7201
vn -0.6845 0.6849 0.2497
vn 0.8647 0.4734 0.1680
vn -0.8423 0.5067 0.1836
vn -0.8310 0.5561 0.0131
vn -0.6347 0.5685 -0.5234
vn -0.0714 0.5163 -0.8534
vn 0.4343 0.4667 0.7704
vn 0.6865 0.4754 -0.5501
vn -0.0387 -0.9992 -0.0128
vn -0.3018 0.5188 0.7999
vn 0.5530 0.3313 0.7644
vn 0.4755 0.3731 -0.7967
vn 0.9637 0.2616 -0.0526
vn -0.4453 0.4966 -0.7450
vn -0.2992 0.4339 0.8498
vn -0.1295 -0.9913 -0.0241
vn -0.0341 0.4570 -0.8888
vn -0.7329 0.5369 -0.4178
vn -0.6730 0.5640 0.4785
vn 0.9570 0.2637 -0.1208
vn -0.0977 -0.9938 -0.0531
vn -0.0967 -0.9950 0.0253
vn -0.1269 -0.9919 0.0054
vn -0.1321 -0.9911 -0.0167
vn -0.1226 -0.9919 -0.0331
vn -0.1330 -0.9911 -0.0079
s off
f 4/1/1 1/2/1 2/3/1
f 10/4/2 7/5/2 8/6/2
f 2/7/3 13/8/3 14/9/3
f 6/10/4 3/11/4 4/1/4
f 8/6/5 5/12/5 6/13/5
f 12/14/6 9/15/6 10/4/6
f 14/9/7 11/16/7 12/17/7
f 14/18/8 10/19/8 6/20/8
f 5/21/9 7/22/9 11/23/9
f 25/24/10 15/25/10 19/26/10
f 19/27/11 16/28/11 17/29/11
f 25/30/12 19/31/12 24/32/12
f 19/33/13 18/34/13 20/35/13
f 19/31/14 20/36/14 24/32/14
f 19/26/15 15/25/15 16/37/15
f 19/27/16 17/29/16 18/38/16
f 23/39/17 29/40/17 27/41/17
f 18/42/9 16/43/9 25/44/9
f 36/45/18 38/46/18 37/47/18
f 33/48/19 23/49/19 22/50/19
f 23/51/20 21/52/20 22/53/20
f 23/54/21 26/55/21 21/56/21
f 29/40/22 23/39/22 31/57/22
f 26/55/23 23/54/23 27/58/23
f 31/59/24 32/60/24 22/61/24
f 31/62/25 23/49/25 32/63/25
f 30/64/26 36/65/26 35/66/26
f 41/67/27 36/68/27 28/69/27
f 36/65/28 34/70/28 28/71/28
f 40/72/29 39/73/29 36/68/29
f 36/45/30 37/47/30 35/74/30
f 34/75/31 39/76/31 40/77/31
f 40/72/32 36/68/32 41/67/32
f 39/73/29 36/68/29 40/72/29
f 36/78/33 39/79/33 38/80/33
f 4/1/1 3/11/1 1/2/1
f 10/4/2 9/15/2 7/5/2
f 2/7/3 1/81/3 13/8/3
f 6/10/4 5/82/4 3/11/4
f 8/6/5 7/5/5 5/12/5
f 12/14/6 11/83/6 9/15/6
f 14/9/7 13/8/7 11/16/7
f 4/84/8 2/85/8 14/18/8
f 14/18/8 12/86/8 10/19/8
f 10/19/8 8/87/8 6/20/8
f 6/20/8 4/84/8 14/18/8
f 13/88/9 1/89/9 3/90/9
f 3/90/9 5/21/9 11/23/9
f 7/22/9 9/91/9 11/23/9
f 11/23/9 13/88/9 3/90/9
f 24/92/9 20/93/9 18/42/9
f 18/42/9 17/94/9 16/43/9
f 16/43/9 15/95/9 25/44/9
f 25/44/9 24/92/9 18/42/9
f 33/48/34 32/63/34 23/49/34
f 22/61/24 21/96/24 26/97/24
f 26/97/24 27/98/24 29/99/24
f 29/99/24 31/59/24 22/61/24
f 32/60/24 33/100/24 22/61/24
f 22/61/24 26/97/24 29/99/24
f 36/65/35 30/64/35 34/70/35
f 38/101/33 36/68/33 39/73/33
f 41/67/32 40/72/32 36/68/32
f 41/102/36 28/103/36 34/75/36
f 34/75/37 30/104/37 35/105/37
f 35/105/38 37/106/38 34/75/38
f 38/107/39 39/76/39 34/75/39
f 40/77/40 41/102/40 34/75/40
f 34/75/41 37/106/41 38/107/41
