# Blender v2.78 (sub 0) OBJ File: 'treePine.blend'
# www.blender.org
o Cone
v 0.000000 0.000000 -0.750000
v 0.000000 3.750000 -0.562500
v 0.649519 0.000000 -0.375000
v 0.487139 3.750000 -0.281250
v 0.649519 0.000000 0.375000
v 0.487139 3.750000 0.281250
v -0.000000 0.000000 0.750000
v -0.000000 3.750000 0.562500
v -0.649519 0.000000 0.375000
v -0.487139 3.750000 0.281250
v -0.649519 0.000000 -0.375000
v -0.487139 3.750000 -0.281250
v 0.000000 9.375000 -1.500000
v 1.299038 9.375000 -0.750000
v 1.299038 9.375000 0.750000
v -0.000000 9.375000 1.500000
v 0.000000 11.625000 0.000000
v -1.299038 9.375000 0.750000
v -1.299038 9.375000 -0.750000
v 0.000000 6.750000 -2.250000
v 0.000000 9.375000 -0.937500
v 1.948557 6.750000 -1.125000
v 0.811899 9.375000 -0.468750
v 1.948557 6.750000 1.125000
v 0.811899 9.375000 0.468750
v -0.000000 6.750000 2.250000
v -0.000000 9.375000 0.937500
v -1.948557 6.750000 1.125000
v -0.811899 9.375000 0.468750
v -1.948557 6.750000 -1.125000
v -0.811899 9.375000 -0.468750
v 0.000000 3.750000 -3.000000
v 0.000000 6.750000 -1.500000
v 2.598076 3.750000 -1.500000
v 1.299038 6.750000 -0.750000
v 2.598076 3.750000 1.500000
v 1.299038 6.750000 0.750000
v -0.000000 3.750000 3.000000
v -0.000000 6.750000 1.500000
v -2.598076 3.750000 1.500000
v -1.299038 6.750000 0.750000
v -2.598076 3.750000 -1.500000
v -1.299038 6.750000 -0.750000
vt 0.8294 1.0000
vt 0.8817 0.8193
vt 0.9340 1.0000
vt 0.8386 0.4316
vt 0.9804 0.3180
vt 0.8801 0.4765
vt 0.9804 0.5063
vt 1.0000 0.6360
vt 1.0000 0.8193
vt 0.9396 0.6412
vt 0.8543 0.7025
vt 0.8294 0.7586
vt 0.0905 0.9540
vt 0.0000 0.7950
vt 0.1811 0.9010
vt 0.2268 0.7420
vt 0.3379 0.9437
vt 0.1811 0.9437
vt 0.4021 0.5697
vt 0.6203 0.5830
vt 0.5742 0.6625
vt 0.4214 0.5366
vt 0.6203 0.4240
vt 0.8386 0.4107
vt 0.6203 0.3975
vt 0.6665 0.3180
vt 0.6203 0.8997
vt 0.7335 0.9659
vt 0.6769 0.9991
vt 0.8193 0.4439
vt 0.6203 0.5565
vt 0.8193 0.5101
vt 0.6665 0.6360
vt 0.0000 0.6625
vt 0.1358 0.4240
vt 0.2716 0.6625
vt 0.6203 0.8666
vt 0.7772 0.6360
vt 0.8294 0.8666
vt 0.6203 0.2120
vt 0.8785 0.2120
vt 0.8170 0.3180
vt 0.6511 0.1590
vt 0.8785 0.0000
vt 0.4237 0.0000
vt 0.5896 0.1590
vt 0.3621 0.1060
vt 0.5832 0.7155
vt 0.4021 0.8215
vt 0.4021 0.7155
vt 0.3621 0.3180
vt 0.5896 0.2650
vt 0.4237 0.4240
vt 0.1811 0.4240
vt 0.0000 0.1060
vt 0.3621 0.3180
vt 0.1811 0.7950
vt 0.0000 0.9010
vt 0.0905 0.7420
vt 0.2921 0.7420
vt 0.4214 0.4704
vt 0.6203 0.9659
vt 0.6769 0.8666
vt 0.7335 0.8997
vt 0.8386 0.5432
vt 0.1358 0.7420
vt 0.0000 0.5035
vt 0.2716 0.5035
vt 0.6726 0.6360
vt 0.6511 0.0530
vt 0.6203 0.1060
vt 0.4927 0.6625
vt 0.5832 0.8215
vt 0.4927 0.8745
vt 0.6203 0.3180
vt 0.3621 0.1060
vt 0.0000 0.3180
vt 0.1811 0.0000
vt 0.3564 0.6888
vt 0.4021 0.9419
vt 0.3498 0.9419
vt 0.8916 0.0000
vt 0.9047 0.2648
vt 0.8785 0.2492
vt 0.9112 0.0117
vt 0.9569 0.2648
vt 0.3890 0.6888
vt 0.3760 0.4240
vt 0.4021 0.4396
vt 0.7675 0.8666
vt 0.7675 0.9461
vt 0.7335 0.9262
vt 0.3694 0.6771
vt 0.3237 0.4240
vt 0.3106 0.6888
vt 0.2976 0.4396
vt 0.8838 0.5063
vt 0.9291 0.5858
vt 0.8386 0.5328
vt 0.3956 0.6888
vt 0.9504 0.0117
vt 0.7335 0.8864
vt 0.8014 0.8864
vt 0.8014 0.9262
vt 0.3302 0.6771
vt 0.8386 0.5858
vt 0.9291 0.5328
vt 0.8838 0.6123
vn 0.4330 0.5000 -0.7500
vn 0.8660 0.5000 0.0000
vn 0.4330 0.5000 0.7500
vn -0.4330 0.5000 0.7500
vn -0.8660 0.5000 0.0000
vn -0.4330 0.5000 -0.7500
vn 0.0000 -1.0000 -0.0000
vn 0.4588 0.3974 -0.7947
vn 0.9177 0.3974 0.0000
vn 0.4588 0.3974 0.7947
vn -0.4588 0.3974 0.7947
vn 0.0000 1.0000 0.0000
vn -0.9177 0.3974 0.0000
vn -0.4588 0.3974 -0.7947
vn 0.4995 0.0433 -0.8652
vn 0.9991 0.0433 0.0000
vn 0.4995 0.0433 0.8652
vn -0.4995 0.0433 0.8652
vn -0.9991 0.0433 0.0000
vn -0.4995 0.0433 -0.8652
s off
f 13/1/1 17/2/1 14/3/1
f 14/4/2 17/5/2 15/6/2
f 15/6/3 17/5/3 16/7/3
f 16/8/4 17/9/4 18/10/4
f 18/10/5 17/9/5 19/11/5
f 19/11/6 17/9/6 13/12/6
f 14/13/7 16/14/7 13/15/7
f 21/16/8 22/17/8 20/18/8
f 23/19/9 24/20/9 22/21/9
f 25/22/10 26/23/10 24/20/10
f 27/24/11 28/25/11 26/26/11
f 21/27/12 27/28/12 25/29/12
f 29/30/13 30/31/13 28/25/13
f 31/32/14 20/33/14 30/31/14
f 22/34/7 26/35/7 30/36/7
f 32/37/8 35/38/8 34/39/8
f 35/40/9 36/41/9 34/42/9
f 37/43/10 38/44/10 36/41/10
f 38/45/11 41/46/11 40/47/11
f 33/48/12 39/49/12 37/50/12
f 41/46/13 42/51/13 40/47/13
f 43/52/14 32/53/14 42/51/14
f 34/54/7 38/55/7 32/56/7
f 19/57/7 13/15/7 16/14/7
f 14/13/7 15/58/7 16/14/7
f 16/14/7 18/59/7 19/57/7
f 21/16/8 23/60/8 22/17/8
f 23/19/9 25/22/9 24/20/9
f 25/22/10 27/61/10 26/23/10
f 27/24/11 29/30/11 28/25/11
f 25/29/12 23/62/12 21/27/12
f 21/27/12 31/63/12 29/64/12
f 29/64/12 27/28/12 21/27/12
f 29/30/13 31/32/13 30/31/13
f 31/32/14 21/65/14 20/33/14
f 30/36/7 20/66/7 22/34/7
f 22/34/7 24/67/7 26/35/7
f 26/35/7 28/68/7 30/36/7
f 32/37/8 33/69/8 35/38/8
f 35/40/9 37/43/9 36/41/9
f 37/43/10 39/70/10 38/44/10
f 38/45/11 39/71/11 41/46/11
f 37/50/12 35/72/12 33/48/12
f 33/48/12 43/73/12 41/74/12
f 41/74/12 39/49/12 33/48/12
f 41/46/13 43/52/13 42/51/13
f 43/52/14 33/75/14 32/53/14
f 42/76/7 32/56/7 38/55/7
f 34/54/7 36/77/7 38/55/7
f 38/55/7 40/78/7 42/76/7
f 2/79/15 3/80/15 1/81/15
f 4/82/16 5/83/16 3/84/16
f 6/85/17 7/86/17 5/83/17
f 8/87/18 9/88/18 7/89/18
f 2/90/12 8/91/12 6/92/12
f 10/93/19 11/94/19 9/88/19
f 11/94/20 2/95/20 1/96/20
f 3/97/7 7/98/7 1/99/7
f 2/79/15 4/100/15 3/80/15
f 4/82/16 6/85/16 5/83/16
f 6/85/17 8/101/17 7/86/17
f 8/87/18 10/93/18 9/88/18
f 6/92/12 4/102/12 2/90/12
f 2/90/12 12/103/12 10/104/12
f 10/104/12 8/91/12 2/90/12
f 10/93/19 12/105/19 11/94/19
f 11/94/20 12/105/20 2/95/20
f 11/106/7 1/99/7 7/98/7
f 3/97/7 5/107/7 7/98/7
f 7/98/7 9/108/7 11/106/7
