# Blender v2.77 (sub 0) OBJ File: 'treeMaple.blend'
# www.blender.org
o Cylinder.001
v 0.000000 -0.212242 0.000000
v 0.000000 -0.212242 -0.322750
v 0.000000 0.312985 -0.176193
v 0.279510 -0.212242 -0.161375
v 0.152588 0.312985 -0.088096
v 0.279510 -0.212242 0.161375
v 0.152588 0.312985 0.088096
v -0.000000 -0.212242 0.322750
v 0.000000 0.312985 0.176193
v -0.279510 -0.212242 0.161375
v -0.152588 0.312985 0.088096
v -0.279510 -0.212242 -0.161375
v -0.152588 0.312985 -0.088096
v 0.000000 1.920744 0.000000
v 0.000000 1.920744 -0.106237
v 0.092004 1.920744 -0.053119
v 0.092004 1.920744 0.053119
v 0.000000 1.920744 0.106238
v -0.092004 1.920744 0.053119
v -0.092004 1.920744 -0.053119
v 0.103186 1.380005 0.004795
v 0.103858 1.347534 -0.038649
v 0.105147 1.285159 -0.038634
v 0.105611 1.262733 0.004762
v 0.105096 1.287655 0.050343
v 0.103703 1.355025 0.050397
v 0.501361 1.615569 0.005091
v 0.516319 1.607936 -0.020094
v 0.545054 1.593275 -0.020085
v 0.555385 1.588003 0.005072
v 0.543904 1.593861 0.031496
v 0.512868 1.609697 0.031528
v 0.614129 1.848228 0.005376
v 0.618689 1.845901 -0.002301
v 0.627449 1.841432 -0.002299
v 0.630598 1.839825 0.005371
v 0.627099 1.841611 0.013426
v 0.617637 1.846438 0.013435
v -0.032113 1.762512 -0.008665
v 1.022658 2.422356 0.757663
v -0.434992 2.422356 1.231290
v -1.335892 2.422356 -0.008665
v -0.434992 2.422356 -1.248619
v 1.022658 2.422356 -0.774993
v 0.370765 3.922632 1.231290
v -1.086885 3.922632 0.757663
v -1.086885 3.922632 -0.774993
v 0.370765 3.922632 -1.248619
v 1.271665 3.922632 -0.008665
v -0.032113 4.849848 -0.008665
v 1.273942 1.331503 -0.008665
v 2.164309 1.689396 0.638218
v 0.933858 1.689396 1.038022
v 0.173379 1.689396 -0.008665
v 0.933858 1.689396 -1.055352
v 2.164309 1.689396 -0.655548
v 1.614025 2.955829 1.038022
v 0.383574 2.955829 0.638218
v 0.383574 2.955829 -0.655548
v 1.614025 2.955829 -1.055352
v 2.374505 2.955829 -0.008665
v 1.273942 3.738522 -0.008665
vt 0.8776 0.3014
vt 0.8403 0.2786
vt 0.8776 0.2558
vt 0.2462 0.7271
vt 0.2277 0.9540
vt 0.2287 0.7269
vt 0.2780 0.5814
vt 0.3122 0.6563
vt 0.2692 0.6563
vt 0.9149 0.2786
vt 0.2850 0.8840
vt 0.3106 0.6590
vt 0.3076 0.8840
vt 0.5613 0.7313
vt 0.5534 0.6540
vt 0.5843 0.6583
vt 0.9149 0.3242
vt 0.5444 0.7290
vt 0.5156 0.9550
vt 0.5218 0.7280
vt 0.5120 0.6523
vt 0.8776 0.3470
vt 0.2969 0.3542
vt 0.3014 0.5814
vt 0.3106 0.9559
vt 0.2692 0.9560
vt 0.8403 0.3242
vt 0.2142 0.9542
vt 0.2063 0.7271
vt 0.2326 0.6523
vt 0.2645 0.6528
vt 0.5443 0.8674
vt 0.5404 0.8637
vt 0.1916 0.6528
vt 0.8182 0.6263
vt 0.8059 0.6338
vt 0.8059 0.6188
vt 0.8182 0.6413
vt 0.8304 0.6339
vt 0.8304 0.6189
vt 0.8182 0.6114
vt 0.9394 0.7739
vt 0.9508 0.8080
vt 0.9355 0.7750
vt 0.5351 0.8760
vt 0.5392 0.8801
vt 0.5292 0.9555
vt 0.8119 0.6999
vt 0.8109 0.6442
vt 0.8143 0.6461
vt 0.8033 0.6749
vt 0.7972 0.6114
vt 0.8007 0.6130
vt 0.9519 0.7110
vt 0.9460 0.7048
vt 0.5757 0.9092
vt 0.5727 0.9115
vt 0.7914 0.6749
vt 0.7972 0.6749
vt 0.8178 0.6440
vt 0.8178 0.6998
vt 0.3153 0.6595
vt 0.3153 0.6609
vt 0.3132 0.6597
vt 0.5832 0.9442
vt 0.5823 0.9449
vt 0.9500 0.8084
vt 0.9331 0.7765
vt 0.8203 0.6788
vt 0.8231 0.6440
vt 0.8243 0.6788
vt 0.8305 0.6777
vt 0.8294 0.6440
vt 0.8305 0.6442
vt 0.5843 0.9441
vt 0.1753 0.1764
vt 0.0013 0.1764
vt 0.1215 0.0014
vt 0.1215 0.3515
vt 0.3161 0.0682
vt 0.3161 0.2846
vt 0.6356 0.1578
vt 0.6442 0.0014
vt 0.8377 0.0532
vt 0.6442 0.3483
vt 0.8377 0.2676
vt 0.0013 0.6523
vt 0.1890 0.7330
vt 0.0172 0.8904
vt 0.5870 0.6261
vt 0.5870 0.4109
vt 0.7865 0.5143
vt 0.5094 0.8816
vt 0.3187 0.9540
vt 0.3417 0.7222
vt 0.1890 0.9505
vt 0.7888 0.3540
vt 0.7888 0.7021
vt 0.5094 0.6523
vt 0.6330 0.0678
vt 0.6330 0.2840
vt 0.4858 0.1711
vt 0.4387 0.0014
vt 0.3187 0.1766
vt 0.4387 0.3512
vt 0.4655 0.5018
vt 0.4202 0.3540
vt 0.5844 0.4104
vt 0.3187 0.5018
vt 0.5844 0.5931
vt 0.4202 0.6495
vt 0.7600 0.8368
vt 0.7673 0.7048
vt 0.9306 0.7486
vt 0.7673 0.9977
vt 0.9306 0.9296
vt 0.8403 0.0014
vt 0.9987 0.0694
vt 0.8537 0.2024
vt 0.7574 0.7689
vt 0.7574 0.9505
vt 0.5889 0.8633
vt 0.9525 0.5476
vt 0.7914 0.6086
vt 0.8108 0.4130
vt 0.9987 0.2531
vt 0.5870 0.9986
vt 0.5870 0.7048
vt 0.9525 0.3540
vt 0.2666 0.4103
vt 0.2666 0.5928
vt 0.1424 0.4975
vt 0.1026 0.3542
vt 0.0013 0.5021
vt 0.1026 0.6496
vt 0.2382 0.9542
vt 0.2970 0.6591
vt 0.2828 0.3542
vt 0.5394 0.9569
vt 0.5437 0.8761
vt 0.5358 0.8666
vt 0.9519 0.8077
vt 0.8059 0.6993
vt 0.7939 0.6128
vt 0.3132 0.6610
vt 0.3143 0.6614
vt 0.3143 0.6590
vt 0.8219 0.6440
vt 0.8269 0.6771
vt 0.5794 0.9088
vn 0.0000 -1.0000 0.0000
vn -0.9993 0.0377 0.0000
vn 0.4860 0.2349 -0.8418
vn -0.4996 0.0377 0.8654
vn 0.9720 0.2349 0.0000
vn 0.4996 0.0377 0.8654
vn 0.4860 0.2349 0.8418
vn 0.4996 0.0377 -0.8654
vn -0.4860 0.2349 0.8418
vn -0.4996 0.0377 -0.8654
vn -0.9720 0.2349 0.0000
vn 0.9987 0.0480 0.0141
vn -0.4860 0.2349 -0.8418
vn 0.0000 1.0000 0.0000
vn 0.0314 0.0611 -0.9976
vn 0.9998 0.0207 -0.0000
vn -0.4709 0.7954 0.3816
vn 0.5364 -0.7442 0.3981
vn 0.0417 0.0006 -0.9991
vn 0.0213 0.0398 0.9990
vn 0.5395 -0.7456 -0.3911
vn -0.4300 0.7199 -0.5448
vn 0.4545 0.8908 0.0000
vn 0.0326 0.0618 0.9976
vn 0.8728 -0.2602 -0.4130
vn -0.7485 0.3635 -0.5547
vn -0.8087 0.3915 0.4390
vn 0.8637 -0.2585 0.4326
vn 0.1639 -0.8478 0.5044
vn 0.5304 -0.8478 0.0000
vn -0.4291 -0.8478 0.3117
vn -0.4291 -0.8478 -0.3117
vn 0.1639 -0.8478 -0.5044
vn 0.9865 -0.1637 0.0000
vn 0.3049 -0.1637 0.9382
vn -0.7981 -0.1637 0.5799
vn -0.7981 -0.1637 -0.5799
vn 0.3049 -0.1637 -0.9382
vn 0.7981 0.1637 0.5799
vn -0.3049 0.1637 0.9382
vn -0.9865 0.1637 0.0000
vn -0.3049 0.1637 -0.9382
vn 0.7981 0.1637 -0.5799
vn 0.5341 0.7511 0.3881
vn -0.2040 0.7511 0.6279
vn -0.6602 0.7511 0.0000
vn -0.2040 0.7511 -0.6279
vn 0.5341 0.7511 -0.3881
vn 0.1153 -0.9278 0.3547
vn 0.3730 -0.9278 0.0000
vn -0.3017 -0.9278 0.2192
vn -0.3017 -0.9278 -0.2192
vn 0.1153 -0.9278 -0.3547
vn 0.9400 0.0280 0.3401
vn 0.8759 0.0182 0.4821
vn 0.8421 0.0200 -0.5390
vn 0.8155 0.0173 -0.5785
vn 0.9988 0.0494 0.0000
vn 0.9987 0.0481 -0.0150
vn -0.4627 0.7753 0.4299
vn 0.5343 -0.7391 0.4102
vn 0.0202 0.0391 -0.9990
vn 0.0429 0.0001 0.9991
vn 0.5414 -0.7502 -0.3795
vn -0.4434 0.7501 -0.4907
vn 0.4545 0.8907 0.0000
s off
f 1/1/1 2/2/1 4/3/1
f 11/4/2 20/5/2 13/6/2
f 3/7/3 4/8/3 2/9/3
f 1/1/1 4/3/1 6/10/1
f 9/11/4 19/12/4 11/13/4
f 5/14/5 6/15/5 4/16/5
f 1/1/1 6/10/1 8/17/1
f 7/18/6 18/19/6 9/20/6
f 7/18/7 8/21/7 6/15/7
f 1/1/1 8/17/1 10/22/1
f 3/7/8 16/23/8 5/24/8
f 9/11/9 10/25/9 8/26/9
f 1/1/1 10/22/1 12/27/1
f 13/6/10 15/28/10 3/29/10
f 11/4/11 12/30/11 10/31/11
f 1/1/1 12/27/1 2/2/1
f 5/14/12 23/32/12 24/33/12
f 13/6/13 2/34/13 12/30/13
f 14/35/14 16/36/14 15/37/14
f 14/35/14 17/38/14 16/36/14
f 14/35/14 18/39/14 17/38/14
f 14/35/14 19/40/14 18/39/14
f 14/35/14 20/41/14 19/40/14
f 14/35/14 15/37/14 20/41/14
f 28/42/15 35/43/15 29/44/15
f 26/45/16 21/46/16 17/47/16
f 21/48/17 32/49/17 27/50/17
f 25/51/18 30/52/18 31/53/18
f 22/54/19 29/44/19 23/55/19
f 26/45/20 31/56/20 32/57/20
f 23/58/21 30/52/21 24/59/21
f 21/48/22 28/60/22 22/61/22
f 38/62/23 37/63/23 34/64/23
f 32/57/24 37/65/24 38/66/24
f 29/44/25 36/67/25 30/68/25
f 27/69/26 34/70/26 28/71/26
f 27/72/27 38/73/27 33/74/27
f 31/56/28 36/75/28 37/65/28
f 39/76/29 40/77/29 41/78/29
f 40/77/30 39/76/30 44/79/30
f 39/76/31 41/78/31 42/80/31
f 39/76/32 42/80/32 43/81/32
f 39/76/33 43/81/33 44/79/33
f 40/82/34 44/83/34 49/84/34
f 41/85/35 40/82/35 45/86/35
f 42/87/36 41/88/36 46/89/36
f 43/90/37 42/91/37 47/92/37
f 44/93/38 43/94/38 48/95/38
f 40/82/39 49/84/39 45/86/39
f 41/88/40 45/96/40 46/89/40
f 42/91/41 46/97/41 47/92/41
f 43/90/42 47/92/42 48/98/42
f 44/93/43 48/95/43 49/99/43
f 45/100/44 49/101/44 50/102/44
f 46/103/45 45/100/45 50/102/45
f 47/104/46 46/103/46 50/102/46
f 48/105/47 47/104/47 50/102/47
f 49/101/48 48/105/48 50/102/48
f 51/106/49 52/107/49 53/108/49
f 52/107/50 51/106/50 56/109/50
f 51/106/51 53/108/51 54/110/51
f 51/106/52 54/110/52 55/111/52
f 51/106/53 55/111/53 56/109/53
f 52/112/34 56/113/34 61/114/34
f 53/115/35 52/112/35 57/116/35
f 54/117/36 53/118/36 58/119/36
f 55/120/37 54/121/37 59/122/37
f 56/123/38 55/124/38 60/125/38
f 52/112/39 61/114/39 57/116/39
f 53/118/40 57/126/40 58/119/40
f 54/121/41 58/127/41 59/122/41
f 55/120/42 59/122/42 60/128/42
f 56/123/43 60/125/43 61/129/43
f 57/130/44 61/131/44 62/132/44
f 58/133/45 57/130/45 62/132/45
f 59/134/46 58/133/46 62/132/46
f 60/135/47 59/134/47 62/132/47
f 61/131/48 60/135/48 62/132/48
f 11/4/2 19/136/2 20/5/2
f 3/7/3 5/24/3 4/8/3
f 9/11/4 18/137/4 19/12/4
f 5/14/5 7/18/5 6/15/5
f 7/18/6 17/47/6 18/19/6
f 7/18/7 9/20/7 8/21/7
f 3/7/8 15/138/8 16/23/8
f 9/11/9 11/13/9 10/25/9
f 13/6/10 20/5/10 15/28/10
f 11/4/11 13/6/11 12/30/11
f 5/14/54 16/139/54 22/140/54
f 5/14/55 22/140/55 23/32/55
f 26/45/56 17/47/56 7/18/56
f 25/141/57 26/45/57 7/18/57
f 7/18/58 5/14/58 24/33/58
f 24/33/59 25/141/59 7/18/59
f 13/6/13 3/29/13 2/34/13
f 28/42/15 34/142/15 35/43/15
f 16/139/16 17/47/16 21/46/16
f 21/46/16 22/140/16 16/139/16
f 21/48/60 26/143/60 32/49/60
f 25/51/61 24/59/61 30/52/61
f 22/54/62 28/42/62 29/44/62
f 26/45/63 25/141/63 31/56/63
f 23/58/64 29/144/64 30/52/64
f 21/48/65 27/50/65 28/60/65
f 35/145/23 34/64/23 36/146/23
f 33/147/23 38/62/23 34/64/23
f 37/63/66 36/146/66 34/64/66
f 32/57/24 31/56/24 37/65/24
f 29/44/25 35/43/25 36/67/25
f 27/69/26 33/148/26 34/70/26
f 27/72/27 32/149/27 38/73/27
f 31/56/28 30/150/28 36/75/28
o Cylinder.002
v 1.364125 3.056340 0.002896
v 1.437122 3.056340 0.002896
v 1.364125 3.107957 0.002896
v 1.437122 3.107957 0.002896
v 1.364125 3.082149 -0.041805
v 1.437122 3.082149 -0.041805
v 1.364125 3.030532 -0.041805
v 1.437122 3.030532 -0.041805
v 1.364125 3.004724 0.002896
v 1.437122 3.004724 0.002896
v 1.364125 3.030532 0.047598
v 1.437122 3.030532 0.047598
v 1.364125 3.082149 0.047598
v 1.437122 3.082149 0.047598
vt 0.7500 0.2500
vt 0.5000 0.1250
vt 0.7500 0.0000
vt 0.2500 0.2500
vt 0.2500 0.0000
vt 0.5000 0.1250
vt 0.4082 0.6250
vt 0.8165 0.8750
vt 0.8165 0.6250
vt 1.0000 0.1250
vt 0.0000 0.1250
vt 0.4082 0.8750
vt 0.0000 0.6250
vt 0.0000 0.8750
vt 1.0000 0.3750
vt 0.0000 0.3750
vt 0.4082 0.6250
vt 0.0000 0.8750
vt 0.7500 0.5000
vt 0.2500 0.5000
vt 0.4082 0.8750
vt 0.0000 0.6250
vt 0.5000 0.3750
vt 0.5000 0.3750
vt 0.4082 0.6250
vt 0.8165 0.8750
vt 0.8165 0.6250
vt 0.4082 0.8750
vn -1.0000 0.0000 0.0000
vn 1.0000 0.0000 0.0000
vn 0.0000 0.8660 -0.5000
vn 0.0000 -0.0000 -1.0000
vn 0.0000 -0.8660 -0.5000
vn 0.0000 -0.8660 0.5000
vn -0.0000 0.0000 1.0000
vn -0.0000 0.8660 0.5000
s off
f 63/151/67 65/152/67 67/153/67
f 64/154/68 68/155/68 66/156/68
f 66/157/69 67/158/69 65/159/69
f 63/151/67 67/153/67 69/160/67
f 64/154/68 70/161/68 68/155/68
f 68/162/70 69/163/70 67/164/70
f 63/151/67 69/160/67 71/165/67
f 64/154/68 72/166/68 70/161/68
f 70/167/71 71/168/71 69/163/71
f 63/151/67 71/165/67 73/169/67
f 64/154/68 74/170/68 72/166/68
f 72/171/72 73/172/72 71/168/72
f 63/151/67 73/169/67 75/173/67
f 64/154/68 76/174/68 74/170/68
f 74/175/73 75/176/73 73/177/73
f 63/151/67 75/173/67 65/152/67
f 64/154/68 66/156/68 76/174/68
f 76/178/74 65/159/74 75/176/74
f 66/157/69 68/162/69 67/158/69
f 68/162/70 70/167/70 69/163/70
f 70/167/71 72/171/71 71/168/71
f 72/171/72 74/175/72 73/172/72
f 74/175/73 76/178/73 75/176/73
f 76/178/74 66/157/74 65/159/74
