# Blender v2.78 (sub 0) OBJ File: 'hexagon.blend'
# www.blender.org
o Cylinder
v 0.000000 -0.707107 0.000000
v 0.000000 0.707107 0.000000
v 0.000000 -0.707107 -1.000000
v 0.000000 0.707107 -1.000000
v 0.866025 -0.707107 -0.500000
v 0.866025 0.707107 -0.500000
v 0.866025 -0.707107 0.500000
v 0.866025 0.707107 0.500000
v -0.000000 -0.707107 1.000000
v -0.000000 0.707107 1.000000
v -0.866025 -0.707107 0.500000
v -0.866025 0.707107 0.500000
v -0.866025 -0.707107 -0.500000
v -0.866025 0.707107 -0.500000
vt 0.1940 0.2239
vt 0.1940 0.4477
vt 0.3877 0.3358
vt 0.5819 0.2239
vt 0.7756 0.3358
vt 0.5819 0.4477
vt 0.1940 0.4481
vt 0.0002 0.7645
vt 0.1940 0.7645
vt 0.3877 0.1121
vt 0.7756 0.1121
vt 0.7761 0.0002
vt 0.9998 0.3166
vt 0.7761 0.3166
vt 0.1940 0.0002
vt 0.5819 0.0002
vt 0.3881 0.4481
vt 0.5819 0.7645
vt 0.3881 0.7645
vt 0.0002 0.1121
vt 0.3881 0.1121
vt 0.5819 0.4481
vt 0.7756 0.7645
vt 0.0002 0.3358
vt 0.3881 0.3358
vt 0.9998 0.3170
vt 0.7761 0.6334
vt 0.9998 0.6334
vt 0.3877 0.4481
vt 0.3877 0.7645
vt 0.0002 0.4481
vt 0.9998 0.0002
vt 0.7756 0.4481
vt 0.7761 0.3170
vn 0.0000 -1.0000 0.0000
vn 0.0000 1.0000 0.0000
vn 0.5000 0.0000 -0.8660
vn 1.0000 0.0000 0.0000
vn 0.5000 0.0000 0.8660
vn -0.5000 0.0000 0.8660
vn -1.0000 0.0000 0.0000
vn -0.5000 0.0000 -0.8660
s off
f 1/1/1 3/2/1 5/3/1
f 2/4/2 6/5/2 4/6/2
f 4/7/3 5/8/3 3/9/3
f 1/1/1 5/3/1 7/10/1
f 2/4/2 8/11/2 6/5/2
f 6/12/4 7/13/4 5/14/4
f 1/1/1 7/10/1 9/15/1
f 2/4/2 10/16/2 8/11/2
f 8/17/5 9/18/5 7/19/5
f 1/1/1 9/15/1 11/20/1
f 2/4/2 12/21/2 10/16/2
f 10/22/6 11/23/6 9/18/6
f 1/1/1 11/20/1 13/24/1
f 2/4/2 14/25/2 12/21/2
f 12/26/7 13/27/7 11/28/7
f 1/1/1 13/24/1 3/2/1
f 2/4/2 4/6/2 14/25/2
f 14/29/8 3/9/8 13/30/8
f 4/7/3 6/31/3 5/8/3
f 6/12/4 8/32/4 7/13/4
f 8/17/5 10/22/5 9/18/5
f 10/22/6 12/33/6 11/23/6
f 12/26/7 14/34/7 13/27/7
f 14/29/8 4/7/8 3/9/8
