# Blender v2.78 (sub 0) OBJ File: 'tree3.blend'
# www.blender.org
o Cylinder.001_Cylinder.002
v 0.000000 -0.254032 -0.254032
v -0.001753 1.319396 0.303525
v 0.851123 1.903053 -0.332355
v -0.161981 1.845651 -0.832350
v 0.008496 1.865731 1.512686
v 0.020566 1.685987 0.801881
v 0.724082 1.950521 0.193370
v -0.025778 1.866588 1.509688
v 0.951533 2.220897 -0.023342
v 0.000475 2.825467 -0.332355
v 0.211220 -0.254032 -0.141133
v 0.091875 1.319396 0.378864
v -0.006134 1.942136 -0.222454
v 0.081672 1.406416 0.455997
v -0.587311 2.220897 0.476662
v -0.687714 1.903052 -0.832352
v -0.006892 1.874714 1.481237
v -0.022953 1.871088 1.493933
v 0.249151 -0.254032 0.049559
v 0.086047 1.319396 0.490151
v -0.587311 2.220897 -1.141372
v 0.425798 1.845651 -0.023344
v 0.003051 1.860531 1.530893
v 0.034653 1.734708 0.796752
v -0.950583 2.220897 -0.023342
v -0.723132 2.491273 0.193370
v -0.030888 1.928718 -0.233447
v -0.084190 1.411231 0.460264
v 0.097214 -0.254032 0.234695
v 0.054981 1.319396 0.598194
v 0.263344 1.903051 0.476657
v 0.263344 1.903051 -1.141367
v -0.275913 1.950521 0.518294
v 0.037296 1.784892 0.791469
v -0.046714 1.784892 0.791469
v -0.002216 1.387417 0.369489
v 0.425798 1.845651 -0.641366
v 0.276863 2.491273 -1.183004
v -0.141133 -0.254032 0.211220
v -0.084117 1.319396 0.584495
v -0.021326 1.861190 1.528585
v 1.027154 1.920389 1.586320
v -0.275913 1.950521 -1.183004
v 0.724082 1.950521 -0.858081
v -0.234695 -0.254032 0.097214
v -0.109520 1.319396 0.472356
v 0.894901 2.491270 -0.332355
v 0.588261 2.220897 0.476662
v -0.005158 1.818865 0.787892
v -0.054023 1.742733 0.795907
v -0.003094 1.516135 0.494315
v -0.893951 1.950524 -0.332355
v -0.723132 2.491273 -0.858081
v 0.000475 2.220897 0.667645
v -0.211220 -0.254032 -0.141133
v -0.093401 1.319396 0.378864
v 0.276863 2.491273 0.518294
v 0.951533 2.220897 -0.641368
v -0.042505 1.692165 0.801231
v 0.009517 1.871088 1.493933
v 0.019741 1.927248 -0.234750
v -0.005866 1.902845 -0.260557
v -0.950583 2.220897 -0.641368
v -0.161981 1.845651 0.167640
v 0.588261 2.220897 -1.141372
v 0.000475 2.220897 -1.332355
v 0.688664 2.538741 0.167642
v -0.262394 2.538743 0.476657
v -0.850173 2.538741 -0.332355
v -0.262394 2.538743 -1.141367
v 0.688664 2.538741 -0.832352
v 0.162931 2.735178 0.167640
v 0.526205 2.735176 -0.332355
v -0.424848 2.735177 -0.023344
v -0.424848 2.735177 -0.641366
v 0.162931 2.735178 -0.832350
v -0.525255 1.845653 -0.332355
v -0.687714 1.903052 0.167642
v -0.307041 1.844795 0.927857
v 0.859849 1.982903 2.278667
v 1.159388 2.338970 1.993270
v -0.093097 3.135152 1.586320
v -0.867175 2.338970 2.651745
v -0.999400 1.920389 0.927854
v -0.867175 2.338970 0.520894
v 0.467027 1.844795 1.993269
v -1.345582 2.338970 1.993270
v -1.046043 2.695039 2.278667
v 0.253085 1.920388 2.651739
v 0.253085 1.920388 0.520901
v -0.457083 1.982902 2.706572
v 0.467027 1.844795 1.179371
v 0.270889 2.695039 0.466067
v -0.457083 1.982902 0.466067
v 0.859849 1.982903 0.893972
v 1.084807 2.695035 1.586320
v 0.680980 2.338970 2.651745
v -1.271001 1.982906 1.586320
v -1.046043 2.695039 0.893972
v -0.093097 2.338970 2.903258
v 0.270889 2.695039 2.706572
v 1.159388 2.338970 1.179369
v -1.345582 2.338970 1.179369
v -0.307041 1.844795 2.244782
v 0.680980 2.338970 0.520894
v -0.093097 2.338970 0.269382
v 0.813206 2.757552 2.244785
v -0.439279 2.757553 2.651739
v -1.213348 2.757552 1.586320
v -0.439279 2.757553 0.520901
v 0.813206 2.757552 0.927854
v 0.120847 3.016246 2.244782
v 0.599257 3.016244 1.586320
v -0.653221 3.016246 1.993269
v -0.653221 3.016246 1.179371
v 0.120847 3.016246 0.927857
v -0.785451 1.844797 1.586320
v -0.999400 1.920389 2.244785
vt 0.9803 0.0188
vt 1.0000 0.2635
vt 0.9636 0.2668
vt 0.2602 0.4709
vt 0.2776 0.5615
vt 0.2728 0.5625
vt 0.9979 0.0161
vt 0.9834 0.0060
vt 1.0000 0.0000
vt 0.2869 0.3908
vt 0.2996 0.4928
vt 0.2972 0.4949
vt 0.2906 0.3468
vt 0.2998 0.3901
vt 0.2934 0.3899
vt 0.3233 0.5614
vt 0.3426 0.3413
vt 0.3426 0.5573
vt 0.6202 0.6064
vt 0.6027 0.5019
vt 0.6567 0.5592
vt 0.8865 0.4994
vt 0.8897 0.4826
vt 0.9009 0.4905
vt 0.9399 0.2592
vt 0.9715 0.0142
vt 0.9399 0.0600
vt 0.8755 0.1023
vt 0.8942 0.0000
vt 0.3671 0.9212
vt 0.4395 0.9992
vt 0.3619 0.9271
vt 0.5566 0.7192
vt 0.5682 0.6006
vt 0.5682 0.7258
vt 0.3330 0.6048
vt 0.3241 0.6073
vt 0.4374 0.9985
vt 0.3584 0.9321
vt 0.2869 0.3413
vt 0.2841 0.4589
vt 0.2700 0.3420
vt 0.3529 0.8478
vt 0.9134 0.4212
vt 0.9906 0.3418
vt 0.9935 0.3411
vt 0.2869 0.5583
vt 0.3001 0.5045
vt 0.3001 0.5749
vt 0.9658 0.7178
vt 0.9423 0.7339
vt 0.2776 0.4669
vt 0.2869 0.4771
vt 0.2802 0.4843
vt 0.6965 0.2592
vt 0.7398 0.2184
vt 0.7537 0.3171
vt 0.9935 0.7057
vt 0.3027 0.3458
vt 0.3082 0.3413
vt 0.3082 0.3477
vt 0.4424 0.6285
vt 0.3678 0.8568
vt 0.3027 0.4969
vt 0.3022 0.4998
vt 0.2975 0.4977
vt 0.2602 0.3467
vt 0.2787 0.4589
vt 0.3426 0.8405
vt 0.4236 0.6189
vt 0.5650 0.3661
vt 0.5281 0.4078
vt 0.4860 0.3411
vt 0.9156 0.4824
vt 0.3457 0.8586
vt 0.9084 0.4153
vt 0.9877 0.3426
vt 0.8689 0.4695
vt 0.8123 0.5253
vt 0.8141 0.4107
vt 0.0141 0.8048
vt 0.0731 0.8162
vt 0.0571 0.8674
vt 0.5779 0.6002
vt 0.5741 0.7088
vt 0.5682 0.6004
vt 0.9762 0.7794
vt 0.9762 0.8591
vt 0.9273 0.8116
vt 0.2006 0.7971
vt 0.1921 0.7184
vt 0.2336 0.7661
vt 0.8410 0.7640
vt 0.8522 0.8441
vt 0.7980 0.8063
vt 0.3426 0.4986
vt 0.3912 0.5638
vt 0.3456 0.5455
vt 0.4557 0.8016
vt 0.4424 0.7224
vt 0.4834 0.7659
vt 0.9414 0.7339
vt 0.2441 0.8410
vt 0.7994 0.7193
vt 0.4557 0.6456
vt 0.5017 0.6040
vt 0.4834 0.6741
vt 0.9696 0.9355
vt 0.9314 0.9740
vt 0.9234 0.9033
vt 0.2223 0.3661
vt 0.2602 0.4379
vt 0.1855 0.4083
vt 0.0616 0.3540
vt 0.1434 0.3413
vt 0.0910 0.4012
vt 0.0000 0.4987
vt 0.0127 0.4192
vt 0.0548 0.4862
vt 0.1227 0.6003
vt 0.0487 0.5640
vt 0.1269 0.5459
vt 0.2602 0.5183
vt 0.2016 0.5755
vt 0.2077 0.4978
vt 0.1331 0.4680
vt 0.5017 0.8442
vt 0.5427 0.7959
vt 0.5566 0.8528
vt 0.5254 0.7196
vt 0.5427 0.6475
vt 0.5566 0.6002
vt 0.7531 0.7695
vt 0.7645 0.7014
vt 0.7622 0.8494
vt 0.2895 0.7968
vt 0.2958 0.8493
vt 0.2778 0.7218
vt 0.2375 0.6741
vt 0.2958 0.6480
vt 0.2543 0.6003
vt 0.8865 0.8547
vt 0.8887 0.7782
vt 0.8094 0.6665
vt 0.8544 0.7033
vt 0.8059 0.8943
vt 0.8544 0.9136
vt 0.2073 0.6406
vt 0.4336 0.4006
vt 0.3553 0.4190
vt 0.4042 0.3539
vt 0.6852 0.1555
vt 0.3974 0.4857
vt 0.9399 0.1648
vt 0.8836 0.5750
vt 0.5503 0.4973
vt 0.6027 0.4377
vt 0.6027 0.5183
vt 0.2929 0.0329
vt 0.2443 0.0878
vt 0.1889 0.0000
vt 0.4695 0.5454
vt 0.4653 0.6002
vt 0.5441 0.5754
vt 0.6585 0.6737
vt 0.7486 0.7021
vt 0.7486 0.7942
vt 0.0000 0.2074
vt 0.0640 0.2933
vt 0.0040 0.2692
vt 0.6202 0.4008
vt 0.6808 0.3460
vt 0.6567 0.4384
vt 0.9313 0.2654
vt 0.8809 0.3162
vt 0.8705 0.2231
vt 0.6354 0.0327
vt 0.6852 0.1272
vt 0.5869 0.0883
vt 0.4237 0.0167
vt 0.5315 0.0000
vt 0.4624 0.0789
vt 0.3426 0.2073
vt 0.3594 0.1026
vt 0.4148 0.1909
vt 0.5042 0.3411
vt 0.4067 0.2933
vt 0.5098 0.2696
vt 0.6852 0.2332
vt 0.6081 0.3085
vt 0.6161 0.2061
vt 0.5179 0.1670
vt 0.6808 0.6624
vt 0.7348 0.5988
vt 0.7531 0.6737
vt 0.7121 0.4983
vt 0.7348 0.4033
vt 0.7531 0.3411
vt 0.7531 0.4768
vt 0.7681 0.3871
vt 0.7651 0.5820
vt 0.8135 0.2588
vt 0.8218 0.3280
vt 0.7981 0.1600
vt 0.7449 0.0973
vt 0.8218 0.0628
vt 0.7672 0.0000
vt 0.8218 0.1591
vt 0.8247 0.0583
vt 0.8272 0.3411
vt 0.8865 0.3896
vt 0.8226 0.6411
vt 0.8865 0.6665
vt 0.7052 0.0531
vt 0.1199 0.0784
vt 0.0168 0.1026
vt 0.0811 0.0169
vt 0.0722 0.1904
vt 0.2736 0.2057
vt 0.3426 0.1273
vt 0.3426 0.2334
vt 0.1672 0.2691
vt 0.1616 0.3413
vt 0.2654 0.3085
vt 0.1921 0.6377
vt 0.1921 0.7589
vt 0.0734 0.7964
vt 0.2776 0.4589
vt 0.3027 0.3413
vt 0.3095 0.3482
vt 0.9037 0.4095
vt 0.3021 0.4946
vt 0.4424 1.0000
vt 0.5624 0.6002
vt 0.2869 0.4573
vt 0.2929 0.5003
vt 0.2869 0.4589
vt 0.3038 0.3415
vt 0.2985 0.5003
vt 0.3963 0.6002
vt 0.0204 0.8674
vt 0.0000 0.8377
vt 0.0426 0.7964
vt 0.0731 0.8519
vt 0.5779 0.7091
vt 0.6585 0.8226
vt 0.6027 0.7482
vt 0.0000 0.6983
vt 0.0734 0.6003
vn 0.4499 0.2987 -0.8416
vn 0.5933 0.6931 0.4094
vn 0.5001 0.6065 -0.6181
vn 0.2915 0.9508 -0.1051
vn -0.5326 0.5873 -0.6094
vn -0.0955 -0.2265 0.9693
vn 0.4902 -0.5011 -0.7132
vn 0.9961 0.0706 0.0522
vn -0.6349 0.7699 -0.0636
vn -0.6078 0.2898 -0.7393
vn 0.7918 -0.2050 0.5753
vn -0.9739 -0.2139 0.0757
vn 0.6439 -0.5820 -0.4966
vn -0.0576 -0.4970 0.8658
vn -0.9850 0.1721 0.0122
vn -0.7969 0.5120 0.3207
vn -0.9112 -0.1680 0.3761
vn 0.8782 -0.4600 0.1312
vn 0.5047 0.6050 -0.6158
vn 0.9715 0.1375 -0.1932
vn -0.5093 0.5973 -0.6195
vn -0.3025 -0.2050 0.9309
vn 0.7694 -0.0971 0.6314
vn 0.0033 0.7249 -0.6888
vn -0.9751 -0.0171 0.2209
vn 0.0000 0.9615 0.2746
vn -0.8295 -0.4347 -0.3508
vn -0.9786 0.1181 -0.1687
vn 0.2339 -0.9616 0.1434
vn 0.9591 -0.0632 0.2758
vn -0.9840 0.1630 -0.0725
vn 0.9983 -0.0382 0.0435
vn -0.9788 -0.2050 0.0000
vn 0.0000 -1.0000 -0.0000
vn -0.0972 -0.9688 0.2280
vn 0.8298 -0.5011 0.2458
vn 0.0227 -0.5011 0.8651
vn -0.8158 -0.5011 0.2889
vn -0.5269 -0.5011 -0.6866
vn -0.3025 -0.2050 -0.9309
vn 0.7918 -0.2050 -0.5753
vn 0.3082 0.8250 0.4737
vn -0.3552 0.8250 0.4395
vn -0.5278 0.8250 -0.2020
vn 0.0290 0.8250 -0.5644
vn 0.5458 0.8250 -0.1468
vn 0.1680 0.9782 -0.1221
vn 0.3392 0.9079 -0.2465
vn 0.3082 0.8250 -0.4737
vn -0.0642 0.9782 -0.1975
vn -0.1296 0.9079 -0.3988
vn -0.3552 0.8250 -0.4395
vn -0.2077 0.9782 0.0000
vn -0.4193 0.9079 0.0000
vn -0.5278 0.8250 0.2020
vn -0.0642 0.9782 0.1975
vn -0.1296 0.9079 0.3988
vn 0.0290 0.8250 0.5644
vn 0.1680 0.9782 0.1221
vn 0.3392 0.9079 0.2465
vn 0.5458 0.8250 0.1468
vn 0.8158 0.5011 -0.2889
vn 0.7714 0.3012 -0.5605
vn 0.5268 0.5011 -0.6866
vn -0.0227 0.5011 -0.8651
vn -0.2947 0.3012 -0.9069
vn -0.4902 0.5011 -0.7132
vn -0.8298 0.5011 -0.2458
vn -0.9535 0.3012 0.0000
vn -0.8298 0.5011 0.2458
vn -0.4902 0.5011 0.7132
vn -0.2947 0.3012 0.9069
vn -0.0227 0.5011 0.8651
vn 0.5268 0.5011 0.6866
vn 0.7714 0.3012 0.5605
vn 0.8158 0.5011 0.2889
vn 0.3025 0.2050 -0.9309
vn 0.2947 -0.3012 -0.9069
vn 0.0227 -0.5011 -0.8651
vn -0.7918 0.2050 -0.5753
vn -0.7714 -0.3012 -0.5605
vn -0.8158 -0.5011 -0.2889
vn -0.7918 0.2050 0.5753
vn -0.7714 -0.3012 0.5605
vn -0.5269 -0.5011 0.6866
vn 0.3025 0.2050 0.9309
vn 0.2947 -0.3012 0.9069
vn 0.4902 -0.5011 0.7132
vn 0.9788 0.2050 0.0000
vn 0.9535 -0.3012 0.0000
vn 0.8298 -0.5011 -0.2458
vn 0.2086 -0.9616 -0.1782
vn -0.0641 -0.9616 -0.2668
vn 0.2339 -0.9616 -0.1434
vn -0.0641 -0.9616 0.2668
vn 0.2086 -0.9616 0.1782
vn -0.1050 -0.9616 -0.2535
vn -0.2735 -0.9616 -0.0215
vn -0.2735 -0.9616 0.0215
vn 0.0000 1.0000 0.0000
vn -0.1050 -0.9616 0.2535
vn -0.5268 -0.5011 -0.6866
vn 0.5269 0.5011 -0.6866
vn 0.5269 0.5011 0.6866
vn -0.5268 -0.5011 0.6866
vn 0.5996 0.2918 -0.7452
vn 0.8014 0.5099 0.3126
vn 0.4992 0.6050 -0.6203
vn 0.6268 0.7768 -0.0610
vn -0.5141 0.5972 -0.6156
vn 0.9951 0.0754 0.0647
vn 0.9851 -0.0341 0.1688
vn -0.2982 0.9486 -0.1063
vn -0.4500 0.2978 -0.8419
vn -0.9230 -0.3679 0.1124
vn 0.8091 -0.4525 -0.3749
vn -0.0854 -0.4900 0.8675
vn -0.9020 0.4300 -0.0389
vn -0.5697 0.7055 0.4217
vn -0.9751 -0.0196 0.2209
vn 0.9596 -0.2686 0.0842
vn 0.5264 0.5938 -0.6086
vn 0.9947 0.0885 0.0521
vn -0.5101 0.5986 -0.6176
vn 0.9604 -0.0380 0.2761
vn -0.0014 0.6353 -0.7723
vn -0.7699 -0.0894 0.6319
vn 0.0000 0.9615 0.2747
vn -0.6828 -0.5595 -0.4698
vn -0.9895 0.1063 -0.0975
vn 0.8784 -0.2087 0.4299
vn -0.9562 0.2420 -0.1649
vn -0.9574 0.2437 -0.1547
vn 0.9978 -0.0478 0.0453
vn -0.0482 -0.9716 0.2315
vn -0.1082 -0.9910 -0.0786
vn 0.0413 -0.9910 -0.1272
vn 0.1337 -0.9910 0.0000
vn 0.0413 -0.9910 0.1272
vn -0.1082 -0.9910 0.0786
s off
f 2/1/1 11/2/1 1/3/1
f 51/4/2 61/5/2 13/6/2
f 12/7/3 36/8/3 14/9/3
f 34/10/4 17/11/4 60/12/4
f 51/13/5 35/14/5 49/15/5
f 40/16/6 29/17/6 30/18/6
f 95/19/7 90/20/7 105/21/7
f 12/22/8 14/23/8 20/24/8
f 35/14/9 17/11/9 49/15/9
f 2/1/10 55/25/10 56/26/10
f 80/27/11 81/28/11 97/29/11
f 59/30/12 8/31/12 50/32/12
f 36/33/13 61/34/13 14/35/13
f 40/16/14 6/36/14 59/37/14
f 50/32/15 18/38/15 35/39/15
f 51/40/16 27/41/16 28/42/16
f 46/43/17 59/30/17 50/32/17
f 6/44/18 5/45/18 23/46/18
f 51/47/19 34/48/19 14/49/19
f 12/22/20 19/50/20 11/51/20
f 56/52/21 36/53/21 2/54/21
f 91/55/22 100/56/22 83/57/22
f 20/24/23 29/58/23 19/50/23
f 27/59/24 61/60/24 62/61/24
f 46/43/25 39/62/25 40/63/25
f 8/64/26 41/65/26 5/66/26
f 36/67/27 27/41/27 62/68/27
f 56/69/28 45/70/28 46/43/28
f 7/71/29 22/72/29 3/73/29
f 20/24/30 6/44/30 30/74/30
f 50/32/31 35/39/31 28/75/31
f 24/76/32 60/77/32 5/45/32
f 98/78/33 87/79/33 103/80/33
f 11/81/34 29/82/34 45/83/34
f 6/84/35 41/85/35 59/86/35
f 7/87/36 3/88/36 9/89/36
f 33/90/37 31/91/37 54/92/37
f 52/93/38 78/94/38 25/95/38
f 43/96/39 16/97/39 21/98/39
f 44/99/7 32/100/7 65/101/7
f 7/87/11 9/89/11 48/102/11
f 33/90/22 54/92/22 15/103/22
f 52/93/33 25/95/33 63/104/33
f 43/105/40 21/106/40 66/107/40
f 44/108/41 65/109/41 58/110/41
f 57/111/42 67/112/42 72/113/42
f 26/114/43 68/115/43 74/116/43
f 53/117/44 69/118/44 75/119/44
f 38/120/45 70/121/45 76/122/45
f 47/123/46 71/124/46 73/125/46
f 73/125/47 76/122/47 10/126/47
f 73/125/48 71/124/48 76/122/48
f 71/124/49 38/120/49 76/122/49
f 76/122/50 75/119/50 10/126/50
f 76/122/51 70/121/51 75/119/51
f 70/121/52 53/117/52 75/119/52
f 75/119/53 74/116/53 10/126/53
f 75/119/54 69/118/54 74/116/54
f 69/118/55 26/114/55 74/116/55
f 74/116/56 72/113/56 10/126/56
f 74/116/57 68/115/57 72/113/57
f 68/115/58 57/111/58 72/113/58
f 72/113/59 73/125/59 10/126/59
f 72/113/60 67/112/60 73/125/60
f 67/112/61 47/123/61 73/125/61
f 58/127/62 71/128/62 47/129/62
f 58/127/63 65/101/63 71/128/63
f 65/101/64 38/130/64 71/128/64
f 66/107/65 70/131/65 38/130/65
f 66/107/66 21/106/66 70/131/66
f 21/106/67 53/132/67 70/131/67
f 63/104/68 69/133/68 53/134/68
f 63/104/69 25/95/69 69/133/69
f 25/95/70 26/135/70 69/133/70
f 15/103/71 68/136/71 26/137/71
f 15/103/72 54/92/72 68/136/72
f 54/92/73 57/138/73 68/136/73
f 48/139/74 67/140/74 57/138/74
f 48/139/75 9/141/75 67/140/75
f 9/89/76 47/142/76 67/143/76
f 65/101/77 66/107/77 38/130/77
f 65/101/78 32/100/78 66/107/78
f 32/100/79 43/105/79 66/107/79
f 21/144/80 63/104/80 53/134/80
f 21/144/81 16/145/81 63/104/81
f 16/145/82 52/93/82 63/104/82
f 25/95/83 15/146/83 26/135/83
f 25/95/84 78/94/84 15/146/84
f 78/94/85 33/147/85 15/146/85
f 54/92/86 48/139/86 57/138/86
f 54/92/87 31/91/87 48/139/87
f 31/91/88 7/148/88 48/139/88
f 9/89/89 58/110/89 47/142/89
f 9/89/90 3/88/90 58/110/90
f 3/88/91 44/108/91 58/110/91
f 37/149/92 32/150/92 44/151/92
f 91/55/37 89/152/37 100/56/37
f 4/153/93 43/96/93 32/150/93
f 3/73/94 37/149/94 44/151/94
f 80/27/36 42/154/36 81/28/36
f 98/78/38 118/155/38 87/79/38
f 64/156/95 31/157/95 33/158/95
f 80/159/29 86/160/29 42/161/29
f 22/72/96 7/71/96 31/157/96
f 4/153/97 16/97/97 43/96/97
f 4/153/34 37/149/34 64/156/34
f 77/162/98 52/163/98 16/97/98
f 77/162/99 78/164/99 52/163/99
f 4/165/100 77/166/100 64/167/100
f 64/156/101 33/158/101 78/164/101
f 94/168/102 84/169/102 85/170/102
f 94/171/40 85/172/40 106/173/40
f 95/174/41 105/175/41 102/176/41
f 101/177/42 107/178/42 112/179/42
f 88/180/43 108/181/43 114/182/43
f 99/183/44 109/184/44 115/185/44
f 93/186/45 110/187/45 116/188/45
f 96/189/46 111/190/46 113/191/46
f 113/191/47 116/188/47 82/192/47
f 113/191/48 111/190/48 116/188/48
f 111/190/49 93/186/49 116/188/49
f 116/188/50 115/185/50 82/192/50
f 116/188/51 110/187/51 115/185/51
f 110/187/52 99/183/52 115/185/52
f 115/185/53 114/182/53 82/192/53
f 115/185/54 109/184/54 114/182/54
f 109/184/55 88/180/55 114/182/55
f 114/182/56 112/179/56 82/192/56
f 114/182/57 108/181/57 112/179/57
f 108/181/58 101/177/58 112/179/58
f 112/179/59 113/191/59 82/192/59
f 112/179/60 107/178/60 113/191/60
f 107/178/61 96/189/61 113/191/61
f 102/193/62 111/194/62 96/195/62
f 102/193/63 105/21/63 111/194/63
f 105/21/103 93/196/103 111/194/103
f 106/173/65 110/197/65 93/196/65
f 106/173/66 85/172/66 110/197/66
f 85/172/67 99/198/67 110/197/67
f 103/80/68 109/199/68 99/200/68
f 103/80/69 87/79/69 109/199/69
f 87/79/70 88/201/70 109/199/70
f 83/57/71 108/202/71 88/203/71
f 83/57/72 100/56/72 108/202/72
f 100/56/73 101/204/73 108/202/73
f 97/205/104 107/206/104 101/204/104
f 97/205/75 81/207/75 107/206/75
f 81/28/76 96/208/76 107/209/76
f 105/21/77 106/173/77 93/196/77
f 105/21/78 90/20/78 106/173/78
f 90/20/79 94/171/79 106/173/79
f 85/210/80 103/80/80 99/200/80
f 85/210/81 84/211/81 103/80/81
f 84/211/82 98/78/82 103/80/82
f 87/79/83 83/212/83 88/201/83
f 87/79/84 118/155/84 83/212/84
f 118/155/105 91/213/105 83/212/105
f 100/56/86 97/205/86 101/204/86
f 100/56/87 89/152/87 97/205/87
f 89/152/88 80/214/88 97/205/88
f 81/28/89 102/176/89 96/208/89
f 81/28/90 42/154/90 102/176/90
f 42/154/91 95/174/91 102/176/91
f 92/215/92 90/216/92 95/217/92
f 79/218/93 94/168/93 90/216/93
f 42/161/94 92/215/94 95/217/94
f 104/219/95 89/220/95 91/221/95
f 86/160/96 80/159/96 89/220/96
f 79/218/97 84/169/97 94/168/97
f 79/218/34 92/215/34 104/219/34
f 117/222/98 98/223/98 84/169/98
f 117/222/99 118/224/99 98/223/99
f 79/225/100 117/226/100 104/227/100
f 104/219/101 91/221/101 118/224/101
f 2/1/106 12/7/106 11/2/106
f 51/4/107 14/228/107 61/5/107
f 12/7/108 2/1/108 36/8/108
f 34/10/109 49/15/109 17/11/109
f 51/13/110 28/229/110 35/14/110
f 40/16/6 39/230/6 29/17/6
f 24/76/111 20/24/111 14/23/111
f 14/23/112 34/231/112 24/76/112
f 35/14/113 18/232/113 17/11/113
f 2/1/114 1/3/114 55/25/114
f 59/30/115 41/233/115 8/31/115
f 36/33/116 62/234/116 61/34/116
f 40/16/117 30/18/117 6/36/117
f 50/32/118 8/31/118 18/38/118
f 51/40/119 13/235/119 27/41/119
f 46/43/120 40/63/120 59/30/120
f 6/44/121 24/76/121 5/45/121
f 51/47/122 49/236/122 34/48/122
f 12/22/123 20/24/123 19/50/123
f 56/52/124 28/237/124 36/53/124
f 20/24/125 30/74/125 29/58/125
f 27/59/126 13/238/126 61/60/126
f 46/43/127 45/70/127 39/62/127
f 60/12/26 17/11/26 18/232/26
f 18/232/26 8/64/26 5/66/26
f 41/65/26 23/239/26 5/66/26
f 5/66/128 60/12/128 18/232/128
f 36/67/129 28/42/129 27/41/129
f 56/69/130 55/240/130 45/70/130
f 20/24/131 24/76/131 6/44/131
f 28/75/132 56/69/132 46/43/132
f 46/43/133 50/32/133 28/75/133
f 24/76/134 34/231/134 60/77/134
f 55/241/34 1/242/34 11/81/34
f 11/81/34 19/243/34 29/82/34
f 29/82/34 39/244/34 45/83/34
f 45/83/34 55/241/34 11/81/34
f 6/84/135 23/245/135 41/85/135
f 77/162/136 16/97/136 4/153/136
f 4/153/137 32/150/137 37/149/137
f 37/149/138 3/73/138 22/72/138
f 22/72/139 31/157/139 64/156/139
f 64/156/140 78/164/140 77/162/140
f 77/162/34 4/153/34 64/156/34
f 37/149/34 22/72/34 64/156/34
f 64/167/100 22/246/100 37/247/100
f 37/247/100 4/165/100 64/167/100
f 117/222/136 84/169/136 79/218/136
f 79/218/137 90/216/137 92/215/137
f 92/215/138 42/161/138 86/160/138
f 86/160/139 89/220/139 104/219/139
f 104/219/140 118/224/140 117/222/140
f 117/222/34 79/218/34 104/219/34
f 92/215/34 86/160/34 104/219/34
f 104/227/100 86/248/100 92/249/100
f 92/249/100 79/225/100 104/227/100
